<svg width="83" height="54" viewBox="0 0 83 54" fill="none" xmlns="http://www.w3.org/2000/svg">
<path d="M4.992 7.488L4.16381 6.92751L4.15995 6.9333L4.992 7.488ZM35.88 7.488L35.0479 8.04271L35.0518 8.04848L35.88 7.488ZM35.88 46.656L35.0518 46.0955L35.048 46.1013L35.88 46.656ZM4.992 46.656L4.15993 47.2107L4.16383 47.2165L4.992 46.656ZM27.024 15.84L26.0955 16.2114L26.0979 16.2173L27.024 15.84ZM13.92 15.84L14.8461 16.2173L14.8485 16.2114L13.92 15.84ZM12.912 35.136L11.9274 35.311L11.9281 35.3149L12.912 35.136ZM15.216 40.32L14.4567 40.9708L14.4692 40.9853L14.4822 40.9994L15.216 40.32ZM25.656 40.32L24.9101 39.654L24.9086 39.6556L25.656 40.32ZM28.032 35.136L29.0159 35.3149L29.0166 35.311L28.032 35.136ZM1.24 27C1.24 18.8577 2.80425 12.5724 5.82405 8.0427L4.15995 6.9333C0.843748 11.9076 -0.76 18.6303 -0.76 27H1.24ZM5.82017 8.04848C8.805 3.63805 13.6103 1.36 20.472 1.36V-0.640005C13.1257 -0.640005 7.611 1.83394 4.16383 6.92752L5.82017 8.04848ZM20.472 1.36C27.3342 1.36 32.1115 3.63799 35.048 8.0427L36.7121 6.9333C33.3125 1.834 27.8178 -0.640005 20.472 -0.640005V1.36ZM35.0518 8.04848C38.1167 12.5771 39.704 18.8601 39.704 27H41.704C41.704 18.6279 40.0753 11.9029 36.7082 6.92752L35.0518 8.04848ZM39.704 27C39.704 35.2387 38.1156 41.5685 35.0518 46.0955L36.7082 47.2165C40.0764 42.2395 41.704 35.4653 41.704 27H39.704ZM35.048 46.1013C32.1115 50.506 27.3342 52.784 20.472 52.784V54.784C27.8178 54.784 33.3125 52.31 36.7121 47.2107L35.048 46.1013ZM20.472 52.784C13.6103 52.784 8.805 50.5059 5.82017 46.0955L4.16383 47.2165C7.611 52.3101 13.1257 54.784 20.472 54.784V52.784ZM5.82405 46.1013C2.80531 41.5732 1.24 35.2411 1.24 27H-0.76C-0.76 35.4629 0.842689 42.2348 4.15995 47.2107L5.82405 46.1013ZM29.608 27C29.608 22.1034 29.0782 18.2316 27.9501 15.4627L26.0979 16.2173C27.0818 18.6324 27.608 22.2006 27.608 27H29.608ZM27.9525 15.4686C27.3534 13.971 26.4105 12.7995 25.1113 12.0142C23.8232 11.2357 22.2571 10.88 20.472 10.88V12.88C21.9989 12.88 23.1808 13.1843 24.0767 13.7258C24.9615 14.2605 25.6386 15.069 26.0955 16.2114L27.9525 15.4686ZM20.472 10.88C18.6869 10.88 17.1208 11.2357 15.8327 12.0142C14.5335 12.7995 13.5906 13.971 12.9915 15.4686L14.8485 16.2114C15.3054 15.069 15.9825 14.2605 16.8673 13.7258C17.7632 13.1843 18.9451 12.88 20.472 12.88V10.88ZM12.9939 15.4627C11.8658 18.2316 11.336 22.1034 11.336 27H13.336C13.336 22.2006 13.8622 18.6324 14.8461 16.2173L12.9939 15.4627ZM11.336 27C11.336 30.2973 11.5295 33.0727 11.9274 35.311L13.8966 34.961C13.5265 32.8793 13.336 30.2307 13.336 27H11.336ZM11.9281 35.3149C12.3371 37.5643 13.1671 39.4662 14.4567 40.9708L15.9753 39.6692C14.9609 38.4858 14.2549 36.9317 13.8959 34.9571L11.9281 35.3149ZM14.4822 40.9994C15.9247 42.5573 17.9788 43.264 20.472 43.264V41.264C18.3572 41.264 16.9073 40.6747 15.9498 39.6406L14.4822 40.9994ZM20.472 43.264C22.9627 43.264 25.0045 42.5581 26.4034 40.9844L24.9086 39.6556C24.0035 40.6739 22.5893 41.264 20.472 41.264V43.264ZM26.4019 40.986C27.7463 39.4803 28.6053 37.5731 29.0159 35.3149L27.0481 34.9571C26.6907 36.9229 25.9657 38.4717 24.9101 39.654L26.4019 40.986ZM29.0166 35.311C29.4145 33.0727 29.608 30.2973 29.608 27H27.608C27.608 30.2307 27.4175 32.8793 27.0474 34.961L29.0166 35.311ZM46.7768 44.136L46.1549 43.3529L45.7768 43.6532V44.136H46.7768ZM49.0088 42.336L48.3717 41.5652L49.5635 43.1681L49.0088 42.336ZM60.0968 32.76L59.4228 32.0212L59.4163 32.0272L60.0968 32.76ZM68.4488 12.312L67.6778 12.9489L67.6778 12.9489L68.4488 12.312ZM60.0248 12.744L59.228 12.1396L59.2248 12.144L60.0248 12.744ZM58.5128 18.504V19.504H59.5128V18.504H58.5128ZM46.6328 18.504L45.633 18.4805L45.6089 19.504H46.6328V18.504ZM49.2248 8.28L48.3725 7.75669L48.3659 7.76772L49.2248 8.28ZM55.7768 2.232L55.3487 1.32824L55.3425 1.33123L55.7768 2.232ZM77.7368 4.68L77.0238 5.38126L77.0296 5.3871L77.7368 4.68ZM76.8728 30.456L77.6528 31.0817L77.6561 31.0776L76.8728 30.456ZM63.4808 43.272L62.8707 42.4796L60.5427 44.272H63.4808V43.272ZM82.9208 43.272H83.9208V42.272H82.9208V43.272ZM82.9208 53.28V54.28H83.9208V53.28H82.9208ZM46.7768 53.28H45.7768V54.28H46.7768V53.28ZM47.3986 44.9191C48.2149 44.2709 48.8114 43.7949 49.1865 43.4924C49.3724 43.3425 49.51 43.2303 49.5934 43.1602C49.6213 43.1368 49.6815 43.0864 49.7282 43.0397C49.7373 43.0307 49.7524 43.0153 49.7699 42.9957C49.7816 42.9826 49.8217 42.9376 49.8634 42.8736C49.8824 42.8445 49.9282 42.7719 49.9656 42.6696C49.988 42.608 50.0984 42.3037 49.9509 41.9455C49.7565 41.4734 49.327 41.3508 49.1235 41.3308C48.9425 41.3131 48.803 41.3503 48.7622 41.3614C48.6603 41.3892 48.5859 41.4276 48.5715 41.4349C48.5434 41.4491 48.5214 41.4619 48.5094 41.469C48.4849 41.4835 48.4648 41.4968 48.454 41.5039L49.5635 43.1681C49.5617 43.1692 49.5489 43.1778 49.5299 43.1891C49.5207 43.1945 49.501 43.206 49.4748 43.2193C49.4623 43.2256 49.3893 43.2634 49.2885 43.2909C49.2482 43.3019 49.1091 43.339 48.9284 43.3213C48.7252 43.3014 48.2959 43.1789 48.1016 42.707C47.9541 42.349 48.0645 42.0449 48.0868 41.9837C48.124 41.8818 48.1696 41.8097 48.1882 41.7811C48.2293 41.7181 48.2683 41.6746 48.2784 41.6633C48.2943 41.6454 48.3074 41.6321 48.314 41.6255C48.3412 41.5983 48.3542 41.5892 48.3071 41.6288C48.2405 41.6847 48.1171 41.7855 47.931 41.9356C47.5621 42.2331 46.9706 42.7051 46.1549 43.3529L47.3986 44.9191ZM49.6458 43.1068C54.3563 39.2134 58.069 36.0076 60.7772 33.4928L59.4163 32.0272C56.7485 34.5044 53.0692 37.6826 48.3717 41.5652L49.6458 43.1068ZM60.7707 33.4988C63.5572 30.9567 65.9138 28.2833 67.8341 25.4767L66.1834 24.3473C64.3597 27.0127 62.1083 29.5713 59.4228 32.0212L60.7707 33.4988ZM67.8341 25.4767C69.7882 22.6206 70.8168 19.7631 70.8168 16.92H68.8168C68.8168 19.2609 67.9733 21.7314 66.1834 24.3473L67.8341 25.4767ZM70.8168 16.92C70.8168 14.8061 70.3268 13.0153 69.2197 11.6751L67.6778 12.9489C68.3947 13.8167 68.8168 15.0979 68.8168 16.92H70.8168ZM69.2197 11.6751C68.0678 10.2807 66.3786 9.656 64.3448 9.656V11.656C65.9589 11.656 67.0057 12.1353 67.6778 12.9489L69.2197 11.6751ZM64.3448 9.656C62.224 9.656 60.4826 10.4859 59.2281 12.1396L60.8214 13.3484C61.6789 12.2181 62.8175 11.656 64.3448 11.656V9.656ZM59.2248 12.144C58.0375 13.727 57.5128 15.8919 57.5128 18.504H59.5128C59.5128 16.1241 59.996 14.449 60.8248 13.344L59.2248 12.144ZM58.5128 17.504H46.6328V19.504H58.5128V17.504ZM47.6325 18.5275C47.7255 14.5725 48.5613 11.3442 50.0836 8.79227L48.3659 7.76772C46.6242 10.6878 45.732 14.2755 45.633 18.4805L47.6325 18.5275ZM50.0769 8.80326C51.6646 6.21759 53.7088 4.3392 56.211 3.13277L55.3425 1.33123C52.4687 2.71679 50.1449 4.8704 48.3726 7.75673L50.0769 8.80326ZM56.2048 3.13573C58.7948 1.90889 61.6707 1.288 64.8488 1.288V-0.712004C61.4028 -0.712004 58.2307 -0.0368973 55.3487 1.32826L56.2048 3.13573ZM64.8488 1.288C70.3995 1.288 74.3954 2.70904 77.0238 5.38123L78.4497 3.97876C75.3181 0.794951 70.722 -0.712004 64.8488 -0.712004V1.288ZM77.0296 5.3871C79.7441 8.10152 81.1288 11.65 81.1288 16.128H83.1288C83.1288 11.198 81.5854 7.11448 78.4439 3.97289L77.0296 5.3871ZM81.1288 16.128C81.1288 21.0159 79.4677 25.5769 76.0894 29.8344L77.6561 31.0776C81.2858 26.5031 83.1288 21.5121 83.1288 16.128H81.1288ZM76.0927 29.8303C72.6481 34.1242 68.245 38.3419 62.8707 42.4796L64.0908 44.0644C69.5645 39.8501 74.0894 35.5238 77.6528 31.0817L76.0927 29.8303ZM63.4808 44.272H82.9208V42.272H63.4808V44.272ZM81.9208 43.272V53.28H83.9208V43.272H81.9208ZM82.9208 52.28H46.7768V54.28H82.9208V52.28ZM47.7768 53.28V44.136H45.7768V53.28H47.7768Z" fill="#869BA7"/>
</svg>
