<svg width="84" height="55" viewBox="0 0 84 55" fill="none" xmlns="http://www.w3.org/2000/svg">
<path d="M4.992 7.488L4.16381 6.92751L4.15995 6.9333L4.992 7.488ZM35.88 7.488L35.0479 8.04271L35.0518 8.04848L35.88 7.488ZM35.88 46.656L35.0518 46.0955L35.048 46.1013L35.88 46.656ZM4.992 46.656L4.15993 47.2107L4.16383 47.2165L4.992 46.656ZM27.024 15.84L26.0955 16.2114L26.0979 16.2173L27.024 15.84ZM13.92 15.84L14.8461 16.2173L14.8485 16.2114L13.92 15.84ZM12.912 35.136L11.9274 35.311L11.9281 35.3149L12.912 35.136ZM15.216 40.32L14.4567 40.9708L14.4692 40.9853L14.4822 40.9994L15.216 40.32ZM25.656 40.32L24.9101 39.654L24.9086 39.6556L25.656 40.32ZM28.032 35.136L29.0159 35.3149L29.0166 35.311L28.032 35.136ZM1.24 27C1.24 18.8577 2.80425 12.5724 5.82405 8.0427L4.15995 6.9333C0.843748 11.9076 -0.76 18.6303 -0.76 27H1.24ZM5.82017 8.04848C8.805 3.63805 13.6103 1.36 20.472 1.36V-0.640005C13.1257 -0.640005 7.611 1.83394 4.16383 6.92752L5.82017 8.04848ZM20.472 1.36C27.3342 1.36 32.1115 3.63799 35.048 8.0427L36.7121 6.9333C33.3125 1.834 27.8178 -0.640005 20.472 -0.640005V1.36ZM35.0518 8.04848C38.1167 12.5771 39.704 18.8601 39.704 27H41.704C41.704 18.6279 40.0753 11.9029 36.7082 6.92752L35.0518 8.04848ZM39.704 27C39.704 35.2387 38.1156 41.5685 35.0518 46.0955L36.7082 47.2165C40.0764 42.2395 41.704 35.4653 41.704 27H39.704ZM35.048 46.1013C32.1115 50.506 27.3342 52.784 20.472 52.784V54.784C27.8178 54.784 33.3125 52.31 36.7121 47.2107L35.048 46.1013ZM20.472 52.784C13.6103 52.784 8.805 50.5059 5.82017 46.0955L4.16383 47.2165C7.611 52.3101 13.1257 54.784 20.472 54.784V52.784ZM5.82405 46.1013C2.80531 41.5732 1.24 35.2411 1.24 27H-0.76C-0.76 35.4629 0.842689 42.2348 4.15995 47.2107L5.82405 46.1013ZM29.608 27C29.608 22.1034 29.0782 18.2316 27.9501 15.4627L26.0979 16.2173C27.0818 18.6324 27.608 22.2006 27.608 27H29.608ZM27.9525 15.4686C27.3534 13.971 26.4105 12.7995 25.1113 12.0142C23.8232 11.2357 22.2571 10.88 20.472 10.88V12.88C21.9989 12.88 23.1808 13.1843 24.0767 13.7258C24.9615 14.2605 25.6386 15.069 26.0955 16.2114L27.9525 15.4686ZM20.472 10.88C18.6869 10.88 17.1208 11.2357 15.8327 12.0142C14.5335 12.7995 13.5906 13.971 12.9915 15.4686L14.8485 16.2114C15.3054 15.069 15.9825 14.2605 16.8673 13.7258C17.7632 13.1843 18.9451 12.88 20.472 12.88V10.88ZM12.9939 15.4627C11.8658 18.2316 11.336 22.1034 11.336 27H13.336C13.336 22.2006 13.8622 18.6324 14.8461 16.2173L12.9939 15.4627ZM11.336 27C11.336 30.2973 11.5295 33.0727 11.9274 35.311L13.8966 34.961C13.5265 32.8793 13.336 30.2307 13.336 27H11.336ZM11.9281 35.3149C12.3371 37.5643 13.1671 39.4662 14.4567 40.9708L15.9753 39.6692C14.9609 38.4858 14.2549 36.9317 13.8959 34.9571L11.9281 35.3149ZM14.4822 40.9994C15.9247 42.5573 17.9788 43.264 20.472 43.264V41.264C18.3572 41.264 16.9073 40.6747 15.9498 39.6406L14.4822 40.9994ZM20.472 43.264C22.9627 43.264 25.0045 42.5581 26.4034 40.9844L24.9086 39.6556C24.0035 40.6739 22.5893 41.264 20.472 41.264V43.264ZM26.4019 40.986C27.7463 39.4803 28.6053 37.5731 29.0159 35.3149L27.0481 34.9571C26.6907 36.9229 25.9657 38.4717 24.9101 39.654L26.4019 40.986ZM29.0166 35.311C29.4145 33.0727 29.608 30.2973 29.608 27H27.608C27.608 30.2307 27.4175 32.8793 27.0474 34.961L29.0166 35.311ZM47.6408 16.272L46.6414 16.2346L46.6027 17.272H47.6408V16.272ZM52.6808 4.392L53.3409 5.14316L53.3409 5.14316L52.6808 4.392ZM74.7848 2.088L74.3443 2.98581L74.3509 2.989L74.7848 2.088ZM80.6168 7.2L79.7593 7.71449L79.7634 7.72143L79.7677 7.7283L80.6168 7.2ZM80.2568 22.248L81.0358 22.8751L81.0431 22.8658L80.2568 22.248ZM74.7128 26.28L74.3901 25.3335L73.7128 25.5644V26.28H74.7128ZM74.7128 26.568H73.7128V27.2888L74.3965 27.5167L74.7128 26.568ZM81.4808 47.16L80.6248 46.6429L80.6217 46.6482L81.4808 47.16ZM75.5048 52.488L75.0641 51.5903L75.0575 51.5936L75.5048 52.488ZM52.3928 50.184L51.7536 50.9531L51.7589 50.9575L52.3928 50.184ZM46.9928 37.368V36.368H45.9586L45.9933 37.4016L46.9928 37.368ZM58.9448 37.368L59.9445 37.3453L59.9223 36.368H58.9448V37.368ZM60.7448 42.408L60.0099 43.0863L60.0166 43.0935L60.0234 43.1005L60.7448 42.408ZM70.1048 42.624L69.3821 41.9328L69.3814 41.9335L70.1048 42.624ZM69.4568 33.336L68.8654 34.1424L68.8804 34.1534L68.8959 34.1639L69.4568 33.336ZM60.1688 31.752H59.1688V32.752H60.1688V31.752ZM60.1688 21.744V20.744H59.1688V21.744H60.1688ZM68.3768 20.52L68.8576 21.3969L68.867 21.3916L68.3768 20.52ZM69.2408 11.952L69.9479 11.2449L69.9479 11.2449L69.2408 11.952ZM61.1768 12.168L60.4058 11.5311L60.3974 11.5413L60.3892 11.5517L61.1768 12.168ZM59.6648 16.272V17.272H60.5804L60.6609 16.3599L59.6648 16.272ZM48.6401 16.3094C48.8242 11.3833 50.423 7.70731 53.3409 5.14316L52.0206 3.64083C48.6025 6.64469 46.8413 10.8887 46.6414 16.2346L48.6401 16.3094ZM53.3409 5.14316C56.2791 2.5611 60.3164 1.216 65.5688 1.216V-0.784003C59.9731 -0.784003 55.4184 0.654901 52.0206 3.64083L53.3409 5.14316ZM65.5688 1.216C69.0561 1.216 71.9693 1.8207 74.3443 2.98579L75.2252 1.19021C72.5122 -0.140705 69.2814 -0.784003 65.5688 -0.784003V1.216ZM74.3509 2.989C76.7927 4.16467 78.5775 5.74483 79.7593 7.71449L81.4742 6.6855C80.064 4.33517 77.9608 2.50732 75.2186 1.187L74.3509 2.989ZM79.7677 7.7283C81.0074 9.72062 81.6328 11.9597 81.6328 14.472H83.6328C83.6328 11.6083 82.9141 8.99938 81.4658 6.6717L79.7677 7.7283ZM81.6328 14.472C81.6328 17.47 80.8859 19.8286 79.4704 21.6302L81.0431 22.8658C82.7956 20.6353 83.6328 17.81 83.6328 14.472H81.6328ZM79.4777 21.621C77.9964 23.4615 76.2999 24.6824 74.3901 25.3335L75.0354 27.2265C77.3496 26.4376 79.3491 24.9705 81.0358 22.875L79.4777 21.621ZM73.7128 26.28V26.568H75.7128V26.28H73.7128ZM74.3965 27.5167C76.9582 28.3706 78.9421 29.7698 80.3928 31.704L81.9928 30.504C80.2754 28.2142 77.9393 26.5894 75.029 25.6193L74.3965 27.5167ZM80.3928 31.704C81.817 33.603 82.5688 36.0885 82.5688 39.24H84.5688C84.5688 35.7675 83.7365 32.829 81.9928 30.504L80.3928 31.704ZM82.5688 39.24C82.5688 42.0535 81.9128 44.511 80.6248 46.6429L82.3367 47.6771C83.8327 45.201 84.5688 42.3785 84.5688 39.24H82.5688ZM80.6217 46.6482C79.3884 48.7183 77.5517 50.3691 75.0641 51.5903L75.9454 53.3857C78.7378 52.0149 80.8851 50.1137 82.3399 47.6718L80.6217 46.6482ZM75.0575 51.5936C72.6339 52.8054 69.6983 53.432 66.2168 53.432V55.432C69.9352 55.432 73.1916 54.7626 75.952 53.3824L75.0575 51.5936ZM66.2168 53.432C60.62 53.432 56.2576 52.0581 53.0266 49.4105L51.7589 50.9575C55.4399 53.9739 60.2935 55.432 66.2168 55.432V53.432ZM53.0319 49.4149C49.9032 46.815 48.1776 42.8491 47.9922 37.3344L45.9933 37.4016C46.1919 43.3109 48.0663 47.889 51.7536 50.9531L53.0319 49.4149ZM46.9928 38.368H58.9448V36.368H46.9928V38.368ZM57.945 37.3907C57.9971 39.6846 58.6552 41.6187 60.0099 43.0863L61.4796 41.7297C60.5303 40.7013 59.9884 39.2754 59.9445 37.3453L57.945 37.3907ZM60.0234 43.1005C61.4198 44.5551 63.3973 45.208 65.7848 45.208V43.208C63.7562 43.208 62.3737 42.6609 61.4661 41.7155L60.0234 43.1005ZM65.7848 45.208C67.8486 45.208 69.5818 44.6202 70.8281 43.3145L69.3814 41.9335C68.6117 42.7398 67.4649 43.208 65.7848 43.208V45.208ZM70.8274 43.3152C72.0902 41.995 72.6888 40.2926 72.6888 38.304H70.6888C70.6888 39.8674 70.2313 41.045 69.3821 41.9328L70.8274 43.3152ZM72.6888 38.304C72.6888 35.7731 71.8569 33.7541 70.0176 32.5081L68.8959 34.1639C70.0326 34.9339 70.6888 36.2269 70.6888 38.304H72.6888ZM70.0481 32.5296C68.3462 31.2815 65.752 30.752 62.4727 30.752V32.752C65.6255 32.752 67.6873 33.2785 68.8654 34.1424L70.0481 32.5296ZM62.4727 30.752H60.1688V32.752H62.4727V30.752ZM61.1688 31.752V21.744H59.1688V31.752H61.1688ZM60.1688 22.744H62.4727V20.744H60.1688V22.744ZM62.4727 22.744C65.0192 22.744 67.1713 22.3215 68.8576 21.3968L67.8959 19.6432C66.6062 20.3505 64.8223 20.744 62.4727 20.744V22.744ZM68.867 21.3916C70.7935 20.3079 71.6808 18.4092 71.6808 15.984H69.6808C69.6808 17.8788 69.032 19.0041 67.8865 19.6484L68.867 21.3916ZM71.6808 15.984C71.6808 14.0667 71.143 12.4401 69.9479 11.2449L68.5336 12.6591C69.2585 13.3839 69.6808 14.4453 69.6808 15.984H71.6808ZM69.9479 11.2449C68.7579 10.0549 67.1592 9.512 65.2808 9.512V11.512C66.7623 11.512 67.8036 11.9291 68.5336 12.6591L69.9479 11.2449ZM65.2808 9.512C63.2469 9.512 61.5577 10.1367 60.4058 11.5311L61.9477 12.8049C62.6198 11.9913 63.6666 11.512 65.2808 11.512V9.512ZM60.3892 11.5517C59.3871 12.8322 58.8267 14.3926 58.6686 16.1841L60.6609 16.3599C60.7908 14.8873 61.2384 13.7118 61.9643 12.7843L60.3892 11.5517ZM59.6648 15.272H47.6408V17.272H59.6648V15.272Z" fill="#869BA7"/>
</svg>
