<svg width="90" height="54" viewBox="0 0 90 54" fill="none" xmlns="http://www.w3.org/2000/svg">
<path d="M4.992 7.488L4.16381 6.92751L4.15995 6.9333L4.992 7.488ZM35.88 7.488L35.0479 8.04271L35.0518 8.04848L35.88 7.488ZM35.88 46.656L35.0518 46.0955L35.048 46.1013L35.88 46.656ZM4.992 46.656L4.15993 47.2107L4.16383 47.2165L4.992 46.656ZM27.024 15.84L26.0955 16.2114L26.0979 16.2173L27.024 15.84ZM13.92 15.84L14.8461 16.2173L14.8485 16.2114L13.92 15.84ZM12.912 35.136L11.9274 35.311L11.9281 35.3149L12.912 35.136ZM15.216 40.32L14.4567 40.9708L14.4692 40.9853L14.4822 40.9994L15.216 40.32ZM25.656 40.32L24.9101 39.654L24.9086 39.6556L25.656 40.32ZM28.032 35.136L29.0159 35.3149L29.0166 35.311L28.032 35.136ZM1.24 27C1.24 18.8577 2.80425 12.5724 5.82405 8.0427L4.15995 6.9333C0.843748 11.9076 -0.76 18.6303 -0.76 27H1.24ZM5.82017 8.04848C8.805 3.63805 13.6103 1.36 20.472 1.36V-0.640005C13.1257 -0.640005 7.611 1.83394 4.16383 6.92752L5.82017 8.04848ZM20.472 1.36C27.3342 1.36 32.1115 3.63799 35.048 8.0427L36.7121 6.9333C33.3125 1.834 27.8178 -0.640005 20.472 -0.640005V1.36ZM35.0518 8.04848C38.1167 12.5771 39.704 18.8601 39.704 27H41.704C41.704 18.6279 40.0753 11.9029 36.7082 6.92752L35.0518 8.04848ZM39.704 27C39.704 35.2387 38.1156 41.5685 35.0518 46.0955L36.7082 47.2165C40.0764 42.2395 41.704 35.4653 41.704 27H39.704ZM35.048 46.1013C32.1115 50.506 27.3342 52.784 20.472 52.784V54.784C27.8178 54.784 33.3125 52.31 36.7121 47.2107L35.048 46.1013ZM20.472 52.784C13.6103 52.784 8.805 50.5059 5.82017 46.0955L4.16383 47.2165C7.611 52.3101 13.1257 54.784 20.472 54.784V52.784ZM5.82405 46.1013C2.80531 41.5732 1.24 35.2411 1.24 27H-0.76C-0.76 35.4629 0.842689 42.2348 4.15995 47.2107L5.82405 46.1013ZM29.608 27C29.608 22.1034 29.0782 18.2316 27.9501 15.4627L26.0979 16.2173C27.0818 18.6324 27.608 22.2006 27.608 27H29.608ZM27.9525 15.4686C27.3534 13.971 26.4105 12.7995 25.1113 12.0142C23.8232 11.2357 22.2571 10.88 20.472 10.88V12.88C21.9989 12.88 23.1808 13.1843 24.0767 13.7258C24.9615 14.2605 25.6386 15.069 26.0955 16.2114L27.9525 15.4686ZM20.472 10.88C18.6869 10.88 17.1208 11.2357 15.8327 12.0142C14.5335 12.7995 13.5906 13.971 12.9915 15.4686L14.8485 16.2114C15.3054 15.069 15.9825 14.2605 16.8673 13.7258C17.7632 13.1843 18.9451 12.88 20.472 12.88V10.88ZM12.9939 15.4627C11.8658 18.2316 11.336 22.1034 11.336 27H13.336C13.336 22.2006 13.8622 18.6324 14.8461 16.2173L12.9939 15.4627ZM11.336 27C11.336 30.2973 11.5295 33.0727 11.9274 35.311L13.8966 34.961C13.5265 32.8793 13.336 30.2307 13.336 27H11.336ZM11.9281 35.3149C12.3371 37.5643 13.1671 39.4662 14.4567 40.9708L15.9753 39.6692C14.9609 38.4858 14.2549 36.9317 13.8959 34.9571L11.9281 35.3149ZM14.4822 40.9994C15.9247 42.5573 17.9788 43.264 20.472 43.264V41.264C18.3572 41.264 16.9073 40.6747 15.9498 39.6406L14.4822 40.9994ZM20.472 43.264C22.9627 43.264 25.0045 42.5581 26.4034 40.9844L24.9086 39.6556C24.0035 40.6739 22.5893 41.264 20.472 41.264V43.264ZM26.4019 40.986C27.7463 39.4803 28.6053 37.5731 29.0159 35.3149L27.0481 34.9571C26.6907 36.9229 25.9657 38.4717 24.9101 39.654L26.4019 40.986ZM29.0166 35.311C29.4145 33.0727 29.608 30.2973 29.608 27H27.608C27.608 30.2307 27.4175 32.8793 27.0474 34.961L29.0166 35.311ZM47.4968 44.64H46.4968V45.64H47.4968V44.64ZM47.4968 34.704L46.6772 34.131L46.4968 34.3891V34.704H47.4968ZM70.2488 2.16V1.16H69.7277L69.4292 1.58702L70.2488 2.16ZM84.0008 2.16H85.0008V1.16H84.0008V2.16ZM84.0008 33.984H83.0008V34.984H84.0008V33.984ZM89.9048 33.984H90.9048V32.984H89.9048V33.984ZM89.9048 44.64V45.64H90.9048V44.64H89.9048ZM84.0008 44.64V43.64H83.0008V44.64H84.0008ZM84.0008 54V55H85.0008V54H84.0008ZM71.6888 54H70.6888V55H71.6888V54ZM71.6888 44.64H72.6888V43.64H71.6888V44.64ZM72.5528 15.696H73.5528V12.3714L71.7187 15.1443L72.5528 15.696ZM60.4568 33.984L59.6227 33.4323L58.5964 34.984H60.4568V33.984ZM72.5528 33.984V34.984H73.5528V33.984H72.5528ZM48.4968 44.64V34.704H46.4968V44.64H48.4968ZM48.3163 35.277L71.0683 2.73297L69.4292 1.58702L46.6772 34.131L48.3163 35.277ZM70.2488 3.16H84.0008V1.16H70.2488V3.16ZM83.0008 2.16V33.984H85.0008V2.16H83.0008ZM84.0008 34.984H89.9048V32.984H84.0008V34.984ZM88.9048 33.984V44.64H90.9048V33.984H88.9048ZM89.9048 43.64H84.0008V45.64H89.9048V43.64ZM83.0008 44.64V54H85.0008V44.64H83.0008ZM84.0008 53H71.6888V55H84.0008V53ZM72.6888 54V44.64H70.6888V54H72.6888ZM71.6888 43.64H47.4968V45.64H71.6888V43.64ZM71.7187 15.1443L59.6227 33.4323L61.2908 34.5357L73.3868 16.2477L71.7187 15.1443ZM60.4568 34.984H72.5528V32.984H60.4568V34.984ZM73.5528 33.984V15.696H71.5528V33.984H73.5528Z" fill="#869BA7"/>
</svg>
