<svg width="64" height="65" viewBox="0 0 64 65" fill="none" xmlns="http://www.w3.org/2000/svg">
<circle cx="32" cy="32.5" r="30.5" fill="#FDFDFD" stroke="black" stroke-width="3"/>
<path d="M32.5 17.5L15 28.3217L16.2359 29.0862V42.4814C15.8189 42.7184 15.493 43.0843 15.3087 43.5223C15.1244 43.9603 15.0921 44.4459 15.2167 44.9038C15.3414 45.3617 15.616 45.7664 15.998 46.055C16.3801 46.3436 16.8481 46.5 17.3297 46.5C17.8112 46.5 18.2793 46.3436 18.6614 46.055C19.0434 45.7664 19.318 45.3617 19.4426 44.9038C19.5673 44.4459 19.535 43.9603 19.3507 43.5223C19.1664 43.0843 18.8405 42.7184 18.4234 42.4814V30.4322L20.6109 31.7674L32.5 39.1434L50 28.3217L32.5 17.5Z" fill="#FC491E"/>
<path d="M20.5782 34.3192V34.7284C20.5782 37.8412 21.8343 40.8266 24.0701 43.0277C26.3059 45.2288 29.3382 46.4654 32.5001 46.4654C35.662 46.4654 38.6944 45.2288 40.9301 43.0277C43.1659 40.8266 44.422 37.8412 44.422 34.7284V34.3192L32.5001 41.6737L20.5782 34.3192Z" fill="#FC491E"/>
</svg>
