<svg width="64" height="65" viewBox="0 0 64 65" fill="none" xmlns="http://www.w3.org/2000/svg">
<circle cx="32" cy="32.5" r="30.5" fill="#FDFDFD" stroke="black" stroke-width="3"/>
<path d="M20.0381 30.4009L23.7514 31.9707C23.3327 33.0483 22.9987 34.1582 22.7526 35.2898L22.6118 35.9425L27.9352 41.3732L28.5754 41.2329C29.6854 40.982 30.774 40.6415 31.831 40.2146L33.3707 44.0004C33.3858 44.038 33.4098 44.0711 33.4405 44.0968C33.4713 44.1225 33.5078 44.1401 33.5468 44.1478C33.5859 44.1556 33.6262 44.1533 33.6642 44.1413C33.7022 44.1292 33.7366 44.1078 33.7644 44.0788L36.0916 41.7061C36.4714 41.3189 36.7674 40.8549 36.9603 40.3439C37.1533 39.8329 37.2391 39.2863 37.212 38.7395L37.1288 37.2154C41.4375 33.9713 45.7974 28.2828 46.985 18.3548C47.0187 18.1059 46.9955 17.8524 46.9173 17.6141C46.8391 17.3758 46.708 17.1592 46.5342 16.981C46.3604 16.8029 46.1486 16.6681 45.9153 16.5871C45.682 16.5061 45.4335 16.4811 45.1892 16.5141C35.4546 17.7347 29.8719 22.1831 26.69 26.5629L25.1983 26.4845C24.663 26.4548 24.1276 26.5397 23.6265 26.7336C23.1254 26.9275 22.6696 27.2262 22.2885 27.6105L19.9613 29.9831C19.929 30.0111 19.9046 30.0472 19.8905 30.0879C19.8763 30.1286 19.873 30.1723 19.8808 30.2147C19.8886 30.2572 19.9073 30.2967 19.9349 30.3294C19.9625 30.3621 19.9981 30.3868 20.0381 30.4009ZM34.968 24.6177C35.3714 24.208 35.8847 23.9292 36.4433 23.8167C37.0019 23.7042 37.5806 23.763 38.1065 23.9856C38.6323 24.2082 39.0817 24.5847 39.3978 25.0675C39.7139 25.5503 39.8827 26.1178 39.8827 26.6983C39.8827 27.2788 39.7139 27.8463 39.3978 28.3291C39.0817 28.8119 38.6323 29.1884 38.1065 29.411C37.5806 29.6336 37.0019 29.6924 36.4433 29.5799C35.8847 29.4674 35.3714 29.1886 34.968 28.7789C34.6995 28.506 34.4863 28.1817 34.3409 27.8247C34.1955 27.4677 34.1207 27.0849 34.1207 26.6983C34.1207 26.3117 34.1955 25.9289 34.3409 25.5719C34.4863 25.2149 34.6995 24.8906 34.968 24.6177ZM19.3435 41.8073C18.7273 41.5868 18.0655 41.5328 17.4228 41.6506C17.3657 41.6632 17.3063 41.6609 17.2504 41.6437C17.1944 41.6266 17.1436 41.5953 17.1027 41.5527C17.052 41.5012 17.018 41.4351 17.0055 41.3633C16.9929 41.2915 17.0022 41.2175 17.0323 41.1513C17.7141 39.6566 19.5227 36.6507 22.7974 39.0789C22.8146 39.0945 22.8282 39.1136 22.8376 39.135C22.847 39.1564 22.8518 39.1795 22.8518 39.2029C22.8518 39.2263 22.847 39.2495 22.8376 39.2708C22.8282 39.2922 22.8146 39.3113 22.7974 39.3269C22.359 39.6789 22.008 40.1312 21.7728 40.6471C21.5376 41.1631 21.4247 41.7282 21.4434 42.2968C21.4458 42.3636 21.4728 42.4269 21.5192 42.4741C21.5655 42.5214 21.6276 42.549 21.6931 42.5514C22.2484 42.5742 22.8013 42.4638 23.3072 42.2291C23.8131 41.9944 24.258 41.6421 24.6061 41.2002C24.6214 41.1811 24.6407 41.1657 24.6625 41.1552C24.6844 41.1446 24.7083 41.1391 24.7325 41.1391C24.7567 41.1391 24.7806 41.1446 24.8025 41.1552C24.8244 41.1657 24.8436 41.1811 24.859 41.2002C25.3135 41.7518 26.5651 43.5533 25.1791 45.2928C24.574 46.0343 23.7069 46.5033 22.7654 46.5983C21.421 46.7452 18.9369 47.1923 17.9222 48.3737C17.8814 48.4229 17.8284 48.4599 17.7686 48.4808C17.7089 48.5017 17.6447 48.5056 17.5829 48.4922C17.5211 48.4788 17.4641 48.4486 17.4178 48.4047C17.3716 48.3608 17.3379 48.305 17.3204 48.2432C16.9618 46.9965 16.4048 44.2093 19.3435 41.8073Z" fill="#FC491E"/>
</svg>
