<svg width="64" height="65" viewBox="0 0 64 65" fill="none" xmlns="http://www.w3.org/2000/svg">
<circle cx="32" cy="32.5" r="30.5" fill="#FDFDFD" stroke="black" stroke-width="3"/>
<path d="M14 29.6552V35.4604C14 36.3626 14.7322 37.0947 15.6269 37.0947H16.9655V28.0283H15.6269C14.7322 28.0283 14 28.7604 14 29.6552Z" fill="#FC491E"/>
<path d="M45.6069 28.6643C45.2002 28.6643 44.8082 28.7234 44.4311 28.8492V36.2813C44.8082 36.3996 45.2076 36.4588 45.6069 36.4588C47.7515 36.4588 49.4967 34.7135 49.4967 32.5689C49.4967 30.417 47.7515 28.6643 45.6069 28.6643Z" fill="#FC491E"/>
<path d="M22.4675 26.4309H18.4445V38.6847H22.4675V26.4309Z" fill="#FC491E"/>
<path d="M22.475 40.1636H20.4708V46.4866C20.4708 47.8103 21.5431 48.89 22.8668 48.89H23.5546C24.8783 48.89 25.9506 47.8103 25.9506 46.4866V40.1708H22.475V40.1636Z" fill="#FC491E"/>
<path d="M31.8224 26.4309H23.9539V38.6921H31.8224C38.3819 38.6921 42.2495 43.6395 42.9521 44.6304V20.5C42.2495 21.491 38.404 26.4309 31.8224 26.4309Z" fill="#FC491E"/>
</svg>
