<svg width="64" height="65" viewBox="0 0 64 65" fill="none" xmlns="http://www.w3.org/2000/svg">
<circle cx="32" cy="32.5" r="30.5" fill="#FDFDFD" stroke="black" stroke-width="3"/>
<path d="M32.289 45.1478C32.289 46.0079 32.0247 46.8488 31.5295 47.5642C31.0343 48.2796 30.3304 48.8374 29.5066 49.1673C28.6829 49.4971 27.7763 49.5842 26.9013 49.4175C26.0263 49.2508 25.2221 48.8377 24.5903 48.2306C23.9586 47.6234 23.5275 46.8494 23.3516 46.0061C23.1757 45.1629 23.2628 44.2882 23.602 43.4927C23.9412 42.6972 24.5172 42.0164 25.2573 41.5364C25.9974 41.0563 26.8684 40.7986 27.7603 40.7956C28.3543 40.7936 28.9428 40.9047 29.4922 41.1225C30.0415 41.3403 30.5409 41.6606 30.9616 42.0649C31.3824 42.4693 31.7162 42.9497 31.944 43.4788C32.1718 44.0078 32.289 44.575 32.289 45.1478ZM44.7185 35.4791C43.8259 35.4791 42.9533 35.7344 42.2112 36.2126C41.469 36.6908 40.8905 37.3706 40.549 38.1658C40.2074 38.9611 40.118 39.8362 40.2921 40.6804C40.4663 41.5247 40.8961 42.3002 41.5273 42.9088C42.1584 43.5175 42.9626 43.932 43.838 44.0999C44.7135 44.2679 45.6209 44.1817 46.4455 43.8523C47.2702 43.5229 47.975 42.965 48.4709 42.2493C48.9668 41.5336 49.2315 40.6921 49.2315 39.8313C49.2315 38.6771 48.756 37.5701 47.9096 36.7539C47.0633 35.9377 45.9154 35.4791 44.7185 35.4791ZM29.6306 18.4861C28.738 18.4861 27.8655 18.7414 27.1233 19.2196C26.3811 19.6978 25.8027 20.3776 25.4611 21.1728C25.1195 21.9681 25.0301 22.8432 25.2043 23.6874C25.3784 24.5317 25.8082 25.3072 26.4394 25.9159C27.0706 26.5245 27.8747 26.939 28.7501 27.107C29.6256 27.2749 30.533 27.1887 31.3577 26.8593C32.1823 26.5299 32.8871 25.9721 33.383 25.2563C33.8789 24.5406 34.1436 23.6992 34.1436 22.8384C34.1436 21.6841 33.6681 20.5771 32.8218 19.7609C31.9754 18.9447 30.8275 18.4861 29.6306 18.4861ZM49.9961 21.2654C49.995 22.7904 49.3664 24.2527 48.2482 25.331C47.13 26.4094 45.6137 27.0157 44.0323 27.0167C43.9539 27.0167 43.8755 27.0167 43.797 27.0167C42.9368 28.8555 41.7416 30.5306 40.2682 31.9625C34.1162 37.9067 24.2863 38.3642 17.3501 33.6376L17.7109 35.3052C17.7579 35.5232 17.7599 35.748 17.7168 35.9667C17.6736 36.1855 17.5862 36.3939 17.4595 36.58C17.3327 36.7662 17.1692 36.9264 16.9782 37.0515C16.7872 37.1766 16.5725 37.2642 16.3464 37.3092C16.12 37.357 15.8861 37.361 15.6581 37.3212C15.4301 37.2814 15.2126 37.1985 15.018 37.0772C14.8233 36.956 14.6555 36.7988 14.5242 36.6147C14.3928 36.4306 14.3005 36.2233 14.2526 36.0047L13.0332 30.3328C12.9432 29.8926 13.038 29.436 13.2967 29.0631C13.5555 28.6902 13.9571 28.4316 14.4133 28.3439L20.2948 27.1679C20.5208 27.1227 20.7539 27.1209 20.9807 27.1626C21.2074 27.2043 21.4235 27.2886 21.6164 27.4108C21.8094 27.533 21.9755 27.6906 22.1053 27.8747C22.2351 28.0588 22.326 28.2658 22.3729 28.4838C22.4198 28.7018 22.4216 28.9265 22.3784 29.1452C22.3352 29.3639 22.2477 29.5723 22.121 29.7583C21.9943 29.9444 21.8309 30.1046 21.64 30.2298C21.449 30.355 21.2344 30.4427 21.0084 30.4879L19.2793 30.8357C24.8392 34.7077 32.8066 34.3939 37.7784 29.5577C38.888 28.4836 39.8026 27.2374 40.4838 25.8709C39.6658 25.2859 39.0168 24.5087 38.5986 23.6132C38.1803 22.7178 38.0068 21.7339 38.0946 20.7555C38.1824 19.777 38.5286 18.8366 39.1001 18.0237C39.6716 17.2108 40.4494 16.5526 41.3595 16.1118C42.2695 15.671 43.2815 15.4623 44.2989 15.5056C45.3162 15.5488 46.3052 15.8426 47.1715 16.3589C48.0378 16.8752 48.7526 17.5969 49.2477 18.4551C49.7428 19.3133 50.0018 20.2795 50 21.2616L49.9961 21.2654ZM46.4672 21.2654C46.4672 21.2654 46.4672 21.2654 46.4672 21.2465C46.458 20.6292 46.1983 20.04 45.7438 19.6053C45.2894 19.1705 44.6763 18.9249 44.0362 18.921C43.9539 18.917 43.8715 18.917 43.7892 18.921C43.1939 18.9804 42.6421 19.2493 42.2393 19.6761C41.8364 20.103 41.6107 20.658 41.6052 21.2351C41.6052 21.2351 41.6052 21.2351 41.6052 21.254C41.6304 21.86 41.8978 22.4331 42.3513 22.8532C42.8048 23.2733 43.4093 23.508 44.0382 23.508C44.667 23.508 45.2715 23.2733 45.725 22.8532C46.1785 22.4331 46.4459 21.86 46.4711 21.254L46.4672 21.2654Z" fill="#FC491E"/>
</svg>
