<svg width="1703" height="63" viewBox="0 0 1703 63" fill="none" xmlns="http://www.w3.org/2000/svg">
<path d="M11.388 48.44L10.921 49.3243L10.9288 49.3284L11.388 48.44ZM4.108 41.68L3.24862 42.1915L3.25599 42.2035L4.108 41.68ZM4.108 21.972L3.25321 21.453L3.25142 21.456L4.108 21.972ZM11.388 15.212L11.8472 16.1004L11.855 16.0963L11.388 15.212ZM31.252 14.64L30.8416 15.5519L30.8416 15.5519L31.252 14.64ZM38.116 20.048L38.7819 20.794L39.4734 20.1768L38.9104 19.4405L38.116 20.048ZM30.368 26.964L29.5843 27.5852L30.243 28.4161L31.0339 27.71L30.368 26.964ZM16.224 25.196L16.9463 25.8876L16.9535 25.8799L16.224 25.196ZM16.224 38.456L15.4944 39.14L15.5017 39.1476L16.224 38.456ZM30.368 36.636L31.0339 35.89L30.243 35.1839L29.5843 36.0148L30.368 36.636ZM38.116 43.552L38.9104 44.1594L39.4734 43.4232L38.7819 42.806L38.116 43.552ZM31.252 48.96L30.8416 48.0481L30.8416 48.0481L31.252 48.96ZM21.788 49.832C18.0823 49.832 14.7758 49.0653 11.8472 47.5516L10.9288 49.3284C14.1709 51.004 17.7978 51.832 21.788 51.832V49.832ZM11.855 47.5557C8.92247 46.0071 6.63107 43.876 4.96001 41.1565L3.25599 42.2035C5.12093 45.2386 7.68286 47.6142 10.921 49.3243L11.855 47.5557ZM4.96729 41.1685C3.33377 38.4242 2.508 35.3103 2.508 31.8H0.508C0.508 35.639 1.41557 39.1118 3.24871 42.1915L4.96729 41.1685ZM2.508 31.8C2.508 28.2895 3.33379 25.1951 4.96458 22.488L3.25142 21.456C1.41555 24.5035 0.508 27.9611 0.508 31.8H2.508ZM4.96279 22.491C6.63343 19.7393 8.92179 17.6123 11.8472 16.1004L10.9288 14.3236C7.68354 16.001 5.11857 18.3807 3.25321 21.453L4.96279 22.491ZM11.855 16.0963C14.782 14.5505 18.0857 13.768 21.788 13.768V11.768C17.7943 11.768 14.1646 12.6148 10.921 14.3277L11.855 16.0963ZM21.788 13.768C25.2054 13.768 28.2166 14.3707 30.8416 15.5519L31.6624 13.7281C28.7407 12.4133 25.4426 11.768 21.788 11.768V13.768ZM30.8416 15.5519C33.4676 16.7336 35.6223 18.4332 37.3216 20.6554L38.9104 19.4405C37.0044 16.9481 34.5831 15.0424 31.6624 13.7281L30.8416 15.5519ZM37.4501 19.302L29.7021 26.218L31.0339 27.71L38.7819 20.794L37.4501 19.302ZM31.1517 26.3428C28.7487 23.3113 25.8271 21.7 22.412 21.7V23.7C25.0982 23.7 27.4807 24.9313 29.5843 27.5852L31.1517 26.3428ZM22.412 21.7C19.6083 21.7 17.268 22.6203 15.4945 24.5121L16.9535 25.8799C18.3 24.4437 20.0851 23.7 22.412 23.7V21.7ZM15.5017 24.5044C13.7246 26.3605 12.884 28.8314 12.884 31.8H14.884C14.884 29.222 15.6034 27.2901 16.9463 25.8876L15.5017 24.5044ZM12.884 31.8C12.884 34.7695 13.7248 37.2523 15.4945 39.1399L16.9535 37.7721C15.6032 36.3317 14.884 34.3772 14.884 31.8H12.884ZM15.5017 39.1476C17.2769 41.0017 19.6149 41.9 22.412 41.9V39.9C20.0784 39.9 18.2911 39.169 16.9463 37.7644L15.5017 39.1476ZM22.412 41.9C25.8271 41.9 28.7487 40.2887 31.1517 37.2572L29.5843 36.0148C27.4807 38.6687 25.0982 39.9 22.412 39.9V41.9ZM29.7021 37.382L37.4501 44.298L38.7819 42.806L31.0339 35.89L29.7021 37.382ZM37.3216 42.9445C35.6223 45.1668 33.4676 46.8664 30.8416 48.0481L31.6624 49.8719C34.5831 48.5576 37.0044 46.6519 38.9104 44.1594L37.3216 42.9445ZM30.8416 48.0481C28.2166 49.2293 25.2054 49.832 21.788 49.832V51.832C25.4426 51.832 28.7407 51.1867 31.6624 49.8719L30.8416 48.0481ZM50.4656 48.388L50.9285 47.5016L50.9285 47.5016L50.4656 48.388ZM43.1336 41.628L42.2788 42.147L42.2816 42.1515L43.1336 41.628ZM43.1336 22.024L43.9856 22.5475L43.9884 22.543L43.1336 22.024ZM71.5776 15.212L72.0405 14.3256L72.0405 14.3256L71.5776 15.212ZM78.9096 22.024L78.0548 22.543L78.0576 22.5475L78.9096 22.024ZM78.9096 41.628L79.7616 42.1515L79.7644 42.147L78.9096 41.628ZM71.5776 48.388L72.0405 49.2744L72.0405 49.2744L71.5776 48.388ZM65.1296 39.808L65.6441 40.6655L65.651 40.6613L65.1296 39.808ZM68.0936 36.636L68.9741 37.1101L68.979 37.1008L68.0936 36.636ZM68.0936 27.016L67.2081 27.4809L67.2131 27.4901L68.0936 27.016ZM65.1296 23.844L64.5974 24.6906L64.6114 24.6994L64.6257 24.7078L65.1296 23.844ZM56.8616 23.844L57.3761 24.7015L57.383 24.6973L56.8616 23.844ZM53.9496 27.016L54.8301 27.4901L54.835 27.4808L53.9496 27.016ZM53.9496 36.636L53.0641 37.1009L53.0691 37.1101L53.9496 36.636ZM56.8616 39.808L56.3294 40.6546L56.3434 40.6634L56.3577 40.6718L56.8616 39.808ZM61.0216 49.832C57.247 49.832 53.8901 49.0482 50.9285 47.5016L50.0027 49.2744C53.2811 50.9865 56.9615 51.832 61.0216 51.832V49.832ZM50.9285 47.5016C47.9615 45.9522 45.655 43.8213 43.9856 41.1045L42.2816 42.1515C44.1482 45.1894 46.7297 47.5652 50.0027 49.2744L50.9285 47.5016ZM43.9884 41.109C42.3219 38.3642 41.4816 35.27 41.4816 31.8H39.4816C39.4816 35.61 40.4093 39.0678 42.2788 42.147L43.9884 41.109ZM41.4816 31.8C41.4816 28.3299 42.3219 25.2551 43.9856 22.5475L42.2816 21.5005C40.4093 24.5476 39.4816 27.9901 39.4816 31.8H41.4816ZM43.9884 22.543C45.6585 19.7922 47.9646 17.6462 50.9285 16.0984L50.0027 14.3256C46.7266 16.0364 44.1447 18.4317 42.2788 21.505L43.9884 22.543ZM50.9285 16.0984C53.8901 14.5518 57.247 13.768 61.0216 13.768V11.768C56.9615 11.768 53.2811 12.6135 50.0027 14.3256L50.9285 16.0984ZM61.0216 13.768C64.7962 13.768 68.1531 14.5518 71.1147 16.0984L72.0405 14.3256C68.7621 12.6135 65.0816 11.768 61.0216 11.768V13.768ZM71.1147 16.0984C74.0786 17.6462 76.3847 19.7922 78.0548 22.543L79.7644 21.505C77.8985 18.4317 75.3166 16.0364 72.0405 14.3256L71.1147 16.0984ZM78.0576 22.5475C79.7213 25.2551 80.5616 28.3299 80.5616 31.8H82.5616C82.5616 27.9901 81.6339 24.5476 79.7616 21.5005L78.0576 22.5475ZM80.5616 31.8C80.5616 35.27 79.7213 38.3642 78.0548 41.109L79.7644 42.147C81.6339 39.0678 82.5616 35.61 82.5616 31.8H80.5616ZM78.0576 41.1045C76.3882 43.8213 74.0817 45.9522 71.1147 47.5016L72.0405 49.2744C75.3135 47.5652 77.895 45.1894 79.7616 42.1515L78.0576 41.1045ZM71.1147 47.5016C68.1531 49.0482 64.7962 49.832 61.0216 49.832V51.832C65.0816 51.832 68.7621 50.9865 72.0405 49.2744L71.1147 47.5016ZM61.0216 41.9C62.7135 41.9 64.2632 41.494 65.6441 40.6655L64.6151 38.9505C63.5693 39.578 62.3803 39.9 61.0216 39.9V41.9ZM65.651 40.6613C67.0579 39.8016 68.1665 38.61 68.9741 37.1101L67.2131 36.1619C66.5647 37.366 65.6973 38.2891 64.6081 38.9547L65.651 40.6613ZM68.979 37.1008C69.7943 35.5479 70.1856 33.7712 70.1856 31.8H68.1856C68.1856 33.5034 67.8489 34.9508 67.2082 36.1712L68.979 37.1008ZM70.1856 31.8C70.1856 29.8296 69.7946 28.0657 68.9741 26.5419L67.2131 27.4901C67.8486 28.6703 68.1856 30.0958 68.1856 31.8H70.1856ZM68.979 26.5512C68.1714 25.0129 67.0571 23.8107 65.6335 22.9802L64.6257 24.7078C65.6981 25.3333 66.5598 26.2458 67.2082 27.4808L68.979 26.5512ZM65.6618 22.9974C64.2786 22.128 62.7226 21.7 61.0216 21.7V23.7C62.3713 23.7 63.5539 24.0347 64.5974 24.6906L65.6618 22.9974ZM61.0216 21.7C59.3205 21.7 57.7521 22.1279 56.3401 22.9907L57.383 24.6973C58.4671 24.0348 59.672 23.7 61.0216 23.7V21.7ZM56.3471 22.9865C54.96 23.8188 53.8681 25.0199 53.0642 26.5512L54.835 27.4808C55.4871 26.2387 56.3365 25.3252 57.3761 24.7015L56.3471 22.9865ZM53.0691 26.5419C52.2486 28.0657 51.8576 29.8296 51.8576 31.8H53.8576C53.8576 30.0958 54.1946 28.6703 54.8301 27.4901L53.0691 26.5419ZM51.8576 31.8C51.8576 33.7712 52.2489 35.5479 53.0642 37.1008L54.835 36.1712C54.1943 34.9508 53.8576 33.5034 53.8576 31.8H51.8576ZM53.0691 37.1101C53.873 38.6031 54.9593 39.7934 56.3294 40.6546L57.3938 38.9614C56.3372 38.2972 55.4822 37.3729 54.8301 36.1619L53.0691 37.1101ZM56.3577 40.6718C57.7673 41.494 59.3295 41.9 61.0216 41.9V39.9C59.6631 39.9 58.4519 39.578 57.3655 38.9442L56.3577 40.6718ZM122.936 13.6H123.936V12.6H122.936V13.6ZM122.936 50V51H123.936V50H122.936ZM112.848 50L112.081 50.6416L112.38 51H112.848V50ZM99.0157 33.464L99.7828 32.8224L98.0157 30.7099V33.464H99.0157ZM99.0157 50V51H100.016V50H99.0157ZM87.0557 50H86.0557V51H87.0557V50ZM87.0557 13.6V12.6H86.0557V13.6H87.0557ZM97.1437 13.6L97.9108 12.9584L97.611 12.6H97.1437V13.6ZM110.976 30.136L110.209 30.7776L111.976 32.8901V30.136H110.976ZM110.976 13.6V12.6H109.976V13.6H110.976ZM121.936 13.6V50H123.936V13.6H121.936ZM122.936 49H112.848V51H122.936V49ZM113.615 49.3584L99.7828 32.8224L98.2487 34.1056L112.081 50.6416L113.615 49.3584ZM98.0157 33.464V50H100.016V33.464H98.0157ZM99.0157 49H87.0557V51H99.0157V49ZM88.0557 50V13.6H86.0557V50H88.0557ZM87.0557 14.6H97.1437V12.6H87.0557V14.6ZM96.3767 14.2416L110.209 30.7776L111.743 29.4944L97.9108 12.9584L96.3767 14.2416ZM111.976 30.136V13.6H109.976V30.136H111.976ZM110.976 14.6H122.936V12.6H110.976V14.6ZM137.793 23.116H138.793V22.116H137.793V23.116ZM127.133 23.116H126.133V24.116H127.133V23.116ZM127.133 13.6V12.6H126.133V13.6H127.133ZM160.725 13.6H161.725V12.6H160.725V13.6ZM160.725 23.116V24.116H161.725V23.116H160.725ZM150.065 23.116V22.116H149.065V23.116H150.065ZM150.065 50V51H151.065V50H150.065ZM137.793 50H136.793V51H137.793V50ZM137.793 22.116H127.133V24.116H137.793V22.116ZM128.133 23.116V13.6H126.133V23.116H128.133ZM127.133 14.6H160.725V12.6H127.133V14.6ZM159.725 13.6V23.116H161.725V13.6H159.725ZM160.725 22.116H150.065V24.116H160.725V22.116ZM149.065 23.116V50H151.065V23.116H149.065ZM150.065 49H137.793V51H150.065V49ZM138.793 50V23.116H136.793V50H138.793ZM187.928 43.656L188.861 43.2965L188.614 42.656H187.928V43.656ZM174.096 43.656V42.656H173.41L173.163 43.2965L174.096 43.656ZM171.652 50V51H172.338L172.585 50.3595L171.652 50ZM159.172 50L158.256 49.5995L157.643 51H159.172V50ZM175.084 13.6V12.6H174.43L174.168 13.1995L175.084 13.6ZM187.148 13.6L188.064 13.1995L187.802 12.6H187.148V13.6ZM203.06 50V51H204.589L203.976 49.5995L203.06 50ZM190.372 50L189.439 50.3595L189.686 51H190.372V50ZM184.548 34.816V35.816H186.006L185.481 34.4556L184.548 34.816ZM181.012 25.664L181.945 25.3036L181.012 22.8893L180.079 25.3036L181.012 25.664ZM177.476 34.816L176.543 34.4556L176.018 35.816H177.476V34.816ZM187.928 42.656H174.096V44.656H187.928V42.656ZM173.163 43.2965L170.719 49.6405L172.585 50.3595L175.029 44.0155L173.163 43.2965ZM171.652 49H159.172V51H171.652V49ZM160.088 50.4005L176 14.0005L174.168 13.1995L158.256 49.5995L160.088 50.4005ZM175.084 14.6H187.148V12.6H175.084V14.6ZM186.232 14.0005L202.144 50.4005L203.976 49.5995L188.064 13.1995L186.232 14.0005ZM203.06 49H190.372V51H203.06V49ZM191.305 49.6405L188.861 43.2965L186.995 44.0155L189.439 50.3595L191.305 49.6405ZM185.481 34.4556L181.945 25.3036L180.079 26.0244L183.615 35.1764L185.481 34.4556ZM180.079 25.3036L176.543 34.4556L178.409 35.1764L181.945 26.0244L180.079 25.3036ZM177.476 35.816H184.548V33.816H177.476V35.816ZM213.975 48.44L213.508 49.3243L213.516 49.3284L213.975 48.44ZM206.695 41.68L205.835 42.1915L205.843 42.2035L206.695 41.68ZM206.695 21.972L205.84 21.453L205.838 21.456L206.695 21.972ZM213.975 15.212L214.434 16.1004L214.442 16.0963L213.975 15.212ZM233.839 14.64L233.428 15.5519L233.428 15.5519L233.839 14.64ZM240.703 20.048L241.369 20.794L242.06 20.1768L241.497 19.4405L240.703 20.048ZM232.955 26.964L232.171 27.5852L232.83 28.4161L233.621 27.71L232.955 26.964ZM218.811 25.196L219.533 25.8876L219.54 25.8799L218.811 25.196ZM218.811 38.456L218.081 39.14L218.088 39.1476L218.811 38.456ZM232.955 36.636L233.621 35.89L232.83 35.1839L232.171 36.0148L232.955 36.636ZM240.703 43.552L241.497 44.1594L242.06 43.4232L241.369 42.806L240.703 43.552ZM233.839 48.96L233.428 48.0481L233.428 48.0481L233.839 48.96ZM224.375 49.832C220.669 49.832 217.362 49.0653 214.434 47.5516L213.516 49.3284C216.758 51.004 220.384 51.832 224.375 51.832V49.832ZM214.442 47.5557C211.509 46.0071 209.218 43.876 207.547 41.1565L205.843 42.2035C207.708 45.2386 210.27 47.6142 213.508 49.3243L214.442 47.5557ZM207.554 41.1685C205.92 38.4242 205.095 35.3103 205.095 31.8H203.095C203.095 35.639 204.002 39.1118 205.835 42.1915L207.554 41.1685ZM205.095 31.8C205.095 28.2895 205.921 25.1951 207.551 22.488L205.838 21.456C204.002 24.5035 203.095 27.9611 203.095 31.8H205.095ZM207.55 22.491C209.22 19.7393 211.509 17.6123 214.434 16.1004L213.516 14.3236C210.27 16.001 207.705 18.3807 205.84 21.453L207.55 22.491ZM214.442 16.0963C217.369 14.5505 220.672 13.768 224.375 13.768V11.768C220.381 11.768 216.751 12.6148 213.508 14.3277L214.442 16.0963ZM224.375 13.768C227.792 13.768 230.803 14.3707 233.428 15.5519L234.249 13.7281C231.327 12.4133 228.029 11.768 224.375 11.768V13.768ZM233.428 15.5519C236.054 16.7336 238.209 18.4332 239.908 20.6554L241.497 19.4405C239.591 16.9481 237.17 15.0424 234.249 13.7281L233.428 15.5519ZM240.037 19.302L232.289 26.218L233.621 27.71L241.369 20.794L240.037 19.302ZM233.738 26.3428C231.335 23.3113 228.414 21.7 224.999 21.7V23.7C227.685 23.7 230.067 24.9313 232.171 27.5852L233.738 26.3428ZM224.999 21.7C222.195 21.7 219.855 22.6203 218.081 24.5121L219.54 25.8799C220.887 24.4437 222.672 23.7 224.999 23.7V21.7ZM218.088 24.5044C216.311 26.3605 215.471 28.8314 215.471 31.8H217.471C217.471 29.222 218.19 27.2901 219.533 25.8876L218.088 24.5044ZM215.471 31.8C215.471 34.7695 216.312 37.2523 218.081 39.1399L219.54 37.7721C218.19 36.3317 217.471 34.3772 217.471 31.8H215.471ZM218.088 39.1476C219.864 41.0017 222.202 41.9 224.999 41.9V39.9C222.665 39.9 220.878 39.169 219.533 37.7644L218.088 39.1476ZM224.999 41.9C228.414 41.9 231.335 40.2887 233.738 37.2572L232.171 36.0148C230.067 38.6687 227.685 39.9 224.999 39.9V41.9ZM232.289 37.382L240.037 44.298L241.369 42.806L233.621 35.89L232.289 37.382ZM239.908 42.9445C238.209 45.1668 236.054 46.8664 233.428 48.0481L234.249 49.8719C237.17 48.5576 239.591 46.6519 241.497 44.1594L239.908 42.9445ZM233.428 48.0481C230.803 49.2293 227.792 49.832 224.375 49.832V51.832C228.029 51.832 231.327 51.1867 234.249 49.8719L233.428 48.0481ZM252.936 23.116H253.936V22.116H252.936V23.116ZM242.276 23.116H241.276V24.116H242.276V23.116ZM242.276 13.6V12.6H241.276V13.6H242.276ZM275.868 13.6H276.868V12.6H275.868V13.6ZM275.868 23.116V24.116H276.868V23.116H275.868ZM265.208 23.116V22.116H264.208V23.116H265.208ZM265.208 50V51H266.208V50H265.208ZM252.936 50H251.936V51H252.936V50ZM252.936 22.116H242.276V24.116H252.936V22.116ZM243.276 23.116V13.6H241.276V23.116H243.276ZM242.276 14.6H275.868V12.6H242.276V14.6ZM274.868 13.6V23.116H276.868V13.6H274.868ZM275.868 22.116H265.208V24.116H275.868V22.116ZM264.208 23.116V50H266.208V23.116H264.208ZM265.208 49H252.936V51H265.208V49ZM253.936 50V23.116H251.936V50H253.936ZM338.308 13.6L339.26 13.9048L339.678 12.6H338.308V13.6ZM326.66 50V51H327.39L327.612 50.3048L326.66 50ZM313.504 50L312.547 50.2892L312.761 51H313.504V50ZM307.628 30.552L308.585 30.2628L307.653 27.1763L306.675 30.2488L307.628 30.552ZM301.44 50V51H302.171L302.393 50.3032L301.44 50ZM288.284 50L287.332 50.3048L287.554 51H288.284V50ZM276.636 13.6V12.6H275.266L275.684 13.9048L276.636 13.6ZM289.272 13.6L290.228 13.3069L290.011 12.6H289.272V13.6ZM295.616 34.296L294.66 34.5891L295.589 37.6213L296.567 34.6043L295.616 34.296ZM302.324 13.6V12.6H301.597L301.373 13.2917L302.324 13.6ZM313.608 13.6L314.565 13.3103L314.35 12.6H313.608V13.6ZM319.952 34.556L318.995 34.8457L319.925 37.9194L320.904 34.8609L319.952 34.556ZM326.66 13.6V12.6H325.93L325.708 13.2951L326.66 13.6ZM337.356 13.2952L325.708 49.6952L327.612 50.3048L339.26 13.9048L337.356 13.2952ZM326.66 49H313.504V51H326.66V49ZM314.461 49.7108L308.585 30.2628L306.671 30.8412L312.547 50.2892L314.461 49.7108ZM306.675 30.2488L300.487 49.6968L302.393 50.3032L308.581 30.8552L306.675 30.2488ZM301.44 49H288.284V51H301.44V49ZM289.236 49.6952L277.588 13.2952L275.684 13.9048L287.332 50.3048L289.236 49.6952ZM276.636 14.6H289.272V12.6H276.636V14.6ZM288.316 13.8931L294.66 34.5891L296.572 34.0029L290.228 13.3069L288.316 13.8931ZM296.567 34.6043L303.275 13.9083L301.373 13.2917L294.665 33.9877L296.567 34.6043ZM302.324 14.6H313.608V12.6H302.324V14.6ZM312.651 13.8897L318.995 34.8457L320.909 34.2663L314.565 13.3103L312.651 13.8897ZM320.904 34.8609L327.612 13.9049L325.708 13.2951L319 34.2511L320.904 34.8609ZM326.66 14.6H338.308V12.6H326.66V14.6ZM350.042 48.388L350.505 47.5016L350.505 47.5016L350.042 48.388ZM342.71 41.628L341.856 42.147L341.858 42.1515L342.71 41.628ZM342.71 22.024L343.562 22.5475L343.565 22.543L342.71 22.024ZM371.154 15.212L371.617 14.3256L371.617 14.3256L371.154 15.212ZM378.486 22.024L377.632 22.543L377.634 22.5475L378.486 22.024ZM378.486 41.628L379.338 42.1515L379.341 42.147L378.486 41.628ZM371.154 48.388L371.617 49.2744L371.617 49.2744L371.154 48.388ZM364.706 39.808L365.221 40.6655L365.228 40.6613L364.706 39.808ZM367.67 36.636L368.551 37.1101L368.556 37.1008L367.67 36.636ZM367.67 27.016L366.785 27.4809L366.79 27.4901L367.67 27.016ZM364.706 23.844L364.174 24.6906L364.188 24.6994L364.203 24.7078L364.706 23.844ZM356.438 23.844L356.953 24.7015L356.96 24.6973L356.438 23.844ZM353.526 27.016L354.407 27.4901L354.412 27.4808L353.526 27.016ZM353.526 36.636L352.641 37.1009L352.646 37.1101L353.526 36.636ZM356.438 39.808L355.906 40.6546L355.92 40.6634L355.935 40.6718L356.438 39.808ZM360.598 49.832C356.824 49.832 353.467 49.0482 350.505 47.5016L349.58 49.2744C352.858 50.9865 356.538 51.832 360.598 51.832V49.832ZM350.505 47.5016C347.538 45.9522 345.232 43.8213 343.562 41.1045L341.858 42.1515C343.725 45.1894 346.307 47.5652 349.58 49.2744L350.505 47.5016ZM343.565 41.109C341.899 38.3642 341.058 35.27 341.058 31.8H339.058C339.058 35.61 339.986 39.0678 341.856 42.147L343.565 41.109ZM341.058 31.8C341.058 28.3299 341.899 25.2551 343.562 22.5475L341.858 21.5005C339.986 24.5476 339.058 27.9901 339.058 31.8H341.058ZM343.565 22.543C345.235 19.7922 347.541 17.6462 350.505 16.0984L349.58 14.3256C346.304 16.0364 343.722 18.4317 341.856 21.505L343.565 22.543ZM350.505 16.0984C353.467 14.5518 356.824 13.768 360.598 13.768V11.768C356.538 11.768 352.858 12.6135 349.58 14.3256L350.505 16.0984ZM360.598 13.768C364.373 13.768 367.73 14.5518 370.692 16.0984L371.617 14.3256C368.339 12.6135 364.659 11.768 360.598 11.768V13.768ZM370.692 16.0984C373.656 17.6462 375.962 19.7922 377.632 22.543L379.341 21.505C377.475 18.4317 374.893 16.0364 371.617 14.3256L370.692 16.0984ZM377.634 22.5475C379.298 25.2551 380.138 28.3299 380.138 31.8H382.138C382.138 27.9901 381.211 24.5476 379.338 21.5005L377.634 22.5475ZM380.138 31.8C380.138 35.27 379.298 38.3642 377.632 41.109L379.341 42.147C381.211 39.0678 382.138 35.61 382.138 31.8H380.138ZM377.634 41.1045C375.965 43.8213 373.659 45.9522 370.692 47.5016L371.617 49.2744C374.89 47.5652 377.472 45.1894 379.338 42.1515L377.634 41.1045ZM370.692 47.5016C367.73 49.0482 364.373 49.832 360.598 49.832V51.832C364.659 51.832 368.339 50.9865 371.617 49.2744L370.692 47.5016ZM360.598 41.9C362.29 41.9 363.84 41.494 365.221 40.6655L364.192 38.9505C363.146 39.578 361.957 39.9 360.598 39.9V41.9ZM365.228 40.6613C366.635 39.8016 367.743 38.61 368.551 37.1101L366.79 36.1619C366.142 37.366 365.274 38.2891 364.185 38.9547L365.228 40.6613ZM368.556 37.1008C369.371 35.5479 369.762 33.7712 369.762 31.8H367.762C367.762 33.5034 367.426 34.9508 366.785 36.1712L368.556 37.1008ZM369.762 31.8C369.762 29.8296 369.371 28.0657 368.551 26.5419L366.79 27.4901C367.426 28.6703 367.762 30.0958 367.762 31.8H369.762ZM368.556 26.5512C367.748 25.0129 366.634 23.8107 365.21 22.9802L364.203 24.7078C365.275 25.3333 366.137 26.2458 366.785 27.4808L368.556 26.5512ZM365.239 22.9974C363.856 22.128 362.299 21.7 360.598 21.7V23.7C361.948 23.7 363.131 24.0347 364.174 24.6906L365.239 22.9974ZM360.598 21.7C358.897 21.7 357.329 22.1279 355.917 22.9907L356.96 24.6973C358.044 24.0348 359.249 23.7 360.598 23.7V21.7ZM355.924 22.9865C354.537 23.8188 353.445 25.0199 352.641 26.5512L354.412 27.4808C355.064 26.2387 355.913 25.3252 356.953 24.7015L355.924 22.9865ZM352.646 26.5419C351.826 28.0657 351.434 29.8296 351.434 31.8H353.434C353.434 30.0958 353.771 28.6703 354.407 27.4901L352.646 26.5419ZM351.434 31.8C351.434 33.7712 351.826 35.5479 352.641 37.1008L354.412 36.1712C353.771 34.9508 353.434 33.5034 353.434 31.8H351.434ZM352.646 37.1101C353.45 38.6031 354.536 39.7934 355.906 40.6546L356.971 38.9614C355.914 38.2972 355.059 37.3729 354.407 36.1619L352.646 37.1101ZM355.935 40.6718C357.344 41.494 358.906 41.9 360.598 41.9V39.9C359.24 39.9 358.029 39.578 356.942 38.9442L355.935 40.6718ZM444.54 13.6L445.493 13.9048L445.91 12.6H444.54V13.6ZM432.892 50V51H433.622L433.845 50.3048L432.892 50ZM419.736 50L418.779 50.2892L418.994 51H419.736V50ZM413.86 30.552L414.818 30.2628L413.885 27.1763L412.907 30.2488L413.86 30.552ZM407.672 50V51H408.403L408.625 50.3032L407.672 50ZM394.516 50L393.564 50.3048L393.786 51H394.516V50ZM382.868 13.6V12.6H381.498L381.916 13.9048L382.868 13.6ZM395.504 13.6L396.46 13.3069L396.244 12.6H395.504V13.6ZM401.848 34.296L400.892 34.5891L401.822 37.6213L402.8 34.6043L401.848 34.296ZM408.556 13.6V12.6H407.829L407.605 13.2917L408.556 13.6ZM419.84 13.6L420.797 13.3103L420.582 12.6H419.84V13.6ZM426.184 34.556L425.227 34.8457L426.158 37.9194L427.137 34.8609L426.184 34.556ZM432.892 13.6V12.6H432.162L431.94 13.2951L432.892 13.6ZM443.588 13.2952L431.94 49.6952L433.845 50.3048L445.493 13.9048L443.588 13.2952ZM432.892 49H419.736V51H432.892V49ZM420.694 49.7108L414.818 30.2628L412.903 30.8412L418.779 50.2892L420.694 49.7108ZM412.907 30.2488L406.719 49.6968L408.625 50.3032L414.813 30.8552L412.907 30.2488ZM407.672 49H394.516V51H407.672V49ZM395.469 49.6952L383.821 13.2952L381.916 13.9048L393.564 50.3048L395.469 49.6952ZM382.868 14.6H395.504V12.6H382.868V14.6ZM394.548 13.8931L400.892 34.5891L402.804 34.0029L396.46 13.3069L394.548 13.8931ZM402.8 34.6043L409.508 13.9083L407.605 13.2917L400.897 33.9877L402.8 34.6043ZM408.556 14.6H419.84V12.6H408.556V14.6ZM418.883 13.8897L425.227 34.8457L427.141 34.2663L420.797 13.3103L418.883 13.8897ZM427.137 34.8609L433.845 13.9049L431.94 13.2951L425.232 34.2511L427.137 34.8609ZM432.892 14.6H444.54V12.6H432.892V14.6Z" fill="#3C3B3A"/>
<path d="M515.464 50L514.464 50.0063L514.47 51H515.464V50ZM515.36 33.412L516.36 33.4057L516.337 29.8071L514.5 32.9015L515.36 33.412ZM507.456 46.724V47.724H508.025L508.316 47.2345L507.456 46.724ZM502.048 46.724L501.198 47.2512L501.492 47.724H502.048V46.724ZM494.144 33.984L494.994 33.4568L493.144 30.4753V33.984H494.144ZM494.144 50V51H495.144V50H494.144ZM482.964 50H481.964V51H482.964V50ZM482.964 13.6V12.6H481.964V13.6H482.964ZM493.052 13.6L493.905 13.0785L493.613 12.6H493.052V13.6ZM504.908 32.996L504.055 33.5175L504.919 34.9321L505.767 33.5074L504.908 32.996ZM516.452 13.6V12.6H515.883L515.593 13.0886L516.452 13.6ZM526.54 13.6L527.54 13.5971L527.537 12.6H526.54V13.6ZM526.644 50V51H527.647L527.644 49.9971L526.644 50ZM516.464 49.9937L516.36 33.4057L514.36 33.4183L514.464 50.0063L516.464 49.9937ZM514.5 32.9015L506.596 46.2135L508.316 47.2345L516.22 33.9225L514.5 32.9015ZM507.456 45.724H502.048V47.724H507.456V45.724ZM502.898 46.1968L494.994 33.4568L493.294 34.5112L501.198 47.2512L502.898 46.1968ZM493.144 33.984V50H495.144V33.984H493.144ZM494.144 49H482.964V51H494.144V49ZM483.964 50V13.6H481.964V50H483.964ZM482.964 14.6H493.052V12.6H482.964V14.6ZM492.199 14.1215L504.055 33.5175L505.761 32.4745L493.905 13.0785L492.199 14.1215ZM505.767 33.5074L517.311 14.1114L515.593 13.0886L504.049 32.4846L505.767 33.5074ZM516.452 14.6H526.54V12.6H516.452V14.6ZM525.54 13.6029L525.644 50.0029L527.644 49.9971L527.54 13.5971L525.54 13.6029ZM526.644 49H515.464V51H526.644V49ZM537.985 46.308L537.29 47.027L537.29 47.027L537.985 46.308ZM533.305 13.6V12.6H532.305V13.6H533.305ZM545.577 13.6H546.577V12.6H545.577V13.6ZM546.981 39.08L546.19 39.6908L546.195 39.6978L546.2 39.7047L546.981 39.08ZM555.249 39.08L554.468 38.4553L554.463 38.4622L554.458 38.4692L555.249 39.08ZM556.705 13.6V12.6H555.705V13.6H556.705ZM568.769 13.6H569.769V12.6H568.769V13.6ZM564.089 46.308L563.394 45.589L563.394 45.589L564.089 46.308ZM551.037 49.832C545.638 49.832 541.565 48.3774 538.68 45.589L537.29 47.027C540.646 50.2706 545.274 51.832 551.037 51.832V49.832ZM538.68 45.589C535.802 42.8068 534.305 38.8647 534.305 33.62H532.305C532.305 39.2607 533.928 43.7772 537.29 47.027L538.68 45.589ZM534.305 33.62V13.6H532.305V33.62H534.305ZM533.305 14.6H545.577V12.6H533.305V14.6ZM544.577 13.6V33.256H546.577V13.6H544.577ZM544.577 33.256C544.577 35.9995 545.05 38.2139 546.19 39.6908L547.773 38.4692C547.04 37.5195 546.577 35.8512 546.577 33.256H544.577ZM546.2 39.7047C547.393 41.1949 549.089 41.9 551.141 41.9V39.9C549.588 39.9 548.511 39.3918 547.762 38.4553L546.2 39.7047ZM551.141 41.9C553.192 41.9 554.881 41.1945 556.041 39.6908L554.458 38.4692C553.745 39.3922 552.695 39.9 551.141 39.9V41.9ZM556.03 39.7047C557.213 38.2257 557.705 36.0049 557.705 33.256H555.705C555.705 35.8458 555.227 37.5077 554.468 38.4553L556.03 39.7047ZM557.705 33.256V13.6H555.705V33.256H557.705ZM556.705 14.6H568.769V12.6H556.705V14.6ZM567.769 13.6V33.62H569.769V13.6H567.769ZM567.769 33.62C567.769 38.8647 566.272 42.8068 563.394 45.589L564.784 47.027C568.146 43.7772 569.769 39.2607 569.769 33.62H567.769ZM563.394 45.589C560.51 48.3774 556.437 49.832 551.037 49.832V51.832C556.801 51.832 561.429 50.2706 564.784 47.027L563.394 45.589ZM583.859 48.44L583.392 49.3243L583.399 49.3284L583.859 48.44ZM576.579 41.68L575.719 42.1915L575.727 42.2035L576.579 41.68ZM576.579 21.972L575.724 21.453L575.722 21.456L576.579 21.972ZM583.859 15.212L584.318 16.1004L584.326 16.0963L583.859 15.212ZM603.723 14.64L603.312 15.5519L603.312 15.5519L603.723 14.64ZM610.587 20.048L611.253 20.794L611.944 20.1768L611.381 19.4405L610.587 20.048ZM602.839 26.964L602.055 27.5852L602.714 28.4161L603.505 27.71L602.839 26.964ZM588.695 25.196L589.417 25.8876L589.424 25.8799L588.695 25.196ZM588.695 38.456L587.965 39.14L587.972 39.1476L588.695 38.456ZM602.839 36.636L603.505 35.89L602.714 35.1839L602.055 36.0148L602.839 36.636ZM610.587 43.552L611.381 44.1594L611.944 43.4232L611.253 42.806L610.587 43.552ZM603.723 48.96L603.312 48.0481L603.312 48.0481L603.723 48.96ZM594.259 49.832C590.553 49.832 587.246 49.0653 584.318 47.5516L583.399 49.3284C586.642 51.004 590.268 51.832 594.259 51.832V49.832ZM584.326 47.5557C581.393 46.0071 579.102 43.876 577.431 41.1565L575.727 42.2035C577.592 45.2386 580.153 47.6142 583.392 49.3243L584.326 47.5557ZM577.438 41.1685C575.804 38.4242 574.979 35.3103 574.979 31.8H572.979C572.979 35.639 573.886 39.1118 575.719 42.1915L577.438 41.1685ZM574.979 31.8C574.979 28.2895 575.804 25.1951 577.435 22.488L575.722 21.456C573.886 24.5035 572.979 27.9611 572.979 31.8H574.979ZM577.433 22.491C579.104 19.7393 581.392 17.6123 584.318 16.1004L583.399 14.3236C580.154 16.001 577.589 18.3807 575.724 21.453L577.433 22.491ZM584.326 16.0963C587.253 14.5505 590.556 13.768 594.259 13.768V11.768C590.265 11.768 586.635 12.6148 583.392 14.3277L584.326 16.0963ZM594.259 13.768C597.676 13.768 600.687 14.3707 603.312 15.5519L604.133 13.7281C601.211 12.4133 597.913 11.768 594.259 11.768V13.768ZM603.312 15.5519C605.938 16.7336 608.093 18.4332 609.792 20.6554L611.381 19.4405C609.475 16.9481 607.054 15.0424 604.133 13.7281L603.312 15.5519ZM609.921 19.302L602.173 26.218L603.505 27.71L611.253 20.794L609.921 19.302ZM603.622 26.3428C601.219 23.3113 598.298 21.7 594.883 21.7V23.7C597.569 23.7 599.951 24.9313 602.055 27.5852L603.622 26.3428ZM594.883 21.7C592.079 21.7 589.739 22.6203 587.965 24.5121L589.424 25.8799C590.771 24.4437 592.556 23.7 594.883 23.7V21.7ZM587.972 24.5044C586.195 26.3605 585.355 28.8314 585.355 31.8H587.355C587.355 29.222 588.074 27.2901 589.417 25.8876L587.972 24.5044ZM585.355 31.8C585.355 34.7695 586.195 37.2523 587.965 39.1399L589.424 37.7721C588.074 36.3317 587.355 34.3772 587.355 31.8H585.355ZM587.972 39.1476C589.748 41.0017 592.086 41.9 594.883 41.9V39.9C592.549 39.9 590.762 39.169 589.417 37.7644L587.972 39.1476ZM594.883 41.9C598.298 41.9 601.219 40.2887 603.622 37.2572L602.055 36.0148C599.951 38.6687 597.569 39.9 594.883 39.9V41.9ZM602.173 37.382L609.921 44.298L611.253 42.806L603.505 35.89L602.173 37.382ZM609.792 42.9445C608.093 45.1668 605.938 46.8664 603.312 48.0481L604.133 49.8719C607.054 48.5576 609.475 46.6519 611.381 44.1594L609.792 42.9445ZM603.312 48.0481C600.687 49.2293 597.676 49.832 594.259 49.832V51.832C597.913 51.832 601.211 51.1867 604.133 49.8719L603.312 48.0481ZM651.05 13.6H652.05V12.6H651.05V13.6ZM651.05 50V51H652.05V50H651.05ZM638.778 50H637.778V51H638.778V50ZM638.778 36.584H639.778V35.584H638.778V36.584ZM627.442 36.584V35.584H626.442V36.584H627.442ZM627.442 50V51H628.442V50H627.442ZM615.17 50H614.17V51H615.17V50ZM615.17 13.6V12.6H614.17V13.6H615.17ZM627.442 13.6H628.442V12.6H627.442V13.6ZM627.442 26.496H626.442V27.496H627.442V26.496ZM638.778 26.496V27.496H639.778V26.496H638.778ZM638.778 13.6V12.6H637.778V13.6H638.778ZM650.05 13.6V50H652.05V13.6H650.05ZM651.05 49H638.778V51H651.05V49ZM639.778 50V36.584H637.778V50H639.778ZM638.778 35.584H627.442V37.584H638.778V35.584ZM626.442 36.584V50H628.442V36.584H626.442ZM627.442 49H615.17V51H627.442V49ZM616.17 50V13.6H614.17V50H616.17ZM615.17 14.6H627.442V12.6H615.17V14.6ZM626.442 13.6V26.496H628.442V13.6H626.442ZM627.442 27.496H638.778V25.496H627.442V27.496ZM639.778 26.496V13.6H637.778V26.496H639.778ZM638.778 14.6H651.05V12.6H638.778V14.6ZM690.233 40.848L691.061 40.2879L690.764 39.848H690.233V40.848ZM686.905 40.848V39.848H685.905V40.848H686.905ZM686.905 50V51H687.905V50H686.905ZM674.633 50H673.633V51H674.633V50ZM674.633 13.6V12.6H673.633V13.6H674.633ZM700.945 15.264L700.539 16.1778L700.539 16.1778L700.945 15.264ZM706.717 20.048L705.878 20.593L705.878 20.593L706.717 20.048ZM706.977 34.14L706.122 33.621L706.122 33.621L706.977 34.14ZM701.881 38.768L701.422 37.8792L700.419 38.3968L701.054 39.3306L701.881 38.768ZM709.525 50V51H711.415L710.351 49.4374L709.525 50ZM696.421 50L695.592 50.5601L695.89 51H696.421V50ZM695.121 24.208L694.445 24.9452L694.454 24.953L694.462 24.9606L695.121 24.208ZM686.905 23.064V22.064H685.905V23.064H686.905ZM686.905 31.592H685.905V32.592H686.905V31.592ZM695.121 30.5L695.779 31.2526L695.788 31.245L695.796 31.2372L695.121 30.5ZM690.233 39.848H686.905V41.848H690.233V39.848ZM685.905 40.848V50H687.905V40.848H685.905ZM686.905 49H674.633V51H686.905V49ZM675.633 50V13.6H673.633V50H675.633ZM674.633 14.6H692.157V12.6H674.633V14.6ZM692.157 14.6C695.411 14.6 698.196 15.1368 700.539 16.1778L701.351 14.3502C698.701 13.1725 695.628 12.6 692.157 12.6V14.6ZM700.539 16.1778C702.876 17.2168 704.642 18.6914 705.878 20.593L707.555 19.503C706.087 17.2446 704.005 15.5298 701.351 14.3502L700.539 16.1778ZM705.878 20.593C707.113 22.4921 707.745 24.7245 707.745 27.328H709.745C709.745 24.3848 709.025 21.7639 707.555 19.503L705.878 20.593ZM707.745 27.328C707.745 29.772 707.193 31.8577 706.122 33.621L707.832 34.659C709.118 32.5396 709.745 30.084 709.745 27.328H707.745ZM706.122 33.621C705.048 35.3895 703.494 36.811 701.422 37.8792L702.339 39.6568C704.705 38.437 706.548 36.7731 707.832 34.659L706.122 33.621ZM701.054 39.3306L708.698 50.5626L710.351 49.4374L702.707 38.2054L701.054 39.3306ZM709.525 49H696.421V51H709.525V49ZM697.249 49.4399L691.061 40.2879L689.404 41.4081L695.592 50.5601L697.249 49.4399ZM697.369 27.328C697.369 25.7575 696.876 24.4149 695.779 23.4554L694.462 24.9606C695.03 25.4571 695.369 26.1945 695.369 27.328H697.369ZM695.796 23.4708C694.709 22.4741 693.174 22.064 691.377 22.064V24.064C692.907 24.064 693.868 24.4166 694.445 24.9452L695.796 23.4708ZM691.377 22.064H686.905V24.064H691.377V22.064ZM685.905 23.064V31.592H687.905V23.064H685.905ZM686.905 32.592H691.377V30.592H686.905V32.592ZM691.377 32.592C693.165 32.592 694.692 32.2038 695.779 31.2526L694.462 29.7474C693.885 30.2522 692.917 30.592 691.377 30.592V32.592ZM695.796 31.2372C696.876 30.2479 697.369 28.9001 697.369 27.328H695.369C695.369 28.4599 695.03 29.2268 694.445 29.7628L695.796 31.2372ZM722.947 48.388L723.41 47.5016L723.41 47.5016L722.947 48.388ZM715.615 41.628L714.76 42.147L714.763 42.1515L715.615 41.628ZM715.615 22.024L716.467 22.5475L716.47 22.543L715.615 22.024ZM744.059 15.212L744.522 14.3256L744.522 14.3256L744.059 15.212ZM751.391 22.024L750.536 22.543L750.539 22.5475L751.391 22.024ZM751.391 41.628L752.243 42.1515L752.246 42.147L751.391 41.628ZM744.059 48.388L744.522 49.2744L744.522 49.2744L744.059 48.388ZM737.611 39.808L738.125 40.6655L738.132 40.6613L737.611 39.808ZM740.575 36.636L741.455 37.1101L741.46 37.1008L740.575 36.636ZM740.575 27.016L739.689 27.4809L739.694 27.4901L740.575 27.016ZM737.611 23.844L737.079 24.6906L737.093 24.6994L737.107 24.7078L737.611 23.844ZM729.343 23.844L729.857 24.7015L729.864 24.6973L729.343 23.844ZM726.431 27.016L727.311 27.4901L727.316 27.4808L726.431 27.016ZM726.431 36.636L725.545 37.1009L725.55 37.1101L726.431 36.636ZM729.343 39.808L728.811 40.6546L728.825 40.6634L728.839 40.6718L729.343 39.808ZM733.503 49.832C729.728 49.832 726.371 49.0482 723.41 47.5016L722.484 49.2744C725.762 50.9865 729.443 51.832 733.503 51.832V49.832ZM723.41 47.5016C720.443 45.9522 718.136 43.8213 716.467 41.1045L714.763 42.1515C716.629 45.1894 719.211 47.5652 722.484 49.2744L723.41 47.5016ZM716.47 41.109C714.803 38.3642 713.963 35.27 713.963 31.8H711.963C711.963 35.61 712.891 39.0678 714.76 42.147L716.47 41.109ZM713.963 31.8C713.963 28.3299 714.803 25.2551 716.467 22.5475L714.763 21.5005C712.891 24.5476 711.963 27.9901 711.963 31.8H713.963ZM716.47 22.543C718.14 19.7922 720.446 17.6462 723.41 16.0984L722.484 14.3256C719.208 16.0364 716.626 18.4317 714.76 21.505L716.47 22.543ZM723.41 16.0984C726.371 14.5518 729.728 13.768 733.503 13.768V11.768C729.443 11.768 725.762 12.6135 722.484 14.3256L723.41 16.0984ZM733.503 13.768C737.277 13.768 740.634 14.5518 743.596 16.0984L744.522 14.3256C741.243 12.6135 737.563 11.768 733.503 11.768V13.768ZM743.596 16.0984C746.56 17.6462 748.866 19.7922 750.536 22.543L752.246 21.505C750.38 18.4317 747.798 16.0364 744.522 14.3256L743.596 16.0984ZM750.539 22.5475C752.203 25.2551 753.043 28.3299 753.043 31.8H755.043C755.043 27.9901 754.115 24.5476 752.243 21.5005L750.539 22.5475ZM753.043 31.8C753.043 35.27 752.203 38.3642 750.536 41.109L752.246 42.147C754.115 39.0678 755.043 35.61 755.043 31.8H753.043ZM750.539 41.1045C748.869 43.8213 746.563 45.9522 743.596 47.5016L744.522 49.2744C747.795 47.5652 750.376 45.1894 752.243 42.1515L750.539 41.1045ZM743.596 47.5016C740.634 49.0482 737.277 49.832 733.503 49.832V51.832C737.563 51.832 741.243 50.9865 744.522 49.2744L743.596 47.5016ZM733.503 41.9C735.195 41.9 736.744 41.494 738.125 40.6655L737.096 38.9505C736.051 39.578 734.862 39.9 733.503 39.9V41.9ZM738.132 40.6613C739.539 39.8016 740.648 38.61 741.455 37.1101L739.694 36.1619C739.046 37.366 738.179 38.2891 737.089 38.9547L738.132 40.6613ZM741.46 37.1008C742.276 35.5479 742.667 33.7712 742.667 31.8H740.667C740.667 33.5034 740.33 34.9508 739.689 36.1712L741.46 37.1008ZM742.667 31.8C742.667 29.8296 742.276 28.0657 741.455 26.5419L739.694 27.4901C740.33 28.6703 740.667 30.0958 740.667 31.8H742.667ZM741.46 26.5512C740.653 25.0129 739.538 23.8107 738.115 22.9802L737.107 24.7078C738.179 25.3333 739.041 26.2458 739.689 27.4808L741.46 26.5512ZM738.143 22.9974C736.76 22.128 735.204 21.7 733.503 21.7V23.7C734.853 23.7 736.035 24.0347 737.079 24.6906L738.143 22.9974ZM733.503 21.7C731.802 21.7 730.233 22.1279 728.821 22.9907L729.864 24.6973C730.948 24.0348 732.153 23.7 733.503 23.7V21.7ZM728.828 22.9865C727.441 23.8188 726.349 25.0199 725.545 26.5512L727.316 27.4808C727.968 26.2387 728.818 25.3252 729.857 24.7015L728.828 22.9865ZM725.55 26.5419C724.73 28.0657 724.339 29.8296 724.339 31.8H726.339C726.339 30.0958 726.676 28.6703 727.311 27.4901L725.55 26.5419ZM724.339 31.8C724.339 33.7712 724.73 35.5479 725.545 37.1008L727.316 36.1712C726.676 34.9508 726.339 33.5034 726.339 31.8H724.339ZM725.55 37.1101C726.354 38.6031 727.441 39.7934 728.811 40.6546L729.875 38.9614C728.818 38.2972 727.963 37.3729 727.311 36.1619L725.55 37.1101ZM728.839 40.6718C730.249 41.494 731.811 41.9 733.503 41.9V39.9C732.144 39.9 730.933 39.578 729.847 38.9442L728.839 40.6718ZM759.537 13.6V12.6H758.537V13.6H759.537ZM771.809 13.6H772.809V12.6H771.809V13.6ZM771.809 50V51H772.809V50H771.809ZM759.537 50H758.537V51H759.537V50ZM759.537 14.6H771.809V12.6H759.537V14.6ZM770.809 13.6V50H772.809V13.6H770.809ZM771.809 49H759.537V51H771.809V49ZM760.537 50V13.6H758.537V50H760.537Z" fill="#3C3B3A"/>
<path d="M825.696 49.844L825.459 50.8155L825.466 50.8172L825.473 50.8188L825.696 49.844ZM818.676 47.088L817.761 46.6838L817.41 47.478L818.147 47.9369L818.676 47.088ZM822.628 38.144L823.13 37.279L822.164 36.7191L821.713 37.7398L822.628 38.144ZM828.452 40.588L828.173 41.5483L828.18 41.5504L828.188 41.5524L828.452 40.588ZM838.28 41.004L838.674 41.9231L838.692 41.9154L838.71 41.9069L838.28 41.004ZM837.916 37.78L837.539 38.7062L837.55 38.7108L837.916 37.78ZM833.236 36.532L833.031 37.5107L833.034 37.5114L833.236 36.532ZM826.216 34.66L825.869 35.5977L825.876 35.6006L825.884 35.6033L826.216 34.66ZM821.328 31.332L820.581 31.9964L820.588 32.0047L821.328 31.332ZM821.172 18.8L821.997 19.3652L821.997 19.3652L821.172 18.8ZM826.892 14.38L826.506 13.4576L826.501 13.4596L826.892 14.38ZM843.532 13.6L843.306 14.5742L843.314 14.576L843.322 14.5778L843.532 13.6ZM849.928 15.94L850.852 16.3235L851.191 15.5058L850.421 15.0697L849.928 15.94ZM846.236 24.832L845.785 25.7247L846.747 26.21L847.16 25.2155L846.236 24.832ZM832.768 26.08L832.391 27.0061L832.406 27.0122L832.421 27.0177L832.768 26.08ZM837.396 27.224L837.206 28.2058L837.212 28.2069L837.396 27.224ZM844.416 29.044L844.074 29.9838L844.082 29.9866L844.089 29.9892L844.416 29.044ZM849.356 32.32L848.616 32.9927L848.624 33.0017L849.356 32.32ZM849.564 44.8L850.384 45.3724L850.389 45.3652L849.564 44.8ZM843.792 49.22L844.183 50.1405L844.189 50.1379L843.792 49.22ZM834.536 49.832C831.593 49.832 828.722 49.5108 825.919 48.8692L825.473 50.8188C828.425 51.4946 831.447 51.832 834.536 51.832V49.832ZM825.933 48.8725C823.16 48.1961 820.926 47.3112 819.205 46.2391L818.147 47.9369C820.1 49.1528 822.547 50.1053 825.459 50.8155L825.933 48.8725ZM819.591 47.4922L823.543 38.5482L821.713 37.7398L817.761 46.6838L819.591 47.4922ZM822.126 39.009C823.937 40.0595 825.955 40.9043 828.173 41.5483L828.731 39.6277C826.65 39.0237 824.785 38.2392 823.13 37.279L822.126 39.009ZM828.188 41.5524C830.412 42.1624 832.564 42.472 834.64 42.472V40.472C832.764 40.472 830.79 40.1923 828.716 39.6236L828.188 41.5524ZM834.64 42.472C836.354 42.472 837.745 42.3212 838.674 41.9231L837.886 40.0849C837.359 40.3108 836.323 40.472 834.64 40.472V42.472ZM838.71 41.9069C839.181 41.6825 839.604 41.375 839.909 40.9535C840.222 40.5208 840.372 40.0223 840.372 39.496H838.372C838.372 39.6284 838.34 39.7105 838.289 39.7805C838.23 39.8616 838.107 39.9789 837.85 40.1011L838.71 41.9069ZM840.372 39.496C840.372 38.882 840.169 38.318 839.771 37.848C839.387 37.3966 838.864 37.078 838.282 36.8492L837.55 38.7108C837.939 38.8634 838.143 39.0214 838.245 39.142C838.332 39.244 838.372 39.3473 838.372 39.496H840.372ZM838.293 36.8539C837.266 36.4353 835.628 36.0045 833.438 35.5526L833.034 37.5114C835.212 37.9608 836.694 38.362 837.539 38.7061L838.293 36.8539ZM833.441 35.5533C830.659 34.9694 828.365 34.356 826.548 33.7167L825.884 35.6033C827.811 36.2814 830.197 36.9159 833.031 37.5107L833.441 35.5533ZM826.563 33.7223C824.847 33.0864 823.35 32.0701 822.068 30.6593L820.588 32.0047C822.079 33.6445 823.841 34.8469 825.869 35.5977L826.563 33.7223ZM822.075 30.6676C820.891 29.3349 820.248 27.4962 820.248 25.04H818.248C818.248 27.8531 818.992 30.2091 820.581 31.9964L822.075 30.6676ZM820.248 25.04C820.248 22.952 820.829 21.0693 821.997 19.3652L820.347 18.2348C818.949 20.2747 818.248 22.552 818.248 25.04H820.248ZM821.997 19.3652C823.151 17.6811 824.89 16.3164 827.283 15.3004L826.501 13.4596C823.832 14.5929 821.758 16.1749 820.347 18.2348L821.997 19.3652ZM827.278 15.3023C829.69 14.2921 832.654 13.768 836.2 13.768V11.768C832.466 11.768 829.225 12.3186 826.506 13.4577L827.278 15.3023ZM836.2 13.768C838.621 13.768 840.989 14.0369 843.306 14.5742L843.758 12.6258C841.291 12.0537 838.771 11.768 836.2 11.768V13.768ZM843.322 14.5778C845.667 15.0802 847.7 15.8281 849.435 16.8103L850.421 15.0697C848.481 13.9719 846.251 13.1598 843.742 12.6222L843.322 14.5778ZM849.004 15.5565L845.312 24.4485L847.16 25.2155L850.852 16.3235L849.004 15.5565ZM846.687 23.9393C843.011 22.0836 839.477 21.128 836.096 21.128V23.128C839.094 23.128 842.32 23.9751 845.785 25.7247L846.687 23.9393ZM836.096 21.128C834.47 21.128 833.105 21.3194 832.112 21.7997C831.601 22.0464 831.154 22.3862 830.836 22.8474C830.513 23.3166 830.364 23.8527 830.364 24.416H832.364C832.364 24.2167 832.412 24.0854 832.483 23.9826C832.559 23.8718 832.704 23.7349 832.982 23.6003C833.566 23.3179 834.567 23.128 836.096 23.128V21.128ZM830.364 24.416C830.364 25.0152 830.564 25.5645 830.951 26.0229C831.322 26.4628 831.828 26.777 832.391 27.0061L833.145 25.1539C832.772 25.0016 832.576 24.8479 832.479 24.7331C832.398 24.6368 832.364 24.5448 832.364 24.416H830.364ZM832.421 27.0177C833.439 27.3949 835.051 27.7886 837.206 28.2058L837.586 26.2422C835.443 25.8273 833.969 25.4584 833.115 25.1423L832.421 27.0177ZM837.212 28.2069C839.951 28.7204 842.234 29.3147 844.074 29.9838L844.758 28.1042C842.784 27.3866 840.388 26.7676 837.58 26.2411L837.212 28.2069ZM844.089 29.9892C845.834 30.5919 847.34 31.5886 848.616 32.9927L850.096 31.6473C848.599 30.0008 846.811 28.8135 844.743 28.0988L844.089 29.9892ZM848.624 33.0017C849.831 34.2967 850.488 36.1089 850.488 38.56H852.488C852.488 35.7418 851.724 33.3939 850.088 31.6383L848.624 33.0017ZM850.488 38.56C850.488 40.648 849.907 42.5307 848.739 44.2348L850.389 45.3652C851.787 43.3253 852.488 41.048 852.488 38.56H850.488ZM848.744 44.2276C847.591 45.8792 845.832 47.2483 843.395 48.3021L844.189 50.1379C846.883 48.973 848.972 47.3955 850.384 45.3724L848.744 44.2276ZM843.401 48.2996C841.027 49.3077 838.083 49.832 834.536 49.832V51.832C838.269 51.832 841.496 51.2816 844.183 50.1404L843.401 48.2996ZM860.548 46.308L859.853 47.027L859.853 47.027L860.548 46.308ZM855.868 13.6V12.6H854.868V13.6H855.868ZM868.14 13.6H869.14V12.6H868.14V13.6ZM869.544 39.08L868.752 39.6908L868.757 39.6978L868.763 39.7047L869.544 39.08ZM877.812 39.08L877.031 38.4553L877.025 38.4622L877.02 38.4692L877.812 39.08ZM879.268 13.6V12.6H878.268V13.6H879.268ZM891.332 13.6H892.332V12.6H891.332V13.6ZM886.652 46.308L885.957 45.589L885.957 45.589L886.652 46.308ZM873.6 49.832C868.201 49.832 864.127 48.3774 861.243 45.589L859.853 47.027C863.208 50.2706 867.836 51.832 873.6 51.832V49.832ZM861.243 45.589C858.365 42.8068 856.868 38.8647 856.868 33.62H854.868C854.868 39.2607 856.491 43.7772 859.853 47.027L861.243 45.589ZM856.868 33.62V13.6H854.868V33.62H856.868ZM855.868 14.6H868.14V12.6H855.868V14.6ZM867.14 13.6V33.256H869.14V13.6H867.14ZM867.14 33.256C867.14 35.9995 867.613 38.2139 868.752 39.6908L870.336 38.4692C869.603 37.5195 869.14 35.8512 869.14 33.256H867.14ZM868.763 39.7047C869.955 41.1949 871.652 41.9 873.704 41.9V39.9C872.15 39.9 871.074 39.3918 870.325 38.4553L868.763 39.7047ZM873.704 41.9C875.755 41.9 877.444 41.1945 878.604 39.6908L877.02 38.4692C876.308 39.3922 875.258 39.9 873.704 39.9V41.9ZM878.593 39.7047C879.776 38.2257 880.268 36.0049 880.268 33.256H878.268C878.268 35.8458 877.789 37.5077 877.031 38.4553L878.593 39.7047ZM880.268 33.256V13.6H878.268V33.256H880.268ZM879.268 14.6H891.332V12.6H879.268V14.6ZM890.332 13.6V33.62H892.332V13.6H890.332ZM890.332 33.62C890.332 38.8647 888.835 42.8068 885.957 45.589L887.347 47.027C890.709 43.7772 892.332 39.2607 892.332 33.62H890.332ZM885.957 45.589C883.072 48.3774 878.999 49.832 873.6 49.832V51.832C879.363 51.832 883.991 50.2706 887.347 47.027L885.957 45.589ZM906.421 48.44L905.954 49.3243L905.962 49.3284L906.421 48.44ZM899.141 41.68L898.282 42.1915L898.289 42.2035L899.141 41.68ZM899.141 21.972L898.286 21.453L898.285 21.456L899.141 21.972ZM906.421 15.212L906.88 16.1004L906.888 16.0963L906.421 15.212ZM926.285 14.64L925.875 15.5519L925.875 15.5519L926.285 14.64ZM933.149 20.048L933.815 20.794L934.507 20.1768L933.943 19.4405L933.149 20.048ZM925.401 26.964L924.617 27.5852L925.276 28.4161L926.067 27.71L925.401 26.964ZM911.257 25.196L911.979 25.8876L911.987 25.8799L911.257 25.196ZM911.257 38.456L910.528 39.14L910.535 39.1476L911.257 38.456ZM925.401 36.636L926.067 35.89L925.276 35.1839L924.617 36.0148L925.401 36.636ZM933.149 43.552L933.943 44.1594L934.507 43.4232L933.815 42.806L933.149 43.552ZM926.285 48.96L925.875 48.0481L925.875 48.0481L926.285 48.96ZM916.821 49.832C913.115 49.832 909.809 49.0653 906.88 47.5516L905.962 49.3284C909.204 51.004 912.831 51.832 916.821 51.832V49.832ZM906.888 47.5557C903.956 46.0071 901.664 43.876 899.993 41.1565L898.289 42.2035C900.154 45.2386 902.716 47.6142 905.954 49.3243L906.888 47.5557ZM900 41.1685C898.367 38.4242 897.541 35.3103 897.541 31.8H895.541C895.541 35.639 896.449 39.1118 898.282 42.1915L900 41.1685ZM897.541 31.8C897.541 28.2895 898.367 25.1951 899.998 22.488L898.285 21.456C896.449 24.5035 895.541 27.9611 895.541 31.8H897.541ZM899.996 22.491C901.667 19.7393 903.955 17.6123 906.88 16.1004L905.962 14.3236C902.717 16.001 900.152 18.3807 898.286 21.453L899.996 22.491ZM906.888 16.0963C909.815 14.5505 913.119 13.768 916.821 13.768V11.768C912.827 11.768 909.198 12.6148 905.954 14.3277L906.888 16.0963ZM916.821 13.768C920.238 13.768 923.25 14.3707 925.875 15.5519L926.695 13.7281C923.774 12.4133 920.476 11.768 916.821 11.768V13.768ZM925.875 15.5519C928.501 16.7336 930.655 18.4332 932.355 20.6554L933.943 19.4405C932.037 16.9481 929.616 15.0424 926.695 13.7281L925.875 15.5519ZM932.483 19.302L924.735 26.218L926.067 27.71L933.815 20.794L932.483 19.302ZM926.185 26.3428C923.782 23.3113 920.86 21.7 917.445 21.7V23.7C920.131 23.7 922.514 24.9313 924.617 27.5852L926.185 26.3428ZM917.445 21.7C914.641 21.7 912.301 22.6203 910.528 24.5121L911.987 25.8799C913.333 24.4437 915.118 23.7 917.445 23.7V21.7ZM910.535 24.5044C908.758 26.3605 907.917 28.8314 907.917 31.8H909.917C909.917 29.222 910.637 27.2901 911.979 25.8876L910.535 24.5044ZM907.917 31.8C907.917 34.7695 908.758 37.2523 910.528 39.1399L911.987 37.7721C910.636 36.3317 909.917 34.3772 909.917 31.8H907.917ZM910.535 39.1476C912.31 41.0017 914.648 41.9 917.445 41.9V39.9C915.112 39.9 913.324 39.169 911.979 37.7644L910.535 39.1476ZM917.445 41.9C920.86 41.9 923.782 40.2887 926.185 37.2572L924.617 36.0148C922.514 38.6687 920.131 39.9 917.445 39.9V41.9ZM924.735 37.382L932.483 44.298L933.815 42.806L926.067 35.89L924.735 37.382ZM932.355 42.9445C930.655 45.1668 928.501 46.8664 925.875 48.0481L926.695 49.8719C929.616 48.5576 932.037 46.6519 933.943 44.1594L932.355 42.9445ZM925.875 48.0481C923.25 49.2293 920.238 49.832 916.821 49.832V51.832C920.476 51.832 923.774 51.1867 926.695 49.8719L925.875 48.0481ZM973.612 13.6H974.612V12.6H973.612V13.6ZM973.612 50V51H974.612V50H973.612ZM961.34 50H960.34V51H961.34V50ZM961.34 36.584H962.34V35.584H961.34V36.584ZM950.004 36.584V35.584H949.004V36.584H950.004ZM950.004 50V51H951.004V50H950.004ZM937.732 50H936.732V51H937.732V50ZM937.732 13.6V12.6H936.732V13.6H937.732ZM950.004 13.6H951.004V12.6H950.004V13.6ZM950.004 26.496H949.004V27.496H950.004V26.496ZM961.34 26.496V27.496H962.34V26.496H961.34ZM961.34 13.6V12.6H960.34V13.6H961.34ZM972.612 13.6V50H974.612V13.6H972.612ZM973.612 49H961.34V51H973.612V49ZM962.34 50V36.584H960.34V50H962.34ZM961.34 35.584H950.004V37.584H961.34V35.584ZM949.004 36.584V50H951.004V36.584H949.004ZM950.004 49H937.732V51H950.004V49ZM938.732 50V13.6H936.732V50H938.732ZM937.732 14.6H950.004V12.6H937.732V14.6ZM949.004 13.6V26.496H951.004V13.6H949.004ZM950.004 27.496H961.34V25.496H950.004V27.496ZM962.34 26.496V13.6H960.34V26.496H962.34ZM961.34 14.6H973.612V12.6H961.34V14.6ZM1001.56 46.308L1000.87 47.027L1000.87 47.027L1001.56 46.308ZM996.883 13.6V12.6H995.883V13.6H996.883ZM1009.16 13.6H1010.16V12.6H1009.16V13.6ZM1010.56 39.08L1009.77 39.6908L1009.77 39.6978L1009.78 39.7047L1010.56 39.08ZM1018.83 39.08L1018.05 38.4553L1018.04 38.4622L1018.04 38.4692L1018.83 39.08ZM1020.28 13.6V12.6H1019.28V13.6H1020.28ZM1032.35 13.6H1033.35V12.6H1032.35V13.6ZM1027.67 46.308L1026.97 45.589L1026.97 45.589L1027.67 46.308ZM1014.62 49.832C1009.22 49.832 1005.14 48.3774 1002.26 45.589L1000.87 47.027C1004.22 50.2706 1008.85 51.832 1014.62 51.832V49.832ZM1002.26 45.589C999.38 42.8068 997.883 38.8647 997.883 33.62H995.883C995.883 39.2607 997.506 43.7772 1000.87 47.027L1002.26 45.589ZM997.883 33.62V13.6H995.883V33.62H997.883ZM996.883 14.6H1009.16V12.6H996.883V14.6ZM1008.16 13.6V33.256H1010.16V13.6H1008.16ZM1008.16 33.256C1008.16 35.9995 1008.63 38.2139 1009.77 39.6908L1011.35 38.4692C1010.62 37.5195 1010.16 35.8512 1010.16 33.256H1008.16ZM1009.78 39.7047C1010.97 41.1949 1012.67 41.9 1014.72 41.9V39.9C1013.17 39.9 1012.09 39.3918 1011.34 38.4553L1009.78 39.7047ZM1014.72 41.9C1016.77 41.9 1018.46 41.1945 1019.62 39.6908L1018.04 38.4692C1017.32 39.3922 1016.27 39.9 1014.72 39.9V41.9ZM1019.61 39.7047C1020.79 38.2257 1021.28 36.0049 1021.28 33.256H1019.28C1019.28 35.8458 1018.8 37.5077 1018.05 38.4553L1019.61 39.7047ZM1021.28 33.256V13.6H1019.28V33.256H1021.28ZM1020.28 14.6H1032.35V12.6H1020.28V14.6ZM1031.35 13.6V33.62H1033.35V13.6H1031.35ZM1031.35 33.62C1031.35 38.8647 1029.85 42.8068 1026.97 45.589L1028.36 47.027C1031.72 43.7772 1033.35 39.2607 1033.35 33.62H1031.35ZM1026.97 45.589C1024.09 48.3774 1020.01 49.832 1014.62 49.832V51.832C1020.38 51.832 1025.01 50.2706 1028.36 47.027L1026.97 45.589ZM1061.54 50L1060.7 50.5433L1061 51H1061.54V50ZM1055.25 40.276L1056.09 39.7327L1055.24 38.4189L1054.4 39.7423L1055.25 40.276ZM1049.11 50V51H1049.66L1049.96 50.5337L1049.11 50ZM1035.12 50L1034.31 49.4175L1033.18 51H1035.12V50ZM1048.28 31.644L1049.09 32.2265L1049.51 31.6495L1049.1 31.0688L1048.28 31.644ZM1035.59 13.6V12.6H1033.67L1034.77 14.1752L1035.59 13.6ZM1049.37 13.6L1050.2 13.0399L1049.9 12.6H1049.37V13.6ZM1055.56 22.752L1054.73 23.3121L1055.57 24.553L1056.4 23.3023L1055.56 22.752ZM1061.59 13.6V12.6H1061.05L1060.76 13.0497L1061.59 13.6ZM1074.8 13.6L1075.61 14.1837L1076.75 12.6H1074.8V13.6ZM1062.16 31.176L1061.35 30.5923L1060.93 31.1735L1061.35 31.7564L1062.16 31.176ZM1075.58 50V51H1077.52L1076.4 49.4196L1075.58 50ZM1062.38 49.4567L1056.09 39.7327L1054.41 40.8193L1060.7 50.5433L1062.38 49.4567ZM1054.4 39.7423L1048.27 49.4663L1049.96 50.5337L1056.09 40.8097L1054.4 39.7423ZM1049.11 49H1035.12V51H1049.11V49ZM1035.94 50.5825L1049.09 32.2265L1047.47 31.0615L1034.31 49.4175L1035.94 50.5825ZM1049.1 31.0688L1036.41 13.0248L1034.77 14.1752L1047.46 32.2192L1049.1 31.0688ZM1035.59 14.6H1049.37V12.6H1035.59V14.6ZM1048.54 14.1601L1054.73 23.3121L1056.39 22.1919L1050.2 13.0399L1048.54 14.1601ZM1056.4 23.3023L1062.43 14.1503L1060.76 13.0497L1054.73 22.2017L1056.4 23.3023ZM1061.59 14.6H1074.8V12.6H1061.59V14.6ZM1073.99 13.0163L1061.35 30.5923L1062.98 31.7597L1075.61 14.1837L1073.99 13.0163ZM1061.35 31.7564L1074.77 50.5804L1076.4 49.4196L1062.98 30.5956L1061.35 31.7564ZM1075.58 49H1061.54V51H1075.58V49ZM1091.78 6.216V5.216H1091.07L1090.83 5.88538L1091.78 6.216ZM1102.18 6.216L1103.12 6.54661L1103.59 5.216H1102.18V6.216ZM1085.02 55.2V56.2H1085.73L1085.96 55.5306L1085.02 55.2ZM1074.62 55.2L1073.67 54.8694L1073.21 56.2H1074.62V55.2ZM1091.78 7.216H1102.18V5.216H1091.78V7.216ZM1101.23 5.88538L1084.07 54.8694L1085.96 55.5306L1103.12 6.54661L1101.23 5.88538ZM1085.02 54.2H1074.62V56.2H1085.02V54.2ZM1075.56 55.5306L1092.72 6.54661L1090.83 5.88538L1073.67 54.8694L1075.56 55.5306ZM1107.97 46.308L1107.28 47.027L1107.28 47.027L1107.97 46.308ZM1103.29 13.6V12.6H1102.29V13.6H1103.29ZM1115.56 13.6H1116.56V12.6H1115.56V13.6ZM1116.97 39.08L1116.18 39.6908L1116.18 39.6978L1116.19 39.7047L1116.97 39.08ZM1125.24 39.08L1124.46 38.4553L1124.45 38.4622L1124.44 38.4692L1125.24 39.08ZM1126.69 13.6V12.6H1125.69V13.6H1126.69ZM1138.76 13.6H1139.76V12.6H1138.76V13.6ZM1134.08 46.308L1133.38 45.589L1133.38 45.589L1134.08 46.308ZM1121.02 49.832C1115.63 49.832 1111.55 48.3774 1108.67 45.589L1107.28 47.027C1110.63 50.2706 1115.26 51.832 1121.02 51.832V49.832ZM1108.67 45.589C1105.79 42.8068 1104.29 38.8647 1104.29 33.62H1102.29C1102.29 39.2607 1103.92 43.7772 1107.28 47.027L1108.67 45.589ZM1104.29 33.62V13.6H1102.29V33.62H1104.29ZM1103.29 14.6H1115.56V12.6H1103.29V14.6ZM1114.56 13.6V33.256H1116.56V13.6H1114.56ZM1114.56 33.256C1114.56 35.9995 1115.04 38.2139 1116.18 39.6908L1117.76 38.4692C1117.03 37.5195 1116.56 35.8512 1116.56 33.256H1114.56ZM1116.19 39.7047C1117.38 41.1949 1119.08 41.9 1121.13 41.9V39.9C1119.57 39.9 1118.5 39.3918 1117.75 38.4553L1116.19 39.7047ZM1121.13 41.9C1123.18 41.9 1124.87 41.1945 1126.03 39.6908L1124.44 38.4692C1123.73 39.3922 1122.68 39.9 1121.13 39.9V41.9ZM1126.02 39.7047C1127.2 38.2257 1127.69 36.0049 1127.69 33.256H1125.69C1125.69 35.8458 1125.21 37.5077 1124.46 38.4553L1126.02 39.7047ZM1127.69 33.256V13.6H1125.69V33.256H1127.69ZM1126.69 14.6H1138.76V12.6H1126.69V14.6ZM1137.76 13.6V33.62H1139.76V13.6H1137.76ZM1137.76 33.62C1137.76 38.8647 1136.26 42.8068 1133.38 45.589L1134.77 47.027C1138.13 43.7772 1139.76 39.2607 1139.76 33.62H1137.76ZM1133.38 45.589C1130.5 48.3774 1126.42 49.832 1121.02 49.832V51.832C1126.79 51.832 1131.42 50.2706 1134.77 47.027L1133.38 45.589ZM1145.42 13.6V12.6H1144.42V13.6H1145.42ZM1157.69 13.6H1158.69V12.6H1157.69V13.6ZM1157.69 50V51H1158.69V50H1157.69ZM1145.42 50H1144.42V51H1145.42V50ZM1145.42 14.6H1157.69V12.6H1145.42V14.6ZM1156.69 13.6V50H1158.69V13.6H1156.69ZM1157.69 49H1145.42V51H1157.69V49ZM1146.42 50V13.6H1144.42V50H1146.42Z" fill="#3C3B3A"/>
<path d="M1249.86 13.6L1250.78 13.9895L1251.37 12.6H1249.86V13.6ZM1234.47 50V51H1235.13L1235.39 50.3895L1234.47 50ZM1222.4 50L1221.48 50.3895L1221.74 51H1222.4V50ZM1207.01 13.6V12.6H1205.5L1206.09 13.9895L1207.01 13.6ZM1220.22 13.6L1221.15 13.222L1220.89 12.6H1220.22V13.6ZM1228.9 34.868L1227.98 35.246L1228.89 37.4866L1229.83 35.2537L1228.9 34.868ZM1237.8 13.6V12.6H1237.13L1236.87 13.2143L1237.8 13.6ZM1248.94 13.2105L1233.55 49.6105L1235.39 50.3895L1250.78 13.9895L1248.94 13.2105ZM1234.47 49H1222.4V51H1234.47V49ZM1223.33 49.6105L1207.93 13.2105L1206.09 13.9895L1221.48 50.3895L1223.33 49.6105ZM1207.01 14.6H1220.22V12.6H1207.01V14.6ZM1219.29 13.978L1227.98 35.246L1229.83 34.49L1221.15 13.222L1219.29 13.978ZM1229.83 35.2537L1238.72 13.9857L1236.87 13.2143L1227.98 34.4823L1229.83 35.2537ZM1237.8 14.6H1249.86V12.6H1237.8V14.6ZM1282.39 40.744H1283.39V39.744H1282.39V40.744ZM1282.39 50V51H1283.39V50H1282.39ZM1252.12 50H1251.12V51H1252.12V50ZM1252.12 13.6V12.6H1251.12V13.6H1252.12ZM1281.71 13.6H1282.71V12.6H1281.71V13.6ZM1281.71 22.856V23.856H1282.71V22.856H1281.71ZM1264.19 22.856V21.856H1263.19V22.856H1264.19ZM1264.19 27.12H1263.19V28.12H1264.19V27.12ZM1279.58 27.12H1280.58V26.12H1279.58V27.12ZM1279.58 35.96V36.96H1280.58V35.96H1279.58ZM1264.19 35.96V34.96H1263.19V35.96H1264.19ZM1264.19 40.744H1263.19V41.744H1264.19V40.744ZM1281.39 40.744V50H1283.39V40.744H1281.39ZM1282.39 49H1252.12V51H1282.39V49ZM1253.12 50V13.6H1251.12V50H1253.12ZM1252.12 14.6H1281.71V12.6H1252.12V14.6ZM1280.71 13.6V22.856H1282.71V13.6H1280.71ZM1281.71 21.856H1264.19V23.856H1281.71V21.856ZM1263.19 22.856V27.12H1265.19V22.856H1263.19ZM1264.19 28.12H1279.58V26.12H1264.19V28.12ZM1278.58 27.12V35.96H1280.58V27.12H1278.58ZM1279.58 34.96H1264.19V36.96H1279.58V34.96ZM1263.19 35.96V40.744H1265.19V35.96H1263.19ZM1264.19 41.744H1282.39V39.744H1264.19V41.744ZM1303.75 40.848L1304.58 40.2879L1304.28 39.848H1303.75V40.848ZM1300.42 40.848V39.848H1299.42V40.848H1300.42ZM1300.42 50V51H1301.42V50H1300.42ZM1288.15 50H1287.15V51H1288.15V50ZM1288.15 13.6V12.6H1287.15V13.6H1288.15ZM1314.46 15.264L1314.06 16.1778L1314.06 16.1778L1314.46 15.264ZM1320.23 20.048L1319.4 20.593L1319.4 20.593L1320.23 20.048ZM1320.49 34.14L1319.64 33.621L1319.64 33.621L1320.49 34.14ZM1315.4 38.768L1314.94 37.8792L1313.94 38.3968L1314.57 39.3306L1315.4 38.768ZM1323.04 50V51H1324.93L1323.87 49.4374L1323.04 50ZM1309.94 50L1309.11 50.5601L1309.41 51H1309.94V50ZM1308.64 24.208L1307.96 24.9452L1307.97 24.953L1307.98 24.9606L1308.64 24.208ZM1300.42 23.064V22.064H1299.42V23.064H1300.42ZM1300.42 31.592H1299.42V32.592H1300.42V31.592ZM1308.64 30.5L1309.3 31.2526L1309.3 31.245L1309.31 31.2372L1308.64 30.5ZM1303.75 39.848H1300.42V41.848H1303.75V39.848ZM1299.42 40.848V50H1301.42V40.848H1299.42ZM1300.42 49H1288.15V51H1300.42V49ZM1289.15 50V13.6H1287.15V50H1289.15ZM1288.15 14.6H1305.67V12.6H1288.15V14.6ZM1305.67 14.6C1308.93 14.6 1311.71 15.1368 1314.06 16.1778L1314.87 14.3502C1312.22 13.1725 1309.14 12.6 1305.67 12.6V14.6ZM1314.06 16.1778C1316.39 17.2168 1318.16 18.6914 1319.4 20.593L1321.07 19.503C1319.6 17.2446 1317.52 15.5298 1314.87 14.3502L1314.06 16.1778ZM1319.4 20.593C1320.63 22.4921 1321.26 24.7245 1321.26 27.328H1323.26C1323.26 24.3848 1322.54 21.7639 1321.07 19.503L1319.4 20.593ZM1321.26 27.328C1321.26 29.772 1320.71 31.8577 1319.64 33.621L1321.35 34.659C1322.64 32.5396 1323.26 30.084 1323.26 27.328H1321.26ZM1319.64 33.621C1318.56 35.3895 1317.01 36.811 1314.94 37.8792L1315.86 39.6568C1318.22 38.437 1320.06 36.7731 1321.35 34.659L1319.64 33.621ZM1314.57 39.3306L1322.21 50.5626L1323.87 49.4374L1316.22 38.2054L1314.57 39.3306ZM1323.04 49H1309.94V51H1323.04V49ZM1310.77 49.4399L1304.58 40.2879L1302.92 41.4081L1309.11 50.5601L1310.77 49.4399ZM1310.89 27.328C1310.89 25.7575 1310.39 24.4149 1309.3 23.4554L1307.98 24.9606C1308.55 25.4571 1308.89 26.1945 1308.89 27.328H1310.89ZM1309.31 23.4708C1308.23 22.4741 1306.69 22.064 1304.89 22.064V24.064C1306.42 24.064 1307.39 24.4166 1307.96 24.9452L1309.31 23.4708ZM1304.89 22.064H1300.42V24.064H1304.89V22.064ZM1299.42 23.064V31.592H1301.42V23.064H1299.42ZM1300.42 32.592H1304.89V30.592H1300.42V32.592ZM1304.89 32.592C1306.68 32.592 1308.21 32.2038 1309.3 31.2526L1307.98 29.7474C1307.4 30.2522 1306.43 30.592 1304.89 30.592V32.592ZM1309.31 31.2372C1310.39 30.2479 1310.89 28.9001 1310.89 27.328H1308.89C1308.89 28.4599 1308.55 29.2268 1307.96 29.7628L1309.31 31.2372ZM1349.06 36.792L1348.2 36.2826L1348.06 36.5182V36.792H1349.06ZM1349.06 50V51H1350.06V50H1349.06ZM1336.79 50H1335.79V51H1336.79V50ZM1336.79 36.636H1337.79V36.3606L1337.65 36.1241L1336.79 36.636ZM1323.06 13.6V12.6H1321.3L1322.2 14.1119L1323.06 13.6ZM1336.01 13.6L1336.87 13.0913L1336.58 12.6H1336.01V13.6ZM1343.44 26.184L1342.58 26.6927L1343.44 28.1446L1344.3 26.6954L1343.44 26.184ZM1350.93 13.6V12.6H1350.36L1350.07 13.0886L1350.93 13.6ZM1362.79 13.6L1363.65 14.1094L1364.54 12.6H1362.79V13.6ZM1348.06 36.792V50H1350.06V36.792H1348.06ZM1349.06 49H1336.79V51H1349.06V49ZM1337.79 50V36.636H1335.79V50H1337.79ZM1337.65 36.1241L1323.92 13.0881L1322.2 14.1119L1335.93 37.1479L1337.65 36.1241ZM1323.06 14.6H1336.01V12.6H1323.06V14.6ZM1335.15 14.1087L1342.58 26.6927L1344.3 25.6753L1336.87 13.0913L1335.15 14.1087ZM1344.3 26.6954L1351.79 14.1114L1350.07 13.0886L1342.58 25.6726L1344.3 26.6954ZM1350.93 14.6H1362.79V12.6H1350.93V14.6ZM1361.93 13.0906L1348.2 36.2826L1349.92 37.3014L1363.65 14.1094L1361.93 13.0906ZM1390.54 48.388L1391.01 47.5016L1391.01 47.5016L1390.54 48.388ZM1383.21 41.628L1382.36 42.147L1382.36 42.1515L1383.21 41.628ZM1383.21 22.024L1384.06 22.5475L1384.07 22.543L1383.21 22.024ZM1411.66 15.212L1412.12 14.3256L1412.12 14.3256L1411.66 15.212ZM1418.99 22.024L1418.13 22.543L1418.14 22.5475L1418.99 22.024ZM1418.99 41.628L1419.84 42.1515L1419.84 42.147L1418.99 41.628ZM1411.66 48.388L1412.12 49.2744L1412.12 49.2744L1411.66 48.388ZM1405.21 39.808L1405.72 40.6655L1405.73 40.6613L1405.21 39.808ZM1408.17 36.636L1409.05 37.1101L1409.06 37.1008L1408.17 36.636ZM1408.17 27.016L1407.29 27.4809L1407.29 27.4901L1408.17 27.016ZM1405.21 23.844L1404.68 24.6906L1404.69 24.6994L1404.7 24.7078L1405.21 23.844ZM1396.94 23.844L1397.45 24.7015L1397.46 24.6973L1396.94 23.844ZM1394.03 27.016L1394.91 27.4901L1394.91 27.4808L1394.03 27.016ZM1394.03 36.636L1393.14 37.1009L1393.15 37.1101L1394.03 36.636ZM1396.94 39.808L1396.41 40.6546L1396.42 40.6634L1396.44 40.6718L1396.94 39.808ZM1401.1 49.832C1397.32 49.832 1393.97 49.0482 1391.01 47.5016L1390.08 49.2744C1393.36 50.9865 1397.04 51.832 1401.1 51.832V49.832ZM1391.01 47.5016C1388.04 45.9522 1385.73 43.8213 1384.06 41.1045L1382.36 42.1515C1384.23 45.1894 1386.81 47.5652 1390.08 49.2744L1391.01 47.5016ZM1384.07 41.109C1382.4 38.3642 1381.56 35.27 1381.56 31.8H1379.56C1379.56 35.61 1380.49 39.0678 1382.36 42.147L1384.07 41.109ZM1381.56 31.8C1381.56 28.3299 1382.4 25.2551 1384.06 22.5475L1382.36 21.5005C1380.49 24.5476 1379.56 27.9901 1379.56 31.8H1381.56ZM1384.07 22.543C1385.74 19.7922 1388.04 17.6462 1391.01 16.0984L1390.08 14.3256C1386.8 16.0364 1384.22 18.4317 1382.36 21.505L1384.07 22.543ZM1391.01 16.0984C1393.97 14.5518 1397.32 13.768 1401.1 13.768V11.768C1397.04 11.768 1393.36 12.6135 1390.08 14.3256L1391.01 16.0984ZM1401.1 13.768C1404.87 13.768 1408.23 14.5518 1411.19 16.0984L1412.12 14.3256C1408.84 12.6135 1405.16 11.768 1401.1 11.768V13.768ZM1411.19 16.0984C1414.16 17.6462 1416.46 19.7922 1418.13 22.543L1419.84 21.505C1417.98 18.4317 1415.39 16.0364 1412.12 14.3256L1411.19 16.0984ZM1418.14 22.5475C1419.8 25.2551 1420.64 28.3299 1420.64 31.8H1422.64C1422.64 27.9901 1421.71 24.5476 1419.84 21.5005L1418.14 22.5475ZM1420.64 31.8C1420.64 35.27 1419.8 38.3642 1418.13 41.109L1419.84 42.147C1421.71 39.0678 1422.64 35.61 1422.64 31.8H1420.64ZM1418.14 41.1045C1416.47 43.8213 1414.16 45.9522 1411.19 47.5016L1412.12 49.2744C1415.39 47.5652 1417.97 45.1894 1419.84 42.1515L1418.14 41.1045ZM1411.19 47.5016C1408.23 49.0482 1404.87 49.832 1401.1 49.832V51.832C1405.16 51.832 1408.84 50.9865 1412.12 49.2744L1411.19 47.5016ZM1401.1 41.9C1402.79 41.9 1404.34 41.494 1405.72 40.6655L1404.69 38.9505C1403.65 39.578 1402.46 39.9 1401.1 39.9V41.9ZM1405.73 40.6613C1407.14 39.8016 1408.24 38.61 1409.05 37.1101L1407.29 36.1619C1406.64 37.366 1405.78 38.2891 1404.69 38.9547L1405.73 40.6613ZM1409.06 37.1008C1409.87 35.5479 1410.26 33.7712 1410.26 31.8H1408.26C1408.26 33.5034 1407.93 34.9508 1407.29 36.1712L1409.06 37.1008ZM1410.26 31.8C1410.26 29.8296 1409.87 28.0657 1409.05 26.5419L1407.29 27.4901C1407.93 28.6703 1408.26 30.0958 1408.26 31.8H1410.26ZM1409.06 26.5512C1408.25 25.0129 1407.14 23.8107 1405.71 22.9802L1404.7 24.7078C1405.78 25.3333 1406.64 26.2458 1407.29 27.4808L1409.06 26.5512ZM1405.74 22.9974C1404.36 22.128 1402.8 21.7 1401.1 21.7V23.7C1402.45 23.7 1403.63 24.0347 1404.68 24.6906L1405.74 22.9974ZM1401.1 21.7C1399.4 21.7 1397.83 22.1279 1396.42 22.9907L1397.46 24.6973C1398.55 24.0348 1399.75 23.7 1401.1 23.7V21.7ZM1396.43 22.9865C1395.04 23.8188 1393.95 25.0199 1393.14 26.5512L1394.91 27.4808C1395.57 26.2387 1396.41 25.3252 1397.45 24.7015L1396.43 22.9865ZM1393.15 26.5419C1392.33 28.0657 1391.94 29.8296 1391.94 31.8H1393.94C1393.94 30.0958 1394.27 28.6703 1394.91 27.4901L1393.15 26.5419ZM1391.94 31.8C1391.94 33.7712 1392.33 35.5479 1393.14 37.1008L1394.91 36.1712C1394.27 34.9508 1393.94 33.5034 1393.94 31.8H1391.94ZM1393.15 37.1101C1393.95 38.6031 1395.04 39.7934 1396.41 40.6546L1397.47 38.9614C1396.42 38.2972 1395.56 37.3729 1394.91 36.1619L1393.15 37.1101ZM1396.44 40.6718C1397.85 41.494 1399.41 41.9 1401.1 41.9V39.9C1399.74 39.9 1398.53 39.578 1397.44 38.9442L1396.44 40.6718ZM1453.45 15.264L1453.04 16.1778L1453.04 16.1778L1453.45 15.264ZM1459.22 20.048L1458.38 20.593L1458.38 20.593L1459.22 20.048ZM1459.22 34.608L1458.38 34.063L1458.38 34.063L1459.22 34.608ZM1453.45 39.392L1453.04 38.4782L1453.04 38.4782L1453.45 39.392ZM1439.41 41.056V40.056H1438.41V41.056H1439.41ZM1439.41 50V51H1440.41V50H1439.41ZM1427.13 50H1426.13V51H1427.13V50ZM1427.13 13.6V12.6H1426.13V13.6H1427.13ZM1447.62 30.5L1448.28 31.2526L1448.29 31.245L1448.3 31.2372L1447.62 30.5ZM1447.62 24.208L1446.95 24.9452L1446.95 24.953L1446.96 24.9606L1447.62 24.208ZM1439.41 23.064V22.064H1438.41V23.064H1439.41ZM1439.41 31.592H1438.41V32.592H1439.41V31.592ZM1444.66 14.6C1447.91 14.6 1450.7 15.1368 1453.04 16.1778L1453.85 14.3502C1451.2 13.1725 1448.13 12.6 1444.66 12.6V14.6ZM1453.04 16.1778C1455.38 17.2168 1457.14 18.6914 1458.38 20.593L1460.06 19.503C1458.59 17.2446 1456.51 15.5298 1453.85 14.3502L1453.04 16.1778ZM1458.38 20.593C1459.61 22.4921 1460.25 24.7245 1460.25 27.328H1462.25C1462.25 24.3848 1461.53 21.7639 1460.06 19.503L1458.38 20.593ZM1460.25 27.328C1460.25 29.9315 1459.61 32.1639 1458.38 34.063L1460.06 35.153C1461.53 32.8921 1462.25 30.2712 1462.25 27.328H1460.25ZM1458.38 34.063C1457.14 35.9646 1455.38 37.4392 1453.04 38.4782L1453.85 40.3058C1456.51 39.1262 1458.59 37.4114 1460.06 35.153L1458.38 34.063ZM1453.04 38.4782C1450.7 39.5192 1447.91 40.056 1444.66 40.056V42.056C1448.13 42.056 1451.2 41.4835 1453.85 40.3058L1453.04 38.4782ZM1444.66 40.056H1439.41V42.056H1444.66V40.056ZM1438.41 41.056V50H1440.41V41.056H1438.41ZM1439.41 49H1427.13V51H1439.41V49ZM1428.13 50V13.6H1426.13V50H1428.13ZM1427.13 14.6H1444.66V12.6H1427.13V14.6ZM1443.88 32.592C1445.67 32.592 1447.19 32.2038 1448.28 31.2526L1446.96 29.7474C1446.39 30.2522 1445.42 30.592 1443.88 30.592V32.592ZM1448.3 31.2372C1449.38 30.2479 1449.87 28.9001 1449.87 27.328H1447.87C1447.87 28.4599 1447.53 29.2268 1446.95 29.7628L1448.3 31.2372ZM1449.87 27.328C1449.87 25.7575 1449.38 24.4149 1448.28 23.4554L1446.96 24.9606C1447.53 25.4571 1447.87 26.1945 1447.87 27.328H1449.87ZM1448.3 23.4708C1447.21 22.4741 1445.68 22.064 1443.88 22.064V24.064C1445.41 24.064 1446.37 24.4166 1446.95 24.9452L1448.3 23.4708ZM1443.88 22.064H1439.41V24.064H1443.88V22.064ZM1438.41 23.064V31.592H1440.41V23.064H1438.41ZM1439.41 32.592H1443.88V30.592H1439.41V32.592ZM1473.4 23.116H1474.4V22.116H1473.4V23.116ZM1462.74 23.116H1461.74V24.116H1462.74V23.116ZM1462.74 13.6V12.6H1461.74V13.6H1462.74ZM1496.33 13.6H1497.33V12.6H1496.33V13.6ZM1496.33 23.116V24.116H1497.33V23.116H1496.33ZM1485.67 23.116V22.116H1484.67V23.116H1485.67ZM1485.67 50V51H1486.67V50H1485.67ZM1473.4 50H1472.4V51H1473.4V50ZM1473.4 22.116H1462.74V24.116H1473.4V22.116ZM1463.74 23.116V13.6H1461.74V23.116H1463.74ZM1462.74 14.6H1496.33V12.6H1462.74V14.6ZM1495.33 13.6V23.116H1497.33V13.6H1495.33ZM1496.33 22.116H1485.67V24.116H1496.33V22.116ZM1484.67 23.116V50H1486.67V23.116H1484.67ZM1485.67 49H1473.4V51H1485.67V49ZM1474.4 50V23.116H1472.4V50H1474.4ZM1500.56 13.6V12.6H1499.56V13.6H1500.56ZM1512.83 13.6H1513.83V12.6H1512.83V13.6ZM1512.83 50V51H1513.83V50H1512.83ZM1500.56 50H1499.56V51H1500.56V50ZM1500.56 14.6H1512.83V12.6H1500.56V14.6ZM1511.83 13.6V50H1513.83V13.6H1511.83ZM1512.83 49H1500.56V51H1512.83V49ZM1501.56 50V13.6H1499.56V50H1501.56ZM1552.28 50L1551.28 50.0063L1551.29 51H1552.28V50ZM1552.18 33.412L1553.18 33.4057L1553.15 29.8071L1551.32 32.9015L1552.18 33.412ZM1544.27 46.724V47.724H1544.84L1545.13 47.2345L1544.27 46.724ZM1538.87 46.724L1538.02 47.2512L1538.31 47.724H1538.87V46.724ZM1530.96 33.984L1531.81 33.4568L1529.96 30.4753V33.984H1530.96ZM1530.96 50V51H1531.96V50H1530.96ZM1519.78 50H1518.78V51H1519.78V50ZM1519.78 13.6V12.6H1518.78V13.6H1519.78ZM1529.87 13.6L1530.72 13.0785L1530.43 12.6H1529.87V13.6ZM1541.73 32.996L1540.87 33.5175L1541.74 34.9321L1542.58 33.5074L1541.73 32.996ZM1553.27 13.6V12.6H1552.7L1552.41 13.0886L1553.27 13.6ZM1563.36 13.6L1564.36 13.5971L1564.35 12.6H1563.36V13.6ZM1563.46 50V51H1564.46L1564.46 49.9971L1563.46 50ZM1553.28 49.9937L1553.18 33.4057L1551.18 33.4183L1551.28 50.0063L1553.28 49.9937ZM1551.32 32.9015L1543.41 46.2135L1545.13 47.2345L1553.04 33.9225L1551.32 32.9015ZM1544.27 45.724H1538.87V47.724H1544.27V45.724ZM1539.71 46.1968L1531.81 33.4568L1530.11 34.5112L1538.02 47.2512L1539.71 46.1968ZM1529.96 33.984V50H1531.96V33.984H1529.96ZM1530.96 49H1519.78V51H1530.96V49ZM1520.78 50V13.6H1518.78V50H1520.78ZM1519.78 14.6H1529.87V12.6H1519.78V14.6ZM1529.02 14.1215L1540.87 33.5175L1542.58 32.4745L1530.72 13.0785L1529.02 14.1215ZM1542.58 33.5074L1554.13 14.1114L1552.41 13.0886L1540.87 32.4846L1542.58 33.5074ZM1553.27 14.6H1563.36V12.6H1553.27V14.6ZM1562.36 13.6029L1562.46 50.0029L1564.46 49.9971L1564.36 13.5971L1562.36 13.6029ZM1563.46 49H1552.28V51H1563.46V49ZM1570.43 13.6V12.6H1569.43V13.6H1570.43ZM1582.71 13.6H1583.71V12.6H1582.71V13.6ZM1582.71 50V51H1583.71V50H1582.71ZM1570.43 50H1569.43V51H1570.43V50ZM1570.43 14.6H1582.71V12.6H1570.43V14.6ZM1581.71 13.6V50H1583.71V13.6H1581.71ZM1582.71 49H1570.43V51H1582.71V49ZM1571.43 50V13.6H1569.43V50H1571.43ZM1621.79 40.484H1622.79V39.484H1621.79V40.484ZM1621.79 50V51H1622.79V50H1621.79ZM1588.35 50H1587.35V51H1588.35V50ZM1588.35 42.46L1587.6 41.8079L1587.35 42.0891V42.46H1588.35ZM1604.99 23.116L1605.75 23.7681L1607.17 22.116H1604.99V23.116ZM1588.87 23.116H1587.87V24.116H1588.87V23.116ZM1588.87 13.6V12.6H1587.87V13.6H1588.87ZM1620.96 13.6H1621.96V12.6H1620.96V13.6ZM1620.96 21.14L1621.72 21.7921L1621.96 21.5109V21.14H1620.96ZM1604.32 40.484L1603.56 39.8319L1602.14 41.484H1604.32V40.484ZM1620.79 40.484V50H1622.79V40.484H1620.79ZM1621.79 49H1588.35V51H1621.79V49ZM1589.35 50V42.46H1587.35V50H1589.35ZM1589.11 43.1121L1605.75 23.7681L1604.24 22.4639L1587.6 41.8079L1589.11 43.1121ZM1604.99 22.116H1588.87V24.116H1604.99V22.116ZM1589.87 23.116V13.6H1587.87V23.116H1589.87ZM1588.87 14.6H1620.96V12.6H1588.87V14.6ZM1619.96 13.6V21.14H1621.96V13.6H1619.96ZM1620.2 20.4879L1603.56 39.8319L1605.08 41.1361L1621.72 21.7921L1620.2 20.4879ZM1604.32 41.484H1621.79V39.484H1604.32V41.484ZM1656.66 40.744H1657.66V39.744H1656.66V40.744ZM1656.66 50V51H1657.66V50H1656.66ZM1626.39 50H1625.39V51H1626.39V50ZM1626.39 13.6V12.6H1625.39V13.6H1626.39ZM1655.98 13.6H1656.98V12.6H1655.98V13.6ZM1655.98 22.856V23.856H1656.98V22.856H1655.98ZM1638.46 22.856V21.856H1637.46V22.856H1638.46ZM1638.46 27.12H1637.46V28.12H1638.46V27.12ZM1653.85 27.12H1654.85V26.12H1653.85V27.12ZM1653.85 35.96V36.96H1654.85V35.96H1653.85ZM1638.46 35.96V34.96H1637.46V35.96H1638.46ZM1638.46 40.744H1637.46V41.744H1638.46V40.744ZM1655.66 40.744V50H1657.66V40.744H1655.66ZM1656.66 49H1626.39V51H1656.66V49ZM1627.39 50V13.6H1625.39V50H1627.39ZM1626.39 14.6H1655.98V12.6H1626.39V14.6ZM1654.98 13.6V22.856H1656.98V13.6H1654.98ZM1655.98 21.856H1638.46V23.856H1655.98V21.856ZM1637.46 22.856V27.12H1639.46V22.856H1637.46ZM1638.46 28.12H1653.85V26.12H1638.46V28.12ZM1652.85 27.12V35.96H1654.85V27.12H1652.85ZM1653.85 34.96H1638.46V36.96H1653.85V34.96ZM1637.46 35.96V40.744H1639.46V35.96H1637.46ZM1638.46 41.744H1656.66V39.744H1638.46V41.744ZM1662.42 13.6V12.6H1661.42V13.6H1662.42ZM1691.07 15.836L1690.64 16.7365L1690.65 16.7422L1691.07 15.836ZM1698.3 22.128L1697.45 22.6551L1697.46 22.6628L1698.3 22.128ZM1698.3 41.472L1697.46 40.9372L1697.45 40.9449L1698.3 41.472ZM1691.07 47.816L1691.5 48.7204L1691.5 48.7183L1691.07 47.816ZM1662.42 50H1661.42V51H1662.42V50ZM1686.13 38.196L1686.82 38.919L1686.82 38.9186L1686.13 38.196ZM1686.13 25.456L1685.43 26.171L1685.44 26.1789L1685.45 26.1865L1686.13 25.456ZM1674.69 23.168V22.168H1673.69V23.168H1674.69ZM1674.69 40.432H1673.69V41.432H1674.69V40.432ZM1662.42 14.6H1680.36V12.6H1662.42V14.6ZM1680.36 14.6C1684.29 14.6 1687.71 15.3223 1690.64 16.7364L1691.51 14.9356C1688.26 13.3684 1684.54 12.6 1680.36 12.6V14.6ZM1690.65 16.7422C1693.61 18.1219 1695.86 20.093 1697.45 22.6551L1699.15 21.6009C1697.34 18.6856 1694.78 16.4621 1691.5 14.9298L1690.65 16.7422ZM1697.46 22.6628C1699.07 25.2193 1699.9 28.252 1699.9 31.8H1701.9C1701.9 27.9293 1701 24.514 1699.15 21.5932L1697.46 22.6628ZM1699.9 31.8C1699.9 35.348 1699.07 38.3807 1697.46 40.9372L1699.15 42.0068C1701 39.086 1701.9 35.6707 1701.9 31.8H1699.9ZM1697.45 40.9449C1695.86 43.5091 1693.6 45.4992 1690.64 46.9137L1691.5 48.7183C1694.78 47.1515 1697.34 44.9123 1699.15 41.9991L1697.45 40.9449ZM1690.65 46.9116C1687.72 48.2939 1684.3 49 1680.36 49V51C1684.54 51 1688.26 50.2501 1691.5 48.7204L1690.65 46.9116ZM1680.36 49H1662.42V51H1680.36V49ZM1663.42 50V13.6H1661.42V50H1663.42ZM1679.84 41.432C1682.67 41.432 1685.04 40.6251 1686.82 38.919L1685.44 37.473C1684.11 38.7483 1682.28 39.432 1679.84 39.432V41.432ZM1686.82 38.9186C1688.66 37.1611 1689.53 34.7414 1689.53 31.8H1687.53C1687.53 34.3359 1686.79 36.1802 1685.44 37.4734L1686.82 38.9186ZM1689.53 31.8C1689.53 28.8596 1688.66 26.4511 1686.82 24.7255L1685.45 26.1865C1686.79 27.4422 1687.53 29.2631 1687.53 31.8H1689.53ZM1686.83 24.741C1685.05 22.9962 1682.68 22.168 1679.84 22.168V24.168C1682.27 24.168 1684.1 24.8651 1685.43 26.171L1686.83 24.741ZM1679.84 22.168H1674.69V24.168H1679.84V22.168ZM1673.69 23.168V40.432H1675.69V23.168H1673.69ZM1674.69 41.432H1679.84V39.432H1674.69V41.432Z" fill="#3C3B3A"/>
</svg>
