<svg width="98" height="98" viewBox="0 0 98 98" fill="none" xmlns="http://www.w3.org/2000/svg">
<circle cx="49" cy="49" r="48.5" stroke="#FC491E"/>
<path d="M30.9148 60.4413C28.307 60.6898 25.6372 60.8763 22.9053 60.8763V69.8872C22.9053 71.0058 23.8366 72.0001 25.0163 72.0001H33.4604C34.6401 72.0001 35.5715 71.0679 35.5715 69.8872V59.8198H35.5094C34.1434 60.0684 32.6533 60.2548 30.9148 60.4413Z" fill="#FC491E"/>
<path d="M45.3194 57.8934C44.0155 58.2663 42.6496 58.577 41.3457 58.8256V69.8873C41.3457 71.0059 42.277 72.0002 43.4567 72.0002H51.9009C53.0185 72.0002 54.0119 71.068 54.0119 69.8873V54.9727C52.708 55.532 51.4042 55.967 50.0382 56.4641C48.548 56.9613 46.9958 57.3963 45.3194 57.8934Z" fill="#FC491E"/>
<path d="M65.2494 48.8202C63.7593 49.9388 62.0829 50.9953 60.2823 51.9896C60.1581 52.0517 59.9718 52.176 59.8477 52.2382V69.8871C59.8477 71.0057 60.779 72 61.9587 72H70.4028C71.5825 72 72.5138 71.0678 72.5138 69.8871V41.9844C70.527 44.4701 68.1055 46.7695 65.2494 48.8202Z" fill="#FC491E"/>
<path d="M75.5567 23.6518C75.4325 22.3467 74.0044 21.601 72.8868 22.2224L61.835 28.0019C60.5311 28.6854 60.5311 30.5498 61.835 31.2333L65.4361 33.1598C64.1323 35.6456 62.0212 38.0071 58.9168 40.2442C57.7992 41.0521 56.5574 41.86 55.1293 42.6679C53.8875 43.3515 52.5837 43.9729 51.1556 44.5943C51.0314 44.6565 50.9694 44.6565 50.8452 44.7186C49.4792 45.2779 48.0512 45.8372 46.4989 46.3344C46.1885 46.4587 45.878 46.5208 45.5676 46.6451C44.45 47.018 43.2703 47.3287 42.0906 47.6394C40.973 47.9501 39.8554 48.1987 38.6757 48.4473C38.3032 48.5094 37.9306 48.5716 37.6202 48.6337C36.3784 48.8823 35.1366 49.1309 33.8327 49.2552C32.591 49.4416 31.2871 49.628 29.9211 49.7523C29.7969 49.7523 29.6728 49.7523 29.5486 49.8144C28.2447 49.9387 26.8788 50.063 25.5128 50.1252C24.0847 50.1873 22.5946 50.2495 21.1045 50.2495C19.366 50.2495 18 51.6788 18 53.3567C18 55.0967 19.4281 56.4639 21.1045 56.4639C41.7802 56.4639 59.2893 50.1252 67.6713 40.7414C67.7334 40.6793 67.7955 40.555 67.8576 40.4928C68.4785 39.7471 69.0373 39.0014 69.5961 38.2556C69.6582 38.1313 69.7824 38.0692 69.8445 37.9449C70.2791 37.3235 70.5895 36.702 70.9621 36.0806L74.3149 37.8206C75.6188 38.5042 77.171 37.4478 76.9847 35.9563L75.5567 23.6518Z" fill="#FC491E"/>
</svg>
