<svg width="1061" height="880" viewBox="0 0 1061 880" fill="none" xmlns="http://www.w3.org/2000/svg">
<g filter="url(#filter0_f)">
<ellipse cx="535" cy="445" rx="266" ry="265" fill="#FC491E" fill-opacity="0.2"/>
</g>
<path d="M479.272 354.767C590.911 194.792 773.282 28.3787 1056.7 0.907643C1056.39 1.01564 1056.06 1.13028 1055.72 1.25168C1052.36 2.43894 1047.42 4.27285 1041.08 6.86149C1028.39 12.0388 1010.1 20.235 987.65 32.3148C942.749 56.4746 881.226 96.169 814.71 158.315C681.72 282.566 528.792 496.546 448.838 855.5H217.893L0.710887 250.892H174.208L325.378 669.833L325.497 670.163H325.849C326.15 670.062 326.331 669.795 326.333 669.788L326.339 669.765L326.362 669.681C326.382 669.606 326.412 669.495 326.452 669.347C326.533 669.051 326.654 668.609 326.817 668.025C327.143 666.858 327.636 665.124 328.302 662.859C329.635 658.33 331.665 651.679 334.45 643.193C340.022 626.223 348.62 601.918 360.724 572.588C384.933 513.925 423.167 435.163 479.272 354.767Z" stroke="#FC491E"/>
<path d="M324.947 669.777C304.43 731.307 294.5 813.029 290.426 856H448.493C608.56 137.814 1061 0 1061 0C488.064 52.4087 324.947 669.777 324.947 669.777Z" fill="#FC491E"/>
<defs>
<filter id="filter0_f" x="99" y="10" width="872" height="870" filterUnits="userSpaceOnUse" color-interpolation-filters="sRGB">
<feFlood flood-opacity="0" result="BackgroundImageFix"/>
<feBlend mode="normal" in="SourceGraphic" in2="BackgroundImageFix" result="shape"/>
<feGaussianBlur stdDeviation="85" result="effect1_foregroundBlur"/>
</filter>
</defs>
</svg>
