<svg width="98" height="98" viewBox="0 0 98 98" fill="none" xmlns="http://www.w3.org/2000/svg">
<circle cx="49" cy="49" r="48.5" stroke="#FC491E"/>
<path d="M47.0609 47.3381H42.4541L38.7354 43.2161C37.6809 41.9907 36.1268 41.3223 34.5172 41.3223H30.299C28.4119 41.3223 26.6358 42.2692 25.5812 43.8289L19.4759 52.7412C18.9209 53.5767 18.8099 54.6351 19.3649 55.4706C19.8644 56.1948 20.586 56.529 21.363 56.529C22.0846 56.529 22.8616 56.1948 23.3056 55.5263L26.4693 50.903V74.5208C26.4693 75.6905 27.3018 76.8046 28.4119 76.9717C29.9105 77.1945 31.1315 76.0804 31.1315 74.6322V59.9825H33.4072V74.4651C33.4072 75.6348 34.2397 76.7489 35.3498 76.916C36.8483 77.1388 38.0694 76.0247 38.0694 74.5765V49.4548L39.679 51.2373C40.123 51.7386 40.7891 52.0171 41.4551 52.0171H47.0609C48.3375 52.0171 49.392 50.9587 49.392 49.6776C49.4475 48.3407 48.393 47.3381 47.0609 47.3381Z" fill="#FC491E"/>
<path d="M32.2417 39.9852C35.1231 39.9852 37.459 37.641 37.459 34.7492C37.459 31.8574 35.1231 29.5132 32.2417 29.5132C29.3603 29.5132 27.0244 31.8574 27.0244 34.7492C27.0244 37.641 29.3603 39.9852 32.2417 39.9852Z" fill="#FC491E"/>
<path d="M51.9391 47.3381H56.5458L60.2645 43.2161C61.3191 41.9907 62.8732 41.3223 64.4828 41.3223H68.701C70.5881 41.3223 72.3642 42.2692 73.4188 43.8289L79.5241 52.7412C80.0791 53.5767 80.1901 54.6351 79.6351 55.4706C79.1356 56.1948 78.414 56.529 77.637 56.529C76.9154 56.529 76.1384 56.1948 75.6944 55.5263L72.5307 50.903V74.5208C72.5307 75.6905 71.6982 76.8046 70.5881 76.9717C69.0895 77.1945 67.8685 76.0804 67.8685 74.6322V59.9825H65.5928V74.4651C65.5928 75.6348 64.7603 76.7489 63.6502 76.916C62.1516 77.1388 60.9306 76.0247 60.9306 74.5765V49.4548L59.321 51.2373C58.877 51.7386 58.2109 52.0171 57.5449 52.0171H51.9391C50.6625 52.0171 49.608 50.9587 49.608 49.6776C49.5525 48.3407 50.607 47.3381 51.9391 47.3381Z" fill="#FC491E"/>
<path d="M66.7583 39.9852C63.8769 39.9852 61.541 37.641 61.541 34.7492C61.541 31.8574 63.8769 29.5132 66.7583 29.5132C69.6397 29.5132 71.9756 31.8574 71.9756 34.7492C71.9756 37.641 69.6397 39.9852 66.7583 39.9852Z" fill="#FC491E"/>
<path fill-rule="evenodd" clip-rule="evenodd" d="M58.6259 26.1239C58.6259 31.1629 54.5556 35.2478 49.5346 35.2478C44.5137 35.2478 40.4434 31.1629 40.4434 26.1239C40.4434 21.0849 44.5137 17 49.5346 17C54.5556 17 58.6259 21.0849 58.6259 26.1239ZM48.9645 25.845L51.254 23.0878C51.6356 22.6282 52.3224 22.5516 52.7803 23.0112C53.2382 23.3941 53.3145 24.16 52.933 24.6196L49.804 28.3725C49.6513 28.6023 49.2698 28.7555 48.9645 28.7555C48.6592 28.7555 48.354 28.6023 48.125 28.3725L46.3697 26.3046C45.9881 25.845 46.0645 25.0791 46.5224 24.6962C46.9803 24.3132 47.7434 24.3898 48.125 24.8494L48.9645 25.845Z" fill="#FC491E"/>
</svg>
