<svg width="98" height="98" viewBox="0 0 98 98" fill="none" xmlns="http://www.w3.org/2000/svg">
<path d="M21.2865 47.0651L23.069 55.5158C23.346 56.8291 24.6366 57.67 25.9391 57.3953L27.8876 56.9843L25.1038 43.7862L23.1553 44.1972C21.8528 44.472 21.0117 45.7625 21.2865 47.0651Z" fill="#FC491E"/>
<path d="M66.9926 35.9178C66.4005 36.0427 65.8481 36.2491 65.3377 36.5479L67.6197 47.3669C68.2051 47.4233 68.8045 47.3869 69.3859 47.2642C72.5078 46.6058 74.5125 43.5293 73.854 40.4074C73.1932 37.2748 70.1145 35.2593 66.9926 35.9178Z" fill="#FC491E"/>
<path d="M32.6226 39.7714L26.7663 41.0066L30.5288 58.8445L36.3851 57.6092L32.6226 39.7714Z" fill="#FC491E"/>
<path d="M36.8501 59.7599L33.9326 60.3752L35.874 69.5796C36.2805 71.5067 38.1729 72.7491 40.0999 72.3426L41.1011 72.1315C43.028 71.725 44.2575 69.8241 43.851 67.8971L41.9118 58.7032L36.8523 59.7704L36.8501 59.7599Z" fill="#FC491E"/>
<path d="M46.2406 36.8991L34.7864 39.3151L38.5511 57.1637L50.0053 54.7478C59.554 52.7337 66.7032 58.7481 68.0302 59.9748L60.621 24.8481C59.9026 26.5064 55.8215 34.8782 46.2406 36.8991Z" fill="#FC491E"/>
<circle cx="49" cy="49" r="48.5" stroke="#FC491E"/>
</svg>
