<svg width="98" height="98" viewBox="0 0 98 98" fill="none" xmlns="http://www.w3.org/2000/svg">
<path d="M48.9644 57.1816C52.4791 57.1816 55.3282 54.2621 55.3282 50.6609C55.3282 47.0596 52.4791 44.1401 48.9644 44.1401C45.4498 44.1401 42.6006 47.0596 42.6006 50.6609C42.6006 54.2621 45.4498 57.1816 48.9644 57.1816Z" fill="#FC491E"/>
<path d="M55.1131 58.2075C53.4686 59.6728 51.3235 60.4788 48.9638 60.4788C46.6042 60.4788 44.4591 59.5996 42.8145 58.2075C39.8114 60.552 38.2383 64.655 38.2383 69.4173C38.2383 72.8608 59.6179 72.8608 59.6179 69.4173C59.6894 64.655 58.1163 60.552 55.1131 58.2075Z" fill="#FC491E"/>
<path d="M70.1292 30C63.0504 30 57.3301 34.5425 57.3301 40.184C57.3301 43.3345 59.1177 46.1186 61.9063 48.0236C61.4773 49.5621 60.5477 51.6136 59.8327 53.0057C59.4752 53.6651 60.0472 54.3977 60.7623 54.2512C62.9074 53.8116 66.4825 52.7126 69.3427 50.3681C69.6287 50.3681 69.9147 50.3681 70.2007 50.3681C77.2796 50.3681 82.9999 45.8256 82.9999 40.1108C82.9284 34.6158 77.2081 30 70.1292 30ZM75.206 38.4989L69.8432 43.9939C69.5572 44.287 69.1997 44.4335 68.8422 44.4335C68.4847 44.4335 68.1271 44.287 67.8411 43.9939L65.124 41.2098C64.5519 40.6236 64.5519 39.7444 65.124 39.1583C65.696 38.5722 66.5541 38.5722 67.1261 39.1583L68.8422 40.9167L73.2039 36.4475C73.7759 35.8613 74.634 35.8613 75.206 36.4475C75.778 37.0336 75.778 37.9128 75.206 38.4989Z" fill="#FC491E"/>
<path d="M36.0221 48.0968C38.8107 46.1919 40.5983 43.4077 40.5983 40.2573C40.5983 34.6158 34.878 30.0732 27.7992 30.0732C20.7203 30.0732 15 34.6158 15 40.2573C15 45.8988 20.7203 50.5146 27.7992 50.5146C28.0852 50.5146 28.3712 50.5146 28.6572 50.5146C31.4458 52.8591 35.0925 53.8848 37.2376 54.3977C37.9527 54.5442 38.4532 53.8116 38.1672 53.1522C37.3807 51.6869 36.3796 49.6354 36.0221 48.0968ZM31.6604 42.1622C32.2324 42.7483 32.2324 43.6275 31.6604 44.2137C31.3743 44.5067 31.0168 44.6533 30.6593 44.6533C30.3018 44.6533 29.9443 44.5067 29.6583 44.2137L27.7992 42.3087L25.9401 44.2137C25.654 44.5067 25.2965 44.6533 24.939 44.6533C24.5815 44.6533 24.224 44.5067 23.938 44.2137C23.3659 43.6275 23.3659 42.7483 23.938 42.1622L25.7971 40.2573L23.938 38.3524C23.3659 37.7662 23.3659 36.887 23.938 36.3009C24.51 35.7148 25.368 35.7148 25.9401 36.3009L27.7992 38.2058L29.6583 36.3009C30.2303 35.7148 31.0883 35.7148 31.6604 36.3009C32.2324 36.887 32.2324 37.7662 31.6604 38.3524L29.8013 40.2573L31.6604 42.1622Z" fill="#FC491E"/>
<circle cx="49" cy="49" r="48.5" stroke="#FC491E"/>
</svg>
