<svg width="145" height="42" viewBox="0 0 145 42" fill="none" xmlns="http://www.w3.org/2000/svg">
<g clip-path="url(#clip0)">
<path d="M31.9486 0.173736C30.6354 0.877515 29.2898 1.52829 28.0385 2.34397C24.2819 4.79394 21.4312 8.06254 19.1677 11.8995C17.5181 14.6999 16.2964 17.6858 15.1809 20.7158C14.6114 22.2618 14.1776 23.8578 13.7349 25.4479C13.549 26.1164 13.248 26.3785 12.5161 26.3549C10.7249 26.2901 8.92768 26.2901 7.13345 26.3372C6.51374 26.3549 6.2511 26.1017 6.07698 25.5834C5.54285 23.9992 4.99986 22.4149 4.44507 20.8395C3.84601 19.1404 3.18793 17.462 2.63609 15.7482C2.00752 13.8047 1.31698 11.8818 0.620534 9.96186C0.440521 9.46421 0.245753 8.9695 0.0775446 8.46891C-0.0582027 8.06254 -0.0582027 7.76513 0.534954 7.77985C1.88652 7.8093 3.2381 7.79752 4.59262 7.78574C5.01461 7.78279 5.19463 7.99481 5.31267 8.3629C5.96485 10.4036 6.71146 12.4148 7.45216 14.426C8.15156 16.3194 8.78308 18.2394 9.43525 20.1505C9.49723 20.333 9.48247 20.5539 9.74511 20.5833C10.0402 20.6157 10.0107 20.3713 10.0756 20.1976C11.678 15.8983 13.6405 11.8052 16.6299 8.251C19.5602 4.75861 23.2225 2.39403 27.5044 0.948188C28.6937 0.547711 29.9449 0.32686 31.1725 0.0412255C31.4057 -0.0117787 31.6535 0.0117787 31.8955 0C31.9132 0.0588936 31.9309 0.114843 31.9486 0.173736Z" fill="#0E1216"/>
<path d="M60.3929 17.1141C60.3929 14.3432 60.4106 11.5693 60.3811 8.79833C60.3722 8.08866 60.6349 7.84131 61.3225 7.8472C63.4856 7.86781 65.6546 7.75297 67.8118 7.87664C71.4238 8.08866 74.6109 9.17525 76.2222 13.6011C77.5531 17.2555 76.9688 20.7213 74.4132 23.7043C73.3184 24.9823 71.7957 25.7185 70.1136 26.0365C67.0652 26.6107 63.9843 26.1896 60.9211 26.3162C60.3545 26.3398 60.387 25.9629 60.387 25.5801C60.3958 22.7561 60.3929 19.9351 60.3929 17.1141ZM63.8338 17.0169C63.8338 18.7072 63.8574 20.3974 63.822 22.0877C63.8102 22.7149 64.0108 22.9829 64.6542 22.9652C65.7578 22.9387 66.8645 22.9652 67.9682 22.9534C69.0866 22.9416 70.1401 22.656 71.0608 22.017C72.9436 20.7125 73.4895 18.8014 73.3685 16.6489C73.1767 13.2271 71.0077 11.2189 67.5727 11.213C66.59 11.21 65.6073 11.2395 64.6276 11.2041C64.0197 11.1835 63.8102 11.4103 63.822 12.0169C63.8515 13.6836 63.8338 15.3502 63.8338 17.0169Z" fill="#0E1216"/>
<path d="M128.355 17.0669C128.355 14.346 128.352 11.6251 128.358 8.90426C128.361 7.97374 128.484 7.8589 129.438 7.85595C131.527 7.85006 133.616 7.7735 135.7 7.86479C139.442 8.02969 142.57 9.31946 144.149 13.445C144.777 15.091 145.004 16.8313 144.686 18.6659C144.337 20.6565 143.641 22.3997 142.239 23.8456C140.719 25.4092 138.781 26.1601 136.665 26.269C134.115 26.3986 131.557 26.3044 129.004 26.3309C128.322 26.3368 128.34 25.9098 128.34 25.4504C128.34 22.6559 128.34 19.8614 128.34 17.0669C128.343 17.0669 128.349 17.0669 128.355 17.0669ZM131.819 17.0375C131.819 18.7307 131.834 20.4209 131.81 22.1141C131.801 22.7119 132.02 22.9651 132.625 22.9533C133.731 22.9327 134.835 22.9533 135.942 22.9416C137.066 22.9327 138.105 22.6235 139.031 21.9875C140.483 20.9892 141.138 19.5434 141.301 17.8384C141.649 14.187 139.524 11.1304 135.508 11.2247C134.549 11.2482 133.59 11.2512 132.634 11.2217C132.029 11.2041 131.804 11.4308 131.813 12.0374C131.837 13.7011 131.819 15.3708 131.819 17.0375Z" fill="#0E1216"/>
<path d="M112.248 17.1501C112.248 14.3526 112.269 11.5581 112.234 8.76066C112.225 8.04804 112.461 7.83603 113.169 7.84192C117.103 7.87136 121.037 7.85369 124.97 7.85664C125.891 7.85664 125.991 7.95676 125.994 8.86372C125.997 9.37904 125.962 9.8973 126.003 10.4097C126.056 11.0605 125.791 11.2636 125.153 11.2577C122.326 11.2342 119.499 11.246 116.672 11.2489C115.663 11.2489 115.663 11.2519 115.66 12.2383C115.66 13.0717 115.692 13.908 115.648 14.7413C115.613 15.3803 115.822 15.5953 116.48 15.5894C119.183 15.554 121.889 15.5688 124.593 15.5658C125.54 15.5658 125.572 15.5982 125.581 16.5611C125.587 17.0529 125.578 17.5417 125.575 18.0335C125.572 18.5665 125.363 18.805 124.77 18.7991C122.016 18.7667 119.263 18.7991 116.51 18.7608C115.825 18.752 115.604 18.9669 115.648 19.6354C115.698 20.4187 115.71 21.2078 115.651 21.9882C115.601 22.6831 115.801 22.9128 116.533 22.901C119.36 22.8569 122.187 22.8834 125.015 22.8834C125.994 22.8834 126 22.8922 126.003 23.8728C126.003 24.4617 125.98 25.0506 126.009 25.6396C126.033 26.149 125.835 26.3404 125.324 26.3316C124.07 26.311 122.816 26.3257 121.562 26.3257C118.711 26.3257 115.857 26.308 113.007 26.3404C112.378 26.3463 112.219 26.1343 112.225 25.5424C112.251 22.745 112.237 19.9504 112.237 17.153C112.242 17.1501 112.245 17.1501 112.248 17.1501Z" fill="#0E1216"/>
<path d="M95.3096 26.3133C94.0613 26.7314 93.3265 25.9923 93.0137 24.6613C92.6448 23.0859 91.6651 22.6972 90.1158 22.8032C87.9379 22.9505 85.7424 22.8945 83.5586 22.815C82.6851 22.7826 82.3192 23.1772 82.0742 23.8751C82.0093 24.0577 81.9798 24.2402 81.8765 24.4169C81.5194 25.0176 81.484 26.0041 80.8702 26.2043C79.8639 26.5341 78.7307 26.328 77.6536 26.2897C77.1785 26.2721 77.4087 25.954 77.5179 25.7067C78.6599 23.1566 79.7901 20.6035 80.9322 18.0534C82.3428 14.9115 83.7711 11.7813 85.164 8.63047C85.4207 8.05331 85.766 7.80301 86.4004 7.84129C87.0851 7.88252 87.7786 7.8943 88.4632 7.83835C89.0682 7.78829 89.3515 8.09453 89.5698 8.57746C91.6297 13.1623 93.6954 17.7472 95.7552 22.3321C96.2687 23.4775 96.7556 24.6378 97.2838 25.7803C97.4756 26.1955 97.3369 26.3133 96.9415 26.3103C96.4723 26.3133 96.006 26.3133 95.3096 26.3133ZM87.3772 19.6936C88.2625 19.6936 89.1449 19.6789 90.0302 19.6995C90.6322 19.7113 90.7148 19.3933 90.523 18.9486C89.5993 16.8137 88.658 14.6847 87.7225 12.5557C87.6546 12.3997 87.6074 12.2348 87.3831 12.223C87.1441 12.2112 87.1234 12.3879 87.0556 12.5439C86.6896 13.3861 86.3178 14.2224 85.9489 15.0617C85.4 16.3073 84.8364 17.547 84.3111 18.8043C84.0455 19.4433 84.2432 19.6907 84.9485 19.6936C85.7571 19.6995 86.5657 19.6966 87.3772 19.6936Z" fill="#0E1216"/>
<path d="M34.8069 26.3169C33.358 26.7203 32.5612 26.046 32.2395 24.7062C31.85 23.0807 30.8467 22.692 29.2502 22.8039C27.0251 22.96 24.7793 22.8569 22.5454 22.8334C22.0408 22.8275 21.7368 22.9629 21.5332 23.44C21.1997 24.2232 20.7807 24.9712 20.4561 25.7574C20.2879 26.1638 20.0636 26.3316 19.6327 26.3199C18.8212 26.3022 18.0097 26.2845 17.2011 26.3228C16.5371 26.3523 16.5784 25.993 16.7555 25.5896C17.4814 23.9465 18.2281 22.3122 18.9688 20.6749C20.5151 17.2444 22.0614 13.8138 23.6078 10.3832C23.894 9.74719 24.2245 9.13175 24.4695 8.48098C24.6613 7.97155 25.0036 7.84198 25.4905 7.85082C26.2017 7.86554 26.9188 7.89204 27.6271 7.84493C28.2763 7.80076 28.6363 8.11584 28.8695 8.64883C29.9909 11.1724 31.0945 13.7048 32.2218 16.2255C33.6088 19.3262 35.0194 22.4211 36.4123 25.5189C36.731 26.2286 36.672 26.311 35.9136 26.3169C35.5447 26.3199 35.1758 26.3169 34.8069 26.3169ZM26.5411 19.6943C27.4235 19.6943 28.3088 19.6825 29.1911 19.6973C29.7607 19.7091 29.9761 19.5294 29.7223 18.9523C28.8045 16.8645 27.9015 14.7708 26.9897 12.683C26.9041 12.4887 26.7949 12.2325 26.5736 12.2384C26.3493 12.2443 26.2578 12.5211 26.1781 12.7066C25.2692 14.8003 24.3869 16.9028 23.4691 18.9935C23.2153 19.5677 23.4573 19.6973 23.9649 19.6973C24.8207 19.6943 25.6824 19.6973 26.5411 19.6943Z" fill="#0E1216"/>
<path d="M104.333 18.7782C104.333 21.0103 104.306 23.2394 104.348 25.4715C104.362 26.1811 104.097 26.3696 103.451 26.3254C102.863 26.2842 102.27 26.2783 101.683 26.3284C101.063 26.3784 100.892 26.1487 100.895 25.5421C100.919 21.1546 100.907 16.767 100.907 12.3794C100.907 11.0661 100.907 11.0661 99.6083 11.0631C98.3542 11.0631 97.1029 11.0514 95.8487 11.0661C95.2674 11.0749 94.9723 10.8717 95.0136 10.2504C95.0431 9.81165 95.0165 9.36701 95.0195 8.92825C95.0254 7.93884 95.108 7.85638 96.1409 7.85638C99.8739 7.85638 103.61 7.85638 107.343 7.85638C107.98 7.85638 108.624 7.88583 109.258 7.84755C109.916 7.80632 110.141 8.10079 110.111 8.71623C110.085 9.25511 110.082 9.79693 110.111 10.3329C110.141 10.8835 109.89 11.069 109.367 11.0631C108.042 11.0484 106.714 11.0543 105.386 11.0602C104.383 11.0631 104.333 11.1161 104.33 12.0849C104.33 14.317 104.333 16.5491 104.333 18.7782Z" fill="#0E1216"/>
<path d="M38.6283 17.0729C38.6283 14.3019 38.646 11.531 38.6135 8.76299C38.6047 8.05921 38.8142 7.77357 39.5372 7.84719C40.0477 7.90019 40.5701 7.88253 41.0836 7.85013C41.783 7.80891 42.0367 8.11221 42.0338 8.80421C42.0161 12.703 42.0249 16.5988 42.0249 20.4975C42.0249 21.11 42.0515 21.7255 42.019 22.335C41.9895 22.9416 42.2433 23.1507 42.8424 23.1478C45.398 23.1271 47.9536 23.1389 50.5062 23.1419C51.4977 23.1419 51.4977 23.1478 51.5007 24.1107C51.5036 24.6024 51.4653 25.0942 51.5095 25.5801C51.5627 26.1867 51.2882 26.328 50.7334 26.3251C46.9266 26.3103 43.1168 26.3045 39.31 26.328C38.7375 26.331 38.6106 26.1278 38.6135 25.6036C38.6372 22.7591 38.6283 19.9145 38.6283 17.0729Z" fill="#0E1216"/>
<path d="M54.0129 17.153C54.0129 14.3821 54.01 11.6141 54.0129 8.84312C54.0129 7.90966 54.069 7.8596 55.0281 7.85665C55.5681 7.85371 56.1111 7.87432 56.6482 7.85076C57.1587 7.83015 57.3624 8.08634 57.383 8.5516C57.3889 8.72239 57.3919 8.89613 57.3919 9.06692C57.3919 14.4351 57.3919 19.8032 57.3919 25.1714C57.3919 26.3139 57.3889 26.3316 56.2734 26.311C55.5681 26.2962 54.671 26.6113 54.2018 26.1814C53.6883 25.7103 54.0277 24.7886 54.0188 24.0671C53.9952 21.7614 54.0129 19.4587 54.0129 17.153Z" fill="#0E1216"/>
<path d="M128.686 36.2374C128.686 37.7804 128.691 39.3264 128.68 40.8694C128.677 41.1432 128.789 41.5555 128.417 41.6203C128.045 41.6851 127.594 41.847 127.263 41.4348C126.776 40.8282 126.266 40.2392 125.782 39.6297C124.643 38.1809 123.512 36.7262 122.382 35.2715C122.22 35.0654 122.075 34.7091 121.798 34.8151C121.526 34.9182 121.638 35.2951 121.636 35.5542C121.63 37.3446 121.615 39.132 121.641 40.9224C121.65 41.4995 121.453 41.7469 120.877 41.6644C120.853 41.6615 120.827 41.6644 120.803 41.6644C119.372 41.6527 119.523 41.7999 119.52 40.4247C119.514 37.5331 119.511 34.6414 119.528 31.7467C119.531 31.3963 119.286 30.8545 119.827 30.7397C120.402 30.616 121.063 30.457 121.532 31.04C122.418 32.1384 123.285 33.2456 124.159 34.3499C124.731 35.0742 125.298 35.8045 125.882 36.5201C126.038 36.7115 126.136 37.0737 126.484 36.9441C126.779 36.8322 126.655 36.5171 126.658 36.2904C126.67 34.6973 126.708 33.1013 126.649 31.5112C126.617 30.6366 127.113 30.6749 127.718 30.6543C128.364 30.6337 128.724 30.7573 128.7 31.5259C128.65 33.0984 128.686 34.6679 128.686 36.2374Z" fill="#0E1216"/>
<path d="M21.6747 36.2258C21.6747 37.7453 21.6865 39.2677 21.6658 40.7871C21.6629 41.0698 21.8753 41.5263 21.4415 41.6058C20.9723 41.6912 20.4529 41.8413 20.0398 41.2995C18.5259 39.3089 16.9737 37.3478 15.4362 35.3748C15.3447 35.26 15.2444 35.154 15.1617 35.0332C15.0467 34.8654 14.9286 34.7005 14.6925 34.7741C14.4328 34.8536 14.4978 35.0892 14.4978 35.2718C14.4919 37.0386 14.5037 38.8024 14.486 40.5692C14.483 40.9197 14.6748 41.4674 14.3177 41.5822C13.8308 41.7412 13.2495 41.6617 12.7153 41.6175C12.4763 41.5999 12.5176 41.3113 12.5176 41.1228C12.5147 37.8366 12.5176 34.5503 12.5117 31.264C12.5117 30.8577 12.677 30.7222 13.0813 30.6928C13.822 30.6368 14.3473 30.8312 14.8283 31.4761C16.1061 33.1899 17.4783 34.833 18.8151 36.4997C18.9745 36.6999 19.1102 37.0621 19.3876 36.9532C19.665 36.8442 19.5204 36.4702 19.5234 36.217C19.5352 34.6239 19.547 33.0279 19.5204 31.4348C19.5116 30.8871 19.724 30.7075 20.2523 30.6928C21.6747 30.6545 21.6747 30.6368 21.6747 32.0326C21.6747 33.4313 21.6747 34.8301 21.6747 36.2258Z" fill="#0E1216"/>
<path d="M56.6266 37.7452C56.6266 37.9425 56.6089 38.1398 56.6295 38.3341C56.8538 40.5132 56.0747 40.8459 54.2392 41.5909C52.4243 42.3271 50.5416 42.0326 48.8211 41.0786C47.6761 40.4425 46.9295 39.4119 46.6639 38.1604C46.1062 35.5367 46.4632 33.0778 48.6234 31.4553C50.7127 29.8858 53.9647 30.0478 55.815 31.5937C56.237 31.9471 56.2547 32.165 55.8918 32.5007C54.9356 33.3812 55.2514 33.3929 54.2333 32.7922C52.7755 31.9324 51.0137 32.1002 49.7713 33.125C48.6854 34.0231 48.1837 36.0932 48.5909 37.5302C49.2224 39.7446 52.2089 40.6604 54.0769 39.5296C54.6346 39.191 55.0006 37.9601 54.6759 37.4183C54.5402 37.1886 54.3041 37.2033 54.0857 37.2004C53.5693 37.1916 53.0529 37.1945 52.5365 37.1945C51.7426 37.1945 51.9226 36.6056 51.8931 36.1403C51.8607 35.678 51.9079 35.3129 52.5246 35.3217C53.7051 35.3423 54.8855 35.3335 56.0629 35.3246C56.4731 35.3217 56.6354 35.5072 56.6266 35.9077C56.6177 36.5172 56.6266 37.1297 56.6266 37.7452Z" fill="#0E1216"/>
<path d="M30.7138 41.9764C28.9756 41.8645 27.3378 41.5906 26.3138 39.9004C25.9981 39.3762 26.1692 39.1465 26.5765 38.9198C27.1962 38.5753 27.6949 38.3898 28.3087 39.1407C29.2117 40.242 31.2981 40.4569 32.5287 39.7384C33.0864 39.4145 33.4612 38.9463 33.3343 38.2337C33.234 37.6654 32.4844 37.1088 31.6817 36.9645C30.6754 36.7849 29.6544 36.7054 28.6687 36.3844C27.2965 35.9368 26.5233 34.9887 26.4525 33.64C26.3817 32.3031 27.2286 31.1871 28.533 30.7218C30.0764 30.1741 31.605 30.18 33.1484 30.7159C33.5055 30.8396 33.7858 31.0487 34.075 31.2754C34.4439 31.564 34.922 31.8673 34.8659 32.3384C34.801 32.8803 34.1193 32.8714 33.7356 33.1482C33.4642 33.3426 33.2871 33.0805 33.0982 32.9421C32.1362 32.2354 31.124 31.8526 29.8934 32.2C29.0229 32.4474 28.5654 32.8626 28.595 33.6047C28.6186 34.1906 29.1468 34.6265 29.9642 34.7678C31.003 34.9504 32.0565 35.0534 33.0687 35.3715C34.5708 35.8426 35.5948 37.0676 35.4679 38.4928C35.3292 40.0623 34.5442 41.1843 32.7441 41.6937C32.0713 41.8851 31.4073 41.9587 30.7138 41.9764Z" fill="#0E1216"/>
<path d="M92.3431 41.9824C90.5961 41.8882 88.9671 41.576 87.9313 39.9182C87.5978 39.3852 87.7867 39.1673 88.2323 38.8934C88.9022 38.4841 89.3596 38.4665 89.935 39.1643C90.8174 40.2333 92.9923 40.4571 94.1698 39.7327C94.7216 39.394 95.0669 38.9052 94.9282 38.2014C94.819 37.6478 94.1019 37.1001 93.3346 36.9706C92.3519 36.8057 91.3633 36.679 90.3924 36.4081C89.1294 36.0518 88.3356 35.2891 88.1261 34.017C87.9047 32.6772 88.4182 31.5671 89.637 30.9693C91.5817 30.0123 93.5619 30.0447 95.4948 31.0871C95.6217 31.1548 95.7515 31.2461 95.8341 31.358C96.1086 31.7261 96.8198 31.9587 96.3919 32.5771C96.0024 33.1395 95.0816 33.1955 94.5475 32.8068C93.4851 32.0323 92.3106 31.8586 91.0948 32.318C90.537 32.53 90.0708 32.9511 90.1682 33.6607C90.2774 34.4529 90.9679 34.5913 91.5581 34.7473C92.5762 35.0153 93.6445 35.0418 94.6567 35.3598C96.2827 35.8722 97.1473 37.0412 97.0677 38.6608C96.9968 40.1184 95.8902 41.2992 94.3734 41.7027C93.6976 41.8823 93.0336 41.9677 92.3431 41.9824Z" fill="#0E1216"/>
<path d="M70.7478 36.208C70.7478 37.7775 70.7301 39.347 70.7566 40.9136C70.7655 41.4701 70.6179 41.6998 70.0159 41.6704C68.7293 41.6056 68.7824 41.8942 68.7794 40.4542C68.7765 39.6209 68.7647 38.7875 68.7824 37.9542C68.7942 37.4683 68.6289 37.2298 68.1066 37.2357C66.7314 37.2534 65.3563 37.2534 63.9781 37.2357C63.4883 37.2298 63.326 37.4654 63.3289 37.91C63.3319 38.8906 63.3023 39.8712 63.3319 40.8518C63.3525 41.4878 63.1282 41.7087 62.479 41.6763C61.1687 41.6085 61.2661 41.8647 61.2632 40.4395C61.2573 37.4978 61.2897 34.556 61.2425 31.6143C61.2307 30.8281 61.5288 30.6602 62.2311 30.6897C63.2846 30.7338 63.3112 30.7103 63.32 31.5907C63.3289 32.5713 63.3289 33.5519 63.323 34.5325C63.32 35.0802 63.5561 35.3334 64.1257 35.3246C65.4035 35.3069 66.6813 35.3099 67.9591 35.3246C68.5552 35.3305 68.7972 35.0714 68.7853 34.4765C68.7617 33.4724 68.8001 32.4653 68.7706 31.4612C68.7558 30.9017 68.9447 30.6278 69.532 30.6985C69.7267 30.7221 69.9244 30.7191 70.1222 30.7014C70.612 30.6602 70.7566 30.8987 70.7537 31.3552C70.736 32.9718 70.7448 34.5914 70.7478 36.208Z" fill="#0E1216"/>
<path d="M133.21 36.1816C133.215 33.9496 134.08 32.1209 136.09 31.1168C138.271 30.0273 140.481 30.1509 142.535 31.6321C142.992 31.9619 143.019 32.224 142.62 32.5891C141.803 33.34 141.945 33.4902 140.859 32.913C139.554 32.221 138.129 32.224 136.863 33.0514C135.594 33.8818 135.063 35.1893 135.234 36.6587C135.609 39.8478 138.914 40.7665 141.224 39.3001C141.443 39.1617 141.661 38.7465 141.962 39.035C142.361 39.4149 142.98 39.7182 143.016 40.2924C143.048 40.8313 142.399 41.0551 142.004 41.2377C139.79 42.2624 137.562 42.283 135.458 40.9432C133.968 39.9921 133.186 38.2223 133.21 36.1816Z" fill="#0E1216"/>
<path d="M78.509 37.0977C78.509 35.9463 78.509 34.7949 78.509 33.6436C78.506 32.5275 78.506 32.5275 77.3522 32.5246C76.8121 32.5246 76.2721 32.504 75.7321 32.5305C75.2717 32.554 75.074 32.395 75.0563 31.9121C75.0091 30.7048 74.9943 30.6989 76.2367 30.6989C78.568 30.6989 80.9023 30.7313 83.2336 30.6812C84.0303 30.6635 84.0156 31.0817 84.0215 31.6441C84.0274 32.2065 83.9713 32.6011 83.2424 32.5364C82.6345 32.4833 82.0148 32.557 81.4039 32.5187C80.7518 32.4745 80.5452 32.7454 80.5511 33.3726C80.5717 35.8226 80.5629 38.2726 80.554 40.7196C80.554 41.0229 80.6868 41.4794 80.3593 41.5854C79.831 41.7532 79.232 41.7385 78.6919 41.5854C78.4529 41.5176 78.5149 41.1584 78.5149 40.9169C78.506 39.6478 78.509 38.3727 78.509 37.0977Z" fill="#0E1216"/>
<path d="M5.35584 36.1372C5.35584 34.5677 5.37355 33.0011 5.34699 31.4316C5.33814 30.8927 5.51815 30.7013 6.06114 30.6896C7.516 30.6601 7.51304 30.6395 7.51304 32.0647C7.51304 35.03 7.50124 37.9953 7.52485 40.9606C7.53075 41.5054 7.3773 41.6879 6.82545 41.6703C5.05189 41.6202 5.3824 41.847 5.36174 40.2539C5.34109 38.8817 5.35584 37.5094 5.35584 36.1372Z" fill="#0E1216"/>
<path d="M112.487 36.2134C112.487 34.6203 112.52 33.0272 112.475 31.4371C112.449 30.5036 113.06 30.6921 113.606 30.6626C114.202 30.6332 114.568 30.7333 114.562 31.4813C114.529 34.6174 114.535 37.7534 114.559 40.8895C114.562 41.502 114.352 41.7464 113.747 41.6699C113.579 41.6463 113.399 41.6434 113.234 41.6699C112.62 41.77 112.481 41.452 112.484 40.919C112.499 39.3495 112.487 37.7829 112.487 36.2134Z" fill="#0E1216"/>
<path d="M42.0255 36.264C42.0255 37.807 42.0108 39.35 42.0344 40.8901C42.0433 41.4348 41.9105 41.694 41.2966 41.6734C39.7857 41.6174 39.9421 41.853 39.9392 40.3541C39.9303 37.4419 39.9333 34.5266 39.9392 31.6143C39.9392 30.6985 39.948 30.6985 41.0635 30.7015C41.996 30.7044 42.0255 30.7309 42.0285 31.6379C42.0285 33.178 42.0255 34.721 42.0255 36.264Z" fill="#0E1216"/>
<path d="M31.8946 0C31.6526 0.0117787 31.4018 -0.0147234 31.1716 0.0412255C29.944 0.32686 28.6927 0.547711 27.5035 0.948188C23.2215 2.39403 19.5593 4.75861 16.626 8.24511C13.6395 11.7993 11.6741 15.8924 10.0747 20.1917L9.06543 26.3048C10.2163 26.299 11.3672 26.3107 12.5152 26.352C13.247 26.3785 13.548 26.1164 13.734 25.445C14.1766 23.8549 14.6104 22.2589 15.18 20.7129C16.2954 17.6828 17.5142 14.694 19.1668 11.8965C21.4302 8.0596 24.2809 4.791 28.0376 2.34102C29.2888 1.52535 30.6345 0.874571 31.9477 0.170792C31.93 0.114843 31.9123 0.0588936 31.8946 0Z" fill="#FC491E"/>
</g>
<defs>
<clipPath id="clip0">
<rect width="144.828" height="42" fill="white"/>
</clipPath>
</defs>
</svg>
