<svg width="16" height="16" viewBox="0 0 16 16" fill="none" xmlns="http://www.w3.org/2000/svg">
<g clip-path="url(#clip0)">
<path d="M15.9959 15.9995V15.9988H15.9999V10.1308C15.9999 7.26016 15.3819 5.04883 12.0259 5.04883C10.4125 5.04883 9.32985 5.93416 8.88785 6.7735H8.84118V5.31683H5.65918V15.9988H8.97252V10.7095C8.97252 9.31683 9.23652 7.97016 10.9612 7.97016C12.6605 7.97016 12.6859 9.5595 12.6859 10.7988V15.9995H15.9959Z" fill="black"/>
<path d="M0.263672 5.31836H3.58101V16.0004H0.263672V5.31836Z" fill="black"/>
<path d="M1.92133 0C0.860667 0 0 0.860667 0 1.92133C0 2.982 0.860667 3.86067 1.92133 3.86067C2.982 3.86067 3.84267 2.982 3.84267 1.92133C3.842 0.860667 2.98133 0 1.92133 0V0Z" fill="black"/>
</g>
<defs>
<clipPath id="clip0">
<rect width="16" height="16" fill="white"/>
</clipPath>
</defs>
</svg>
