<svg width="149" height="24" viewBox="0 0 149 24" fill="none" xmlns="http://www.w3.org/2000/svg">
<path d="M52.9199 11.9609C52.9199 8.49595 52.9684 5.02613 52.8956 1.5661C52.8665 0.303456 53.2839 -0.0244394 54.4972 3.03794e-05C58.2973 0.0783338 62.0974 0.0391821 65.8975 0.0440761C66.7954 0.0440761 67.5622 0.186001 68.3484 0.817322C69.3336 1.60525 70.6877 1.74718 71.7312 2.62809C75.3032 5.64277 76.9581 9.42091 76.2107 14.0457C75.9486 15.6705 75.3177 17.3247 74.216 18.695C73.1192 20.0555 73.2308 20.8043 74.5072 22.1795C74.9052 22.6052 75.7205 22.9576 75.4779 23.5889C75.2304 24.2349 74.3956 23.9217 73.8278 23.9217C67.3972 23.9413 60.9715 23.9364 54.5409 23.9315C52.9344 23.9315 52.9296 23.9315 52.9247 22.3557C52.915 18.8956 52.915 15.4258 52.9199 11.9609Z" fill="#E5CC30"/>
<path d="M0.412447 0.474854C3.58648 2.92673 6.73139 5.36882 9.89087 7.78644C11.2789 8.84843 12.3175 8.91694 13.6521 7.91368C16.8407 5.53032 19.9808 3.08823 23.1548 0.660824C23.5334 1.39002 23.6547 2.13391 23.6547 2.92184C23.6499 9.47975 23.6305 16.0426 23.6741 22.6005C23.679 23.6869 23.3393 23.9659 22.2861 23.9561C15.2537 23.9121 8.2262 23.9121 1.19382 23.9561C0.232876 23.9659 -0.00493352 23.682 -8.02624e-05 22.7326C0.0387458 15.9691 0.0144795 9.20569 0.0290393 2.44223C0.0290393 1.77175 -0.087439 1.05724 0.412447 0.474854Z" fill="#E5CC30"/>
<path d="M79.3313 11.9756C79.3313 8.43236 79.3556 4.88423 79.3168 1.341C79.3071 0.347528 79.6225 5.64149e-05 80.6369 0.00495038C87.5867 0.0441021 94.5366 0.0392081 101.486 0.00495038C102.457 5.64149e-05 102.879 0.259436 102.845 1.30185C102.782 3.00984 102.792 4.72273 102.841 6.43562C102.87 7.5025 102.423 7.88913 101.394 7.85976C99.7393 7.81572 98.0795 7.86466 96.4245 7.84508C95.3568 7.8304 94.8763 8.32958 94.886 9.40136C94.9055 11.1142 94.8666 12.8222 94.8957 14.5351C94.9103 15.465 94.5318 15.8712 93.5999 15.8565C91.9838 15.8271 90.3677 15.8418 88.7515 15.8565C87.2616 15.8712 87.0189 16.1208 87.0092 17.6624C86.9995 19.3753 86.9801 21.0833 87.014 22.7961C87.0286 23.5987 86.8151 23.9756 85.9221 23.9462C84.1069 23.8875 82.2821 23.8777 80.467 23.9462C79.5158 23.9805 79.3071 23.5792 79.3168 22.7227C79.3459 19.1501 79.3313 15.5629 79.3313 11.9756Z" fill="#E5CC30"/>
<path d="M105.733 11.9707C105.733 8.42744 105.757 4.88421 105.719 1.34098C105.709 0.342608 106.029 0.00492398 107.043 0.00981794C114.032 0.0489697 121.021 0.0391817 128.005 0.0147119C128.869 0.00981795 129.267 0.239834 129.242 1.17458C129.199 2.96577 129.213 4.75696 129.233 6.54815C129.242 7.47801 128.835 7.87442 127.913 7.85974C126.219 7.83037 124.52 7.86952 122.821 7.85484C121.763 7.84505 121.264 8.30019 121.283 9.39644C121.317 11.0653 121.259 12.739 121.298 14.4079C121.322 15.4405 120.924 15.9005 119.876 15.8712C118.381 15.8271 116.886 15.8614 115.391 15.8614C113.537 15.8663 113.358 16.0376 113.353 17.863C113.348 19.4927 113.319 21.1224 113.362 22.7521C113.387 23.6281 113.12 23.9951 112.188 23.956C110.577 23.8875 108.956 23.9364 107.34 23.9364C105.728 23.9364 105.723 23.9364 105.723 22.3606C105.728 18.8956 105.733 15.4307 105.733 11.9707Z" fill="#E5CC30"/>
<path d="M137.338 23.9217C133.902 23.9217 130.465 23.9315 127.029 23.9119C126.651 23.9119 126.156 24.0832 125.908 23.6721C125.641 23.2267 126.107 22.9478 126.306 22.615C126.898 21.6019 127.306 20.5008 127.854 19.4584C129.446 16.4192 130.781 13.248 132.353 10.1941C133.703 7.57096 135.042 4.94779 136.284 2.27569C136.508 1.79608 136.877 1.65905 137.362 1.66394C137.823 1.66884 138.085 1.89396 138.284 2.30995C139.735 5.37357 141.172 8.44698 142.681 11.4812C144.205 14.5497 145.821 17.5742 147.379 20.6281C147.811 21.4796 147.995 22.4095 148.782 23.1387C149.383 23.7015 148.641 23.8874 148.131 23.8923C145.748 23.9119 143.361 23.9217 140.978 23.9315C139.764 23.9364 138.551 23.9315 137.338 23.9315C137.338 23.9315 137.338 23.9266 137.338 23.9217Z" fill="#E5CC30"/>
<path d="M36.9527 23.9217C33.5166 23.9217 30.0756 23.9266 26.6395 23.9119C26.2949 23.9119 25.8533 24.0539 25.6349 23.6819C25.3679 23.2317 25.795 22.9478 25.994 22.6102C26.6007 21.6069 27.0181 20.5057 27.5616 19.4633C29.1632 16.385 30.5075 13.1697 32.1043 10.0865C33.4438 7.50249 34.759 4.91358 35.9723 2.27084C36.1713 1.84017 36.4771 1.67378 36.9236 1.66399C37.4137 1.6542 37.7535 1.8157 37.9816 2.30021C39.4278 5.36872 40.8595 8.44702 42.3689 11.4813C43.8783 14.5155 45.4798 17.5009 47.0232 20.5155C47.4648 21.3769 47.6201 22.3655 48.2705 23.1485C48.5568 23.496 48.3967 23.8581 47.8774 23.8875C47.4357 23.9119 46.9892 23.9315 46.5427 23.9315C43.3493 23.9364 40.151 23.9315 36.9575 23.9315C36.9527 23.9315 36.9527 23.9266 36.9527 23.9217Z" fill="#E5CC30"/>
</svg>
