<svg width="173" height="78" viewBox="0 0 173 78" fill="none" xmlns="http://www.w3.org/2000/svg">
<g filter="url(#filter0_d)">
<path d="M81 25H70V43H88L85 40.5C85 40.5 87.9331 36.795 88 34C88.1065 29.5486 86.5 25.0001 81 25Z" fill="#E6CD0B"/>
<path d="M30 25L39 31L48 25V43H30V25Z" fill="#E6CD0B"/>
<path d="M58 25L66.6603 43H49.3397L58 25Z" fill="#E6CD0B"/>
<path d="M134 25L142.66 43H125.34L134 25Z" fill="#E6CD0B"/>
<rect x="90" y="25" width="18" height="6" fill="#E6CD0B"/>
<rect x="90" y="31" width="12" height="6" fill="#E6CD0B"/>
<rect x="90" y="37" width="6" height="6" fill="#E6CD0B"/>
<rect x="110" y="25" width="18" height="6" fill="#E6CD0B"/>
<rect x="110" y="31" width="12" height="6" fill="#E6CD0B"/>
<rect x="110" y="37" width="6" height="6" fill="#E6CD0B"/>
</g>
<defs>
<filter id="filter0_d" x="0" y="0" width="172.66" height="78" filterUnits="userSpaceOnUse" color-interpolation-filters="sRGB">
<feFlood flood-opacity="0" result="BackgroundImageFix"/>
<feColorMatrix in="SourceAlpha" type="matrix" values="0 0 0 0 0 0 0 0 0 0 0 0 0 0 0 0 0 0 127 0"/>
<feOffset dy="5"/>
<feGaussianBlur stdDeviation="15"/>
<feColorMatrix type="matrix" values="0 0 0 0 0.901961 0 0 0 0 0.803922 0 0 0 0 0.0431373 0 0 0 0.3 0"/>
<feBlend mode="normal" in2="BackgroundImageFix" result="effect1_dropShadow"/>
<feBlend mode="normal" in="SourceGraphic" in2="effect1_dropShadow" result="shape"/>
</filter>
</defs>
</svg>
