<svg width="170" height="75" viewBox="0 0 170 75" fill="none" xmlns="http://www.w3.org/2000/svg">
<rect width="170" height="75" fill="#FC491E"/>
<g clip-path="url(#clip0)">
<path d="M57.0599 23.12C56.1532 23.6059 55.2241 24.0552 54.3601 24.6185C51.7662 26.3101 49.7979 28.567 48.235 31.2163C47.096 33.1499 46.2524 35.2116 45.4822 37.3038C45.089 38.3712 44.7894 39.4732 44.4838 40.5712C44.3554 41.0327 44.1476 41.2137 43.6423 41.1974C42.4054 41.1527 41.1645 41.1527 39.9257 41.1852C39.4978 41.1974 39.3164 41.0226 39.1962 40.6647C38.8274 39.5708 38.4525 38.477 38.0694 37.3892C37.6557 36.216 37.2014 35.0571 36.8203 33.8737C36.3863 32.5318 35.9095 31.2041 35.4286 29.8784C35.3043 29.5348 35.1699 29.1932 35.0537 28.8476C34.96 28.567 34.96 28.3616 35.3695 28.3718C36.3028 28.3921 37.236 28.384 38.1713 28.3759C38.4626 28.3738 38.5869 28.5202 38.6684 28.7744C39.1188 30.1834 39.6343 31.5721 40.1457 32.9608C40.6286 34.2682 41.0647 35.5938 41.515 36.9134C41.5578 37.0395 41.5476 37.192 41.7289 37.2123C41.9327 37.2347 41.9123 37.0659 41.9572 36.9459C43.0636 33.9774 44.4186 31.1512 46.4827 28.6971C48.506 26.2857 51.0347 24.653 53.9913 23.6547C54.8125 23.3782 55.6764 23.2257 56.5241 23.0285C56.685 22.9919 56.8562 23.0081 57.0233 23C57.0355 23.0407 57.0477 23.0793 57.0599 23.12Z" fill="white"/>
<path d="M76.6998 34.8172C76.6998 32.9039 76.712 30.9886 76.6916 29.0753C76.6855 28.5853 76.8669 28.4145 77.3416 28.4186C78.8352 28.4328 80.3328 28.3535 81.8223 28.4389C84.3164 28.5853 86.517 29.3356 87.6295 32.3915C88.5485 34.9148 88.1451 37.3079 86.3805 39.3676C85.6245 40.25 84.5731 40.7583 83.4117 40.9779C81.3068 41.3744 79.1795 41.0836 77.0645 41.171C76.6733 41.1873 76.6957 40.927 76.6957 40.6627C76.7018 38.7129 76.6998 36.765 76.6998 34.8172ZM79.0756 34.7501C79.0756 35.9172 79.0919 37.0842 79.0675 38.2513C79.0593 38.6844 79.1979 38.8694 79.6421 38.8572C80.4042 38.8389 81.1683 38.8572 81.9303 38.8491C82.7026 38.8409 83.43 38.6437 84.0657 38.2025C85.3657 37.3018 85.7427 35.9822 85.6592 34.4959C85.5267 32.1333 84.0291 30.7466 81.6573 30.7426C80.9788 30.7405 80.3002 30.7609 79.6237 30.7365C79.204 30.7222 79.0593 30.8788 79.0675 31.2977C79.0879 32.4485 79.0756 33.5993 79.0756 34.7501Z" fill="white"/>
<path d="M123.626 34.7847C123.626 32.906 123.624 31.0273 123.628 29.1486C123.63 28.5061 123.716 28.4268 124.374 28.4248C125.816 28.4207 127.259 28.3678 128.698 28.4309C131.281 28.5447 133.441 29.4353 134.531 32.2838C134.965 33.4204 135.122 34.622 134.902 35.8888C134.662 37.2632 134.181 38.4669 133.213 39.4652C132.164 40.5449 130.825 41.0633 129.364 41.1386C127.603 41.228 125.837 41.163 124.074 41.1813C123.604 41.1853 123.616 40.8905 123.616 40.5733C123.616 38.6438 123.616 36.7142 123.616 34.7847C123.618 34.7847 123.622 34.7847 123.626 34.7847ZM126.018 34.7644C126.018 35.9335 126.028 37.1006 126.012 38.2697C126.006 38.6824 126.157 38.8573 126.574 38.8491C127.339 38.8349 128.101 38.8491 128.865 38.841C129.641 38.8349 130.358 38.6214 130.998 38.1822C132.001 37.493 132.453 36.4947 132.565 35.3174C132.805 32.7962 131.338 30.6857 128.565 30.7508C127.903 30.767 127.241 30.7691 126.581 30.7487C126.163 30.7365 126.008 30.8931 126.014 31.3119C126.03 32.4607 126.018 33.6136 126.018 34.7644Z" fill="white"/>
<path d="M112.505 34.8414C112.505 32.9099 112.519 30.9803 112.495 29.0488C112.488 28.5567 112.651 28.4103 113.14 28.4144C115.857 28.4347 118.573 28.4225 121.289 28.4246C121.925 28.4246 121.994 28.4937 121.996 29.1199C121.998 29.4757 121.974 29.8336 122.002 30.1874C122.039 30.6367 121.855 30.777 121.415 30.7729C119.463 30.7567 117.511 30.7648 115.559 30.7668C114.862 30.7668 114.862 30.7689 114.86 31.45C114.86 32.0254 114.883 32.6028 114.852 33.1783C114.828 33.6195 114.972 33.7679 115.427 33.7638C117.293 33.7394 119.162 33.7496 121.028 33.7476C121.682 33.7476 121.705 33.7699 121.711 34.4348C121.715 34.7743 121.709 35.1119 121.707 35.4514C121.705 35.8194 121.56 35.9841 121.15 35.98C119.249 35.9577 117.348 35.98 115.447 35.9536C114.974 35.9475 114.822 36.0959 114.852 36.5575C114.887 37.0983 114.895 37.6432 114.854 38.182C114.819 38.6619 114.958 38.8205 115.463 38.8123C117.415 38.7818 119.367 38.8001 121.319 38.8001C121.996 38.8001 122 38.8062 122.002 39.4833C122.002 39.89 121.986 40.2966 122.006 40.7032C122.022 41.055 121.886 41.1872 121.533 41.1811C120.667 41.1668 119.801 41.177 118.935 41.177C116.967 41.177 114.997 41.1648 113.028 41.1872C112.594 41.1912 112.484 41.0448 112.488 40.6362C112.507 38.7046 112.497 36.775 112.497 34.8435C112.501 34.8414 112.503 34.8414 112.505 34.8414Z" fill="white"/>
<path d="M100.809 41.1689C99.9469 41.4576 99.4395 40.9473 99.2236 40.0282C98.9689 38.9405 98.2924 38.6721 97.2226 38.7453C95.7189 38.8469 94.2029 38.8083 92.695 38.7534C92.0919 38.731 91.8392 39.0035 91.6701 39.4854C91.6253 39.6114 91.6049 39.7375 91.5336 39.8595C91.2871 40.2743 91.2626 40.9554 90.8388 41.0936C90.144 41.3214 89.3615 41.179 88.6178 41.1526C88.2897 41.1404 88.4487 40.9208 88.524 40.75C89.3126 38.9893 90.093 37.2264 90.8816 35.4657C91.8555 33.2962 92.8418 31.1349 93.8035 28.9593C93.9808 28.5608 94.2192 28.388 94.6573 28.4144C95.13 28.4429 95.6088 28.451 96.0816 28.4124C96.4993 28.3778 96.6949 28.5893 96.8457 28.9227C98.2679 32.0885 99.6942 35.2542 101.116 38.4199C101.471 39.2109 101.807 40.012 102.172 40.8009C102.304 41.0876 102.209 41.1689 101.936 41.1668C101.612 41.1689 101.29 41.1689 100.809 41.1689ZM95.3317 36.5982C95.943 36.5982 96.5522 36.588 97.1635 36.6022C97.5792 36.6104 97.6363 36.3908 97.5038 36.0838C96.866 34.6097 96.216 33.1396 95.5701 31.6696C95.5233 31.5619 95.4906 31.448 95.3358 31.4399C95.1707 31.4317 95.1565 31.5537 95.1096 31.6615C94.8569 32.243 94.6002 32.8204 94.3455 33.3999C93.9665 34.26 93.5773 35.1159 93.2146 35.9841C93.0313 36.4253 93.1678 36.5961 93.6548 36.5982C94.2131 36.6022 94.7714 36.6002 95.3317 36.5982Z" fill="white"/>
<path d="M59.0336 41.1711C58.0332 41.4497 57.483 40.9841 57.2609 40.0589C56.9919 38.9366 56.2992 38.6682 55.1968 38.7455C53.6604 38.8532 52.1098 38.7821 50.5673 38.7658C50.2189 38.7617 50.009 38.8553 49.8684 39.1847C49.6382 39.7255 49.3488 40.2419 49.1247 40.7848C49.0086 41.0654 48.8537 41.1813 48.5562 41.1732C47.9959 41.161 47.4355 41.1488 46.8772 41.1752C46.4188 41.1955 46.4473 40.9475 46.5695 40.6689C47.0708 39.5344 47.5863 38.4059 48.0978 37.2754C49.1655 34.9067 50.2332 32.538 51.3009 30.1693C51.4985 29.7301 51.7267 29.3052 51.8959 28.8558C52.0283 28.5041 52.2647 28.4146 52.6009 28.4207C53.0919 28.4309 53.5871 28.4492 54.0761 28.4167C54.5244 28.3862 54.773 28.6037 54.934 28.9717C55.7082 30.7142 56.4703 32.4628 57.2487 34.2032C58.2064 36.3442 59.1803 38.4812 60.1421 40.6201C60.3622 41.1101 60.3214 41.1671 59.7977 41.1711C59.543 41.1732 59.2883 41.1711 59.0336 41.1711ZM53.3263 36.5984C53.9355 36.5984 54.5468 36.5903 55.1561 36.6004C55.5493 36.6085 55.6981 36.4845 55.5228 36.086C54.8891 34.6444 54.2656 33.1988 53.636 31.7573C53.5769 31.6231 53.5015 31.4462 53.3487 31.4502C53.1938 31.4543 53.1307 31.6454 53.0756 31.7735C52.4481 33.2192 51.8388 34.6709 51.2051 36.1145C51.0299 36.511 51.197 36.6004 51.5474 36.6004C52.1383 36.5984 52.7333 36.6004 53.3263 36.5984Z" fill="white"/>
<path d="M107.04 35.966C107.04 37.5072 107.021 39.0463 107.05 40.5875C107.06 41.0775 106.877 41.2077 106.431 41.1772C106.025 41.1487 105.615 41.1446 105.21 41.1792C104.782 41.2138 104.664 41.0552 104.666 40.6363C104.682 37.6068 104.674 34.5773 104.674 31.5478C104.674 30.641 104.674 30.641 103.778 30.6389C102.912 30.6389 102.048 30.6308 101.182 30.641C100.78 30.6471 100.576 30.5068 100.605 30.0778C100.625 29.7748 100.607 29.4678 100.609 29.1648C100.613 28.4817 100.67 28.4247 101.383 28.4247C103.961 28.4247 106.541 28.4247 109.118 28.4247C109.558 28.4247 110.002 28.4451 110.441 28.4186C110.895 28.3902 111.05 28.5935 111.029 29.0184C111.011 29.3905 111.009 29.7646 111.029 30.1347C111.05 30.5149 110.877 30.643 110.516 30.6389C109.601 30.6288 108.684 30.6328 107.767 30.6369C107.074 30.6389 107.04 30.6755 107.038 31.3445C107.038 32.8857 107.04 34.4268 107.04 35.966Z" fill="white"/>
<path d="M61.6723 34.7885C61.6723 32.8753 61.6845 30.962 61.6621 29.0507C61.656 28.5648 61.8007 28.3676 62.2999 28.4184C62.6524 28.455 63.013 28.4428 63.3676 28.4204C63.8505 28.392 64.0257 28.6014 64.0237 29.0792C64.0115 31.7712 64.0176 34.4612 64.0176 37.1532C64.0176 37.5761 64.0359 38.001 64.0135 38.4219C63.9931 38.8408 64.1684 38.9851 64.582 38.9831C66.3466 38.9689 68.1112 38.977 69.8737 38.979C70.5583 38.979 70.5583 38.9831 70.5604 39.648C70.5624 39.9875 70.5359 40.3271 70.5665 40.6625C70.6032 41.0814 70.4137 41.179 70.0306 41.177C67.4021 41.1668 64.7715 41.1627 62.143 41.179C61.7477 41.181 61.6601 41.0407 61.6621 40.6788C61.6784 38.7147 61.6723 36.7506 61.6723 34.7885Z" fill="white"/>
<path d="M72.2944 34.8435C72.2944 32.9302 72.2924 31.0189 72.2944 29.1057C72.2944 28.4611 72.3331 28.4266 72.9953 28.4245C73.3682 28.4225 73.7431 28.4367 74.114 28.4205C74.4665 28.4062 74.6071 28.5831 74.6214 28.9044C74.6254 29.0223 74.6275 29.1423 74.6275 29.2602C74.6275 32.9668 74.6275 36.6734 74.6275 40.3799C74.6275 41.1688 74.6254 41.181 73.8552 41.1668C73.3682 41.1566 72.7488 41.3742 72.4248 41.0773C72.0703 40.752 72.3046 40.1156 72.2985 39.6175C72.2822 38.0255 72.2944 36.4355 72.2944 34.8435Z" fill="white"/>
<path d="M123.854 48.021C123.854 49.0865 123.858 50.1539 123.85 51.2193C123.848 51.4084 123.925 51.6931 123.669 51.7378C123.412 51.7825 123.1 51.8944 122.872 51.6097C122.536 51.1909 122.183 50.7842 121.849 50.3633C121.063 49.363 120.282 48.3586 119.502 47.3541C119.39 47.2118 119.29 46.9658 119.098 47.039C118.911 47.1102 118.988 47.3704 118.986 47.5493C118.982 48.7855 118.972 50.0197 118.99 51.2559C118.996 51.6544 118.86 51.8252 118.463 51.7683C118.446 51.7663 118.428 51.7683 118.412 51.7683C117.423 51.7602 117.527 51.8618 117.525 50.9123C117.521 48.9157 117.519 46.919 117.531 44.9204C117.533 44.6784 117.364 44.3043 117.737 44.225C118.135 44.1396 118.591 44.0298 118.915 44.4324C119.526 45.1908 120.125 45.9553 120.728 46.7177C121.124 47.2179 121.515 47.7222 121.918 48.2162C122.026 48.3484 122.094 48.5985 122.334 48.509C122.538 48.4318 122.452 48.2142 122.454 48.0576C122.462 46.9577 122.489 45.8557 122.448 44.7577C122.426 44.1538 122.768 44.1803 123.186 44.166C123.632 44.1518 123.881 44.2372 123.864 44.7679C123.83 45.8536 123.854 46.9373 123.854 48.021Z" fill="white"/>
<path d="M49.9662 48.0127C49.9662 49.0619 49.9743 50.113 49.9601 51.1622C49.958 51.3574 50.1048 51.6725 49.8052 51.7274C49.4812 51.7864 49.1226 51.8901 48.8374 51.516C47.7921 50.1415 46.7203 48.7874 45.6587 47.4251C45.5955 47.3458 45.5262 47.2726 45.4692 47.1892C45.3897 47.0734 45.3082 46.9595 45.1452 47.0103C44.9659 47.0652 45.0107 47.2279 45.0107 47.3539C45.0066 48.5739 45.0148 49.7918 45.0026 51.0117C45.0005 51.2537 45.133 51.6319 44.8864 51.7112C44.5502 51.821 44.1488 51.7661 43.78 51.7356C43.615 51.7234 43.6435 51.5241 43.6435 51.394C43.6414 49.1249 43.6435 46.8558 43.6394 44.5867C43.6394 44.3061 43.7535 44.2126 44.0327 44.1923C44.5441 44.1536 44.9068 44.2878 45.2389 44.7331C46.1212 45.9164 47.0687 47.051 47.9917 48.2018C48.1018 48.3401 48.1955 48.5901 48.387 48.5149C48.5786 48.4397 48.4787 48.1815 48.4808 48.0066C48.4889 46.9066 48.4971 45.8046 48.4787 44.7046C48.4726 44.3265 48.6193 44.2024 48.9841 44.1923C49.9662 44.1658 49.9662 44.1536 49.9662 45.1174C49.9662 46.0832 49.9662 47.049 49.9662 48.0127Z" fill="white"/>
<path d="M74.0997 49.062C74.0997 49.1982 74.0875 49.3345 74.1018 49.4687C74.2566 50.9733 73.7187 51.203 72.4513 51.7174C71.1982 52.2257 69.8982 52.0224 68.7102 51.3636C67.9196 50.9245 67.4041 50.2128 67.2207 49.3487C66.8356 47.5371 67.0822 45.8393 68.5737 44.719C70.0164 43.6353 72.2618 43.7471 73.5394 44.8146C73.8308 45.0586 73.843 45.209 73.5924 45.4408C72.9322 46.0488 73.1502 46.0569 72.4472 45.6421C71.4406 45.0484 70.2242 45.1643 69.3664 45.8719C68.6165 46.492 68.2701 47.9214 68.5513 48.9136C68.9874 50.4426 71.0494 51.0749 72.3392 50.2942C72.7243 50.0603 72.977 49.2104 72.7529 48.8363C72.6591 48.6777 72.4961 48.6879 72.3453 48.6859C71.9888 48.6798 71.6322 48.6818 71.2756 48.6818C70.7275 48.6818 70.8518 48.2752 70.8314 47.9539C70.809 47.6347 70.8416 47.3826 71.2674 47.3887C72.0825 47.4029 72.8975 47.3968 73.7105 47.3907C73.9938 47.3887 74.1058 47.5168 74.0997 47.7933C74.0936 48.2142 74.0997 48.6371 74.0997 49.062Z" fill="white"/>
<path d="M56.2074 51.9838C55.0073 51.9065 53.8764 51.7175 53.1694 50.5504C52.9513 50.1885 53.0695 50.0299 53.3507 49.8733C53.7786 49.6354 54.123 49.5073 54.5468 50.0258C55.1703 50.7862 56.6109 50.9347 57.4606 50.4386C57.8457 50.2149 58.1045 49.8916 58.0168 49.3996C57.9476 49.0072 57.43 48.6229 56.8758 48.5232C56.181 48.3992 55.4759 48.3443 54.7954 48.1227C53.8479 47.8137 53.314 47.1589 53.2651 46.2277C53.2162 45.3046 53.801 44.534 54.7016 44.2128C55.7673 43.8346 56.8228 43.8387 57.8885 44.2087C58.135 44.2941 58.3286 44.4385 58.5283 44.595C58.783 44.7943 59.1131 45.0037 59.0744 45.329C59.0295 45.7032 58.5588 45.6971 58.294 45.8882C58.1065 46.0224 57.9842 45.8414 57.8538 45.7459C57.1896 45.2579 56.4907 44.9936 55.641 45.2335C55.0399 45.4043 54.7241 45.691 54.7444 46.2033C54.7607 46.6079 55.1255 46.9089 55.6899 47.0065C56.4071 47.1325 57.1346 47.2037 57.8335 47.4233C58.8706 47.7486 59.5777 48.5944 59.49 49.5785C59.3943 50.6622 58.8523 51.4369 57.6093 51.7886C57.1447 51.9208 56.6863 51.9716 56.2074 51.9838Z" fill="white"/>
<path d="M98.761 51.9878C97.5547 51.9228 96.4299 51.7072 95.7147 50.5625C95.4845 50.1945 95.6149 50.0441 95.9226 49.855C96.3851 49.5723 96.7009 49.5601 97.0983 50.042C97.7075 50.7801 99.2092 50.9346 100.022 50.4344C100.403 50.2006 100.642 49.8631 100.546 49.3772C100.471 48.9949 99.9754 48.6167 99.4456 48.5273C98.7671 48.4134 98.0845 48.326 97.4141 48.1389C96.542 47.8929 95.9939 47.3663 95.8492 46.4879C95.6964 45.5628 96.0509 44.7963 96.8925 44.3835C98.2353 43.7227 99.6025 43.7451 100.937 44.4649C101.025 44.5116 101.114 44.5747 101.171 44.6519C101.361 44.9061 101.852 45.0667 101.557 45.4937C101.288 45.882 100.652 45.9207 100.283 45.6523C99.5495 45.1175 98.7386 44.9976 97.8991 45.3148C97.514 45.4612 97.192 45.7519 97.2593 46.2419C97.3346 46.7889 97.8114 46.8844 98.219 46.9922C98.9219 47.1772 99.6596 47.1955 100.358 47.4151C101.481 47.7689 102.078 48.5761 102.023 49.6943C101.974 50.7008 101.21 51.5161 100.163 51.7947C99.6962 51.9187 99.2378 51.9777 98.761 51.9878Z" fill="white"/>
<path d="M83.8497 48.0007C83.8497 49.0844 83.8375 50.1681 83.8558 51.2498C83.8619 51.6341 83.76 51.7927 83.3444 51.7723C82.456 51.7276 82.4927 51.9269 82.4906 50.9326C82.4886 50.3572 82.4804 49.7818 82.4927 49.2064C82.5008 48.8709 82.3867 48.7062 82.026 48.7103C81.0765 48.7225 80.127 48.7225 79.1754 48.7103C78.8372 48.7062 78.7251 48.8689 78.7271 49.1759C78.7292 49.853 78.7088 50.53 78.7292 51.2071C78.7434 51.6463 78.5886 51.7988 78.1403 51.7764C77.2356 51.7296 77.3029 51.9065 77.3008 50.9224C77.2967 48.8912 77.3192 46.86 77.2865 44.8288C77.2784 44.286 77.4842 44.1701 77.9692 44.1904C78.6966 44.2209 78.7149 44.2046 78.721 44.8126C78.7271 45.4896 78.7271 46.1667 78.7231 46.8438C78.721 47.2219 78.884 47.3968 79.2773 47.3907C80.1596 47.3785 81.0419 47.3805 81.9242 47.3907C82.3358 47.3948 82.5028 47.2159 82.4947 46.8051C82.4784 46.1118 82.5049 45.4164 82.4845 44.7231C82.4743 44.3368 82.6047 44.1477 83.0102 44.1965C83.1447 44.2128 83.2812 44.2107 83.4177 44.1985C83.756 44.1701 83.8558 44.3348 83.8538 44.6499C83.8416 45.7662 83.8477 46.8844 83.8497 48.0007Z" fill="white"/>
<path d="M126.978 47.9822C126.982 46.4411 127.579 45.1784 128.967 44.4851C130.472 43.7328 131.999 43.8182 133.417 44.8409C133.733 45.0686 133.751 45.2496 133.476 45.5017C132.911 46.0202 133.009 46.1239 132.259 45.7254C131.359 45.2476 130.375 45.2496 129.5 45.8209C128.624 46.3943 128.257 47.297 128.376 48.3116C128.634 50.5136 130.917 51.148 132.512 50.1354C132.663 50.0399 132.814 49.7532 133.021 49.9525C133.296 50.2147 133.724 50.4242 133.749 50.8206C133.771 51.1927 133.323 51.3472 133.05 51.4733C131.522 52.1809 129.983 52.1951 128.53 51.27C127.502 50.6133 126.962 49.3913 126.978 47.9822Z" fill="white"/>
<path d="M89.2086 48.6146C89.2086 47.8196 89.2086 47.0246 89.2086 46.2296C89.2066 45.459 89.2066 45.459 88.4099 45.457C88.037 45.457 87.6641 45.4428 87.2912 45.4611C86.9734 45.4773 86.8368 45.3676 86.8246 45.0341C86.792 44.2005 86.7818 44.1964 87.6397 44.1964C89.2494 44.1964 90.8611 44.2188 92.4708 44.1842C93.021 44.172 93.0108 44.4607 93.0149 44.8491C93.019 45.2374 92.9802 45.5099 92.477 45.4651C92.0572 45.4285 91.6293 45.4794 91.2075 45.4529C90.7572 45.4224 90.6146 45.6095 90.6187 46.0426C90.6329 47.7342 90.6268 49.4259 90.6207 51.1155C90.6207 51.3249 90.7124 51.6401 90.4862 51.7133C90.1215 51.8292 89.7078 51.819 89.335 51.7133C89.1699 51.6665 89.2127 51.4185 89.2127 51.2517C89.2066 50.3754 89.2086 49.495 89.2086 48.6146Z" fill="white"/>
<path d="M38.6982 47.9518C38.6982 46.868 38.7104 45.7864 38.6921 44.7027C38.686 44.3306 38.8103 44.1984 39.1852 44.1903C40.1898 44.1699 40.1877 44.1557 40.1877 45.1398C40.1877 47.1873 40.1796 49.2347 40.1959 51.2822C40.1999 51.6583 40.094 51.7844 39.713 51.7722C38.4883 51.7376 38.7166 51.8942 38.7023 50.7942C38.688 49.8467 38.6982 48.8992 38.6982 47.9518Z" fill="white"/>
<path d="M112.67 48.0047C112.67 46.9047 112.692 45.8047 112.662 44.7068C112.643 44.0622 113.065 44.1923 113.442 44.172C113.854 44.1517 114.106 44.2208 114.102 44.7373C114.08 46.9026 114.084 49.068 114.1 51.2334C114.102 51.6563 113.958 51.8251 113.54 51.7722C113.424 51.756 113.299 51.7539 113.185 51.7722C112.761 51.8414 112.666 51.6218 112.668 51.2538C112.678 50.1701 112.67 49.0884 112.67 48.0047Z" fill="white"/>
<path d="M64.0177 48.0392C64.0177 49.1046 64.0075 50.1701 64.0238 51.2334C64.0299 51.6096 63.9382 51.7885 63.5144 51.7743C62.4711 51.7356 62.5791 51.8983 62.5771 50.8634C62.571 48.8525 62.573 46.8396 62.5771 44.8288C62.5771 44.1964 62.5832 44.1964 63.3534 44.1985C63.9973 44.2005 64.0177 44.2188 64.0197 44.845C64.0197 45.9084 64.0177 46.9738 64.0177 48.0392Z" fill="white"/>
<path d="M57.0225 23C56.8554 23.0081 56.6822 22.9898 56.5233 23.0285C55.6756 23.2257 54.8117 23.3782 53.9905 23.6547C51.034 24.653 48.5053 26.2857 46.4799 28.6931C44.4178 31.1472 43.0608 33.9734 41.9564 36.9419L41.2595 41.1629C42.0542 41.1588 42.8489 41.1669 43.6415 41.1954C44.1468 41.2137 44.3547 41.0327 44.483 40.5692C44.7887 39.4712 45.0882 38.3692 45.4815 37.3018C46.2517 35.2096 47.0932 33.1458 48.2343 31.2143C49.7971 28.565 51.7655 26.3081 54.3593 24.6164C55.2233 24.0532 56.1524 23.6039 57.0592 23.1179C57.047 23.0793 57.0347 23.0407 57.0225 23Z" fill="#E4E4E4"/>
</g>
<defs>
<clipPath id="clip0">
<rect width="100" height="29" fill="white" transform="translate(35 23)"/>
</clipPath>
</defs>
</svg>
