<svg width="162" height="68" viewBox="0 0 162 68" fill="none" xmlns="http://www.w3.org/2000/svg">
<g filter="url(#filter0_d)">
<path d="M75 22H64V40H82L79 37.5C79 37.5 81.9331 33.795 82 31C82.1065 26.5486 80.5 22.0001 75 22Z" fill="#E6CD0B"/>
<path d="M24 22L33 28L42 22V40H24V22Z" fill="#E6CD0B"/>
<path d="M52 22L60.6603 40H43.3397L52 22Z" fill="#E6CD0B"/>
<path d="M128 22L136.66 40H119.34L128 22Z" fill="#E6CD0B"/>
<rect x="84" y="22" width="18" height="6" fill="#E6CD0B"/>
<rect x="84" y="28" width="12" height="6" fill="#E6CD0B"/>
<rect x="84" y="34" width="6" height="6" fill="#E6CD0B"/>
<rect x="104" y="22" width="18" height="6" fill="#E6CD0B"/>
<rect x="104" y="28" width="12" height="6" fill="#E6CD0B"/>
<rect x="104" y="34" width="6" height="6" fill="#E6CD0B"/>
</g>
<defs>
<filter id="filter0_d" x="-1" y="0" width="162.66" height="68" filterUnits="userSpaceOnUse" color-interpolation-filters="sRGB">
<feFlood flood-opacity="0" result="BackgroundImageFix"/>
<feColorMatrix in="SourceAlpha" type="matrix" values="0 0 0 0 0 0 0 0 0 0 0 0 0 0 0 0 0 0 127 0"/>
<feOffset dy="3"/>
<feGaussianBlur stdDeviation="12.5"/>
<feColorMatrix type="matrix" values="0 0 0 0 0.901961 0 0 0 0 0.803922 0 0 0 0 0.0431373 0 0 0 0.3 0"/>
<feBlend mode="normal" in2="BackgroundImageFix" result="effect1_dropShadow"/>
<feBlend mode="normal" in="SourceGraphic" in2="effect1_dropShadow" result="shape"/>
</filter>
</defs>
</svg>
