<svg width="22" height="22" viewBox="0 0 22 22" fill="none" xmlns="http://www.w3.org/2000/svg">
<path d="M7.08993 8.9101L8.35993 7.6401C8.6288 7.36821 8.81408 7.02494 8.89384 6.65098C8.9736 6.27701 8.94448 5.88802 8.80993 5.5301C8.47138 4.62282 8.23656 3.68016 8.10993 2.7201C8.04201 2.23954 7.80166 1.80008 7.43369 1.48363C7.06572 1.16718 6.59524 0.995321 6.10993 1.0001H3.10993C2.83227 1.00036 2.55771 1.05843 2.30372 1.17062C2.04974 1.28281 1.82189 1.44665 1.6347 1.65172C1.4475 1.85679 1.30506 2.09859 1.21643 2.36172C1.12781 2.62486 1.09494 2.90356 1.11993 3.1801C1.44818 6.27109 2.49991 9.2413 4.18993 11.8501C5.72527 14.2663 7.77376 16.3148 10.1899 17.8501C12.7869 19.5342 15.7428 20.5857 18.8199 20.9201C19.0973 20.9452 19.3769 20.912 19.6407 20.8228C19.9045 20.7336 20.1468 20.5902 20.352 20.402C20.5572 20.2137 20.7209 19.9846 20.8324 19.7294C20.944 19.4743 21.0011 19.1986 20.9999 18.9201V15.9201C21.0121 15.4297 20.8436 14.9519 20.5265 14.5776C20.2093 14.2033 19.7657 13.9586 19.2799 13.8901C18.3199 13.7635 17.3772 13.5286 16.4699 13.1901C16.112 13.0556 15.723 13.0264 15.3491 13.1062C14.9751 13.1859 14.6318 13.3712 14.3599 13.6401L13.0899 14.9101" stroke="#E6CD0B" stroke-width="2" stroke-linecap="round" stroke-linejoin="round"/>
</svg>
