<svg width="16" height="16" viewBox="0 0 16 16" fill="none" xmlns="http://www.w3.org/2000/svg">
<g clip-path="url(#clip0)">
<path d="M16 3.13861C15.405 3.39961 14.771 3.57261 14.11 3.65661C14.79 3.25061 15.309 2.61261 15.553 1.84361C14.919 2.22161 14.219 2.48861 13.473 2.63761C12.871 1.99661 12.013 1.59961 11.077 1.59961C9.261 1.59961 7.799 3.07361 7.799 4.88061C7.799 5.14061 7.821 5.39061 7.875 5.62861C5.148 5.49561 2.735 4.18861 1.114 2.19761C0.831 2.68861 0.665 3.25061 0.665 3.85561C0.665 4.99161 1.25 5.99861 2.122 6.58161C1.595 6.57161 1.078 6.41861 0.64 6.17761C0.64 6.18761 0.64 6.20061 0.64 6.21361C0.64 7.80761 1.777 9.13161 3.268 9.43661C3.001 9.50961 2.71 9.54461 2.408 9.54461C2.198 9.54461 1.986 9.53261 1.787 9.48861C2.212 10.7876 3.418 11.7426 4.852 11.7736C3.736 12.6466 2.319 13.1726 0.785 13.1726C0.516 13.1726 0.258 13.1606 0 13.1276C1.453 14.0646 3.175 14.5996 5.032 14.5996C11.068 14.5996 14.368 9.59961 14.368 5.26561C14.368 5.12061 14.363 4.98061 14.356 4.84161C15.007 4.37961 15.554 3.80261 16 3.13861Z" fill="black"/>
</g>
<defs>
<clipPath id="clip0">
<rect width="16" height="16" fill="white"/>
</clipPath>
</defs>
</svg>
